<svg width="480" height="342" viewBox="0 0 480 342" fill="none" xmlns="http://www.w3.org/2000/svg">
<rect width="480" height="342" fill="white"/>
<path d="M80 230V40" stroke="#434D59"/>
<path d="M160 234V230" stroke="#C0C8D1"/>
<path d="M240 234V230" stroke="#C0C8D1"/>
<path d="M320 234V230" stroke="#C0C8D1"/>
<path d="M400 234V230" stroke="#C0C8D1"/>
<path d="M80 230L440 230" stroke="#434D59"/>
<path d="M181.5 307.144C180.436 307.144 179.608 306.784 179.016 306.064C178.424 305.336 178.128 304.268 178.128 302.86C178.128 301.452 178.424 300.372 179.016 299.62C179.608 298.86 180.436 298.48 181.5 298.48C182.204 298.48 182.792 298.64 183.264 298.96C183.744 299.28 184.116 299.732 184.38 300.316L183.564 300.808C183.396 300.376 183.14 300.032 182.796 299.776C182.452 299.512 182.02 299.38 181.5 299.38C181.14 299.38 180.816 299.448 180.528 299.584C180.248 299.72 180.008 299.916 179.808 300.172C179.616 300.42 179.468 300.72 179.364 301.072C179.26 301.416 179.208 301.804 179.208 302.236V303.484C179.208 304.348 179.408 305.024 179.808 305.512C180.208 306 180.772 306.244 181.5 306.244C182.036 306.244 182.484 306.108 182.844 305.836C183.204 305.556 183.468 305.188 183.636 304.732L184.44 305.236C184.176 305.828 183.796 306.296 183.3 306.64C182.804 306.976 182.204 307.144 181.5 307.144ZM190.405 307C190.045 307 189.785 306.904 189.625 306.712C189.473 306.52 189.377 306.28 189.337 305.992H189.277C189.141 306.376 188.917 306.664 188.605 306.856C188.293 307.048 187.921 307.144 187.489 307.144C186.833 307.144 186.321 306.976 185.953 306.64C185.593 306.304 185.413 305.848 185.413 305.272C185.413 304.688 185.625 304.24 186.049 303.928C186.481 303.616 187.149 303.46 188.053 303.46H189.277V302.848C189.277 302.408 189.157 302.072 188.917 301.84C188.677 301.608 188.309 301.492 187.813 301.492C187.437 301.492 187.121 301.576 186.865 301.744C186.617 301.912 186.409 302.136 186.241 302.416L185.665 301.876C185.833 301.54 186.101 301.256 186.469 301.024C186.837 300.784 187.301 300.664 187.861 300.664C188.613 300.664 189.197 300.848 189.613 301.216C190.029 301.584 190.237 302.096 190.237 302.752V306.16H190.945V307H190.405ZM187.645 306.328C187.885 306.328 188.105 306.3 188.305 306.244C188.505 306.188 188.677 306.108 188.821 306.004C188.965 305.9 189.077 305.78 189.157 305.644C189.237 305.508 189.277 305.36 189.277 305.2V304.18H188.005C187.453 304.18 187.049 304.26 186.793 304.42C186.545 304.58 186.421 304.812 186.421 305.116V305.368C186.421 305.672 186.529 305.908 186.745 306.076C186.969 306.244 187.269 306.328 187.645 306.328ZM193.683 307C193.347 307 193.091 306.908 192.915 306.724C192.747 306.532 192.663 306.284 192.663 305.98V301.648H191.643V300.808H192.219C192.427 300.808 192.567 300.768 192.639 300.688C192.719 300.6 192.759 300.452 192.759 300.244V299.092H193.623V300.808H194.979V301.648H193.623V306.16H194.883V307H193.683ZM198.803 307.144C198.379 307.144 197.995 307.068 197.651 306.916C197.315 306.764 197.023 306.548 196.775 306.268C196.535 305.98 196.347 305.64 196.211 305.248C196.083 304.848 196.019 304.4 196.019 303.904C196.019 303.416 196.083 302.972 196.211 302.572C196.347 302.172 196.535 301.832 196.775 301.552C197.023 301.264 197.315 301.044 197.651 300.892C197.995 300.74 198.379 300.664 198.803 300.664C199.219 300.664 199.591 300.74 199.919 300.892C200.247 301.044 200.527 301.256 200.759 301.528C200.991 301.792 201.167 302.108 201.287 302.476C201.415 302.844 201.479 303.248 201.479 303.688V304.144H197.027V304.432C197.027 304.696 197.067 304.944 197.147 305.176C197.235 305.4 197.355 305.596 197.507 305.764C197.667 305.932 197.859 306.064 198.083 306.16C198.315 306.256 198.575 306.304 198.863 306.304C199.255 306.304 199.595 306.212 199.883 306.028C200.179 305.844 200.407 305.58 200.567 305.236L201.251 305.728C201.051 306.152 200.739 306.496 200.315 306.76C199.891 307.016 199.387 307.144 198.803 307.144ZM198.803 301.468C198.539 301.468 198.299 301.516 198.083 301.612C197.867 301.7 197.679 301.828 197.519 301.996C197.367 302.164 197.247 302.364 197.159 302.596C197.071 302.82 197.027 303.068 197.027 303.34V303.424H200.447V303.292C200.447 302.74 200.295 302.3 199.991 301.972C199.695 301.636 199.299 301.468 198.803 301.468ZM208.281 307.684C208.281 308.324 208.029 308.792 207.525 309.088C207.029 309.392 206.281 309.544 205.281 309.544C204.313 309.544 203.617 309.412 203.193 309.148C202.769 308.884 202.557 308.508 202.557 308.02C202.557 307.684 202.645 307.42 202.821 307.228C202.997 307.044 203.237 306.908 203.541 306.82V306.688C203.173 306.512 202.989 306.224 202.989 305.824C202.989 305.512 203.089 305.276 203.289 305.116C203.489 304.948 203.745 304.824 204.057 304.744V304.696C203.689 304.52 203.401 304.268 203.193 303.94C202.993 303.612 202.893 303.232 202.893 302.8C202.893 302.488 202.949 302.2 203.061 301.936C203.173 301.672 203.329 301.448 203.529 301.264C203.737 301.072 203.981 300.924 204.261 300.82C204.549 300.716 204.869 300.664 205.221 300.664C205.661 300.664 206.053 300.744 206.397 300.904V300.796C206.397 300.556 206.453 300.36 206.565 300.208C206.677 300.048 206.861 299.968 207.117 299.968H208.041V300.808H206.865V301.204C207.089 301.396 207.261 301.628 207.381 301.9C207.509 302.164 207.573 302.464 207.573 302.8C207.573 303.112 207.517 303.4 207.405 303.664C207.293 303.928 207.133 304.156 206.925 304.348C206.725 304.532 206.481 304.676 206.193 304.78C205.905 304.884 205.585 304.936 205.233 304.936C205.033 304.936 204.833 304.916 204.633 304.876C204.425 304.932 204.237 305.016 204.069 305.128C203.901 305.232 203.817 305.38 203.817 305.572C203.817 305.756 203.905 305.88 204.081 305.944C204.257 306.008 204.485 306.04 204.765 306.04H206.085C206.853 306.04 207.409 306.188 207.753 306.484C208.105 306.772 208.281 307.172 208.281 307.684ZM207.381 307.756C207.381 307.508 207.285 307.308 207.093 307.156C206.909 307.012 206.577 306.94 206.097 306.94H204.033C203.649 307.116 203.457 307.396 203.457 307.78C203.457 308.052 203.557 308.284 203.757 308.476C203.965 308.668 204.313 308.764 204.801 308.764H205.689C206.225 308.764 206.641 308.68 206.937 308.512C207.233 308.344 207.381 308.092 207.381 307.756ZM205.233 304.168C205.641 304.168 205.965 304.072 206.205 303.88C206.445 303.68 206.565 303.376 206.565 302.968V302.632C206.565 302.224 206.445 301.924 206.205 301.732C205.965 301.532 205.641 301.432 205.233 301.432C204.825 301.432 204.501 301.532 204.261 301.732C204.021 301.924 203.901 302.224 203.901 302.632V302.968C203.901 303.376 204.021 303.68 204.261 303.88C204.501 304.072 204.825 304.168 205.233 304.168ZM211.671 307.144C211.255 307.144 210.875 307.068 210.531 306.916C210.187 306.764 209.891 306.548 209.643 306.268C209.403 305.98 209.215 305.64 209.079 305.248C208.943 304.848 208.875 304.4 208.875 303.904C208.875 303.416 208.943 302.972 209.079 302.572C209.215 302.172 209.403 301.832 209.643 301.552C209.891 301.264 210.187 301.044 210.531 300.892C210.875 300.74 211.255 300.664 211.671 300.664C212.087 300.664 212.463 300.74 212.799 300.892C213.143 301.044 213.439 301.264 213.687 301.552C213.935 301.832 214.127 302.172 214.263 302.572C214.399 302.972 214.467 303.416 214.467 303.904C214.467 304.4 214.399 304.848 214.263 305.248C214.127 305.64 213.935 305.98 213.687 306.268C213.439 306.548 213.143 306.764 212.799 306.916C212.463 307.068 212.087 307.144 211.671 307.144ZM211.671 306.292C212.191 306.292 212.615 306.132 212.943 305.812C213.271 305.492 213.435 305.004 213.435 304.348V303.46C213.435 302.804 213.271 302.316 212.943 301.996C212.615 301.676 212.191 301.516 211.671 301.516C211.151 301.516 210.727 301.676 210.399 301.996C210.071 302.316 209.907 302.804 209.907 303.46V304.348C209.907 305.004 210.071 305.492 210.399 305.812C210.727 306.132 211.151 306.292 211.671 306.292ZM216.045 307V300.808H217.005V301.948H217.065C217.177 301.652 217.377 301.388 217.665 301.156C217.953 300.924 218.349 300.808 218.853 300.808H219.225V301.768H218.661C218.141 301.768 217.733 301.868 217.437 302.068C217.149 302.26 217.005 302.504 217.005 302.8V307H216.045ZM224.385 300.808H225.333L222.561 308.44C222.489 308.624 222.417 308.776 222.345 308.896C222.273 309.024 222.185 309.124 222.081 309.196C221.977 309.268 221.845 309.32 221.685 309.352C221.533 309.384 221.345 309.4 221.121 309.4H220.629V308.56H221.601L222.069 307.24L219.753 300.808H220.713L222.201 305.02L222.489 306.028H222.549L222.885 305.02L224.385 300.808ZM229.429 307V306.112H231.769V299.368H231.685L229.573 301.336L228.985 300.7L231.205 298.624H232.777V306.112H234.937V307H229.429Z" fill="#434D59"/>
<rect x="160" y="296" width="12" height="12" rx="6" fill="#19C4E6"/>
<path d="M283.5 307.144C282.436 307.144 281.608 306.784 281.016 306.064C280.424 305.336 280.128 304.268 280.128 302.86C280.128 301.452 280.424 300.372 281.016 299.62C281.608 298.86 282.436 298.48 283.5 298.48C284.204 298.48 284.792 298.64 285.264 298.96C285.744 299.28 286.116 299.732 286.38 300.316L285.564 300.808C285.396 300.376 285.14 300.032 284.796 299.776C284.452 299.512 284.02 299.38 283.5 299.38C283.14 299.38 282.816 299.448 282.528 299.584C282.248 299.72 282.008 299.916 281.808 300.172C281.616 300.42 281.468 300.72 281.364 301.072C281.26 301.416 281.208 301.804 281.208 302.236V303.484C281.208 304.348 281.408 305.024 281.808 305.512C282.208 306 282.772 306.244 283.5 306.244C284.036 306.244 284.484 306.108 284.844 305.836C285.204 305.556 285.468 305.188 285.636 304.732L286.44 305.236C286.176 305.828 285.796 306.296 285.3 306.64C284.804 306.976 284.204 307.144 283.5 307.144ZM292.405 307C292.045 307 291.785 306.904 291.625 306.712C291.473 306.52 291.377 306.28 291.337 305.992H291.277C291.141 306.376 290.917 306.664 290.605 306.856C290.293 307.048 289.921 307.144 289.489 307.144C288.833 307.144 288.321 306.976 287.953 306.64C287.593 306.304 287.413 305.848 287.413 305.272C287.413 304.688 287.625 304.24 288.049 303.928C288.481 303.616 289.149 303.46 290.053 303.46H291.277V302.848C291.277 302.408 291.157 302.072 290.917 301.84C290.677 301.608 290.309 301.492 289.813 301.492C289.437 301.492 289.121 301.576 288.865 301.744C288.617 301.912 288.409 302.136 288.241 302.416L287.665 301.876C287.833 301.54 288.101 301.256 288.469 301.024C288.837 300.784 289.301 300.664 289.861 300.664C290.613 300.664 291.197 300.848 291.613 301.216C292.029 301.584 292.237 302.096 292.237 302.752V306.16H292.945V307H292.405ZM289.645 306.328C289.885 306.328 290.105 306.3 290.305 306.244C290.505 306.188 290.677 306.108 290.821 306.004C290.965 305.9 291.077 305.78 291.157 305.644C291.237 305.508 291.277 305.36 291.277 305.2V304.18H290.005C289.453 304.18 289.049 304.26 288.793 304.42C288.545 304.58 288.421 304.812 288.421 305.116V305.368C288.421 305.672 288.529 305.908 288.745 306.076C288.969 306.244 289.269 306.328 289.645 306.328ZM295.683 307C295.347 307 295.091 306.908 294.915 306.724C294.747 306.532 294.663 306.284 294.663 305.98V301.648H293.643V300.808H294.219C294.427 300.808 294.567 300.768 294.639 300.688C294.719 300.6 294.759 300.452 294.759 300.244V299.092H295.623V300.808H296.979V301.648H295.623V306.16H296.883V307H295.683ZM300.803 307.144C300.379 307.144 299.995 307.068 299.651 306.916C299.315 306.764 299.023 306.548 298.775 306.268C298.535 305.98 298.347 305.64 298.211 305.248C298.083 304.848 298.019 304.4 298.019 303.904C298.019 303.416 298.083 302.972 298.211 302.572C298.347 302.172 298.535 301.832 298.775 301.552C299.023 301.264 299.315 301.044 299.651 300.892C299.995 300.74 300.379 300.664 300.803 300.664C301.219 300.664 301.591 300.74 301.919 300.892C302.247 301.044 302.527 301.256 302.759 301.528C302.991 301.792 303.167 302.108 303.287 302.476C303.415 302.844 303.479 303.248 303.479 303.688V304.144H299.027V304.432C299.027 304.696 299.067 304.944 299.147 305.176C299.235 305.4 299.355 305.596 299.507 305.764C299.667 305.932 299.859 306.064 300.083 306.16C300.315 306.256 300.575 306.304 300.863 306.304C301.255 306.304 301.595 306.212 301.883 306.028C302.179 305.844 302.407 305.58 302.567 305.236L303.251 305.728C303.051 306.152 302.739 306.496 302.315 306.76C301.891 307.016 301.387 307.144 300.803 307.144ZM300.803 301.468C300.539 301.468 300.299 301.516 300.083 301.612C299.867 301.7 299.679 301.828 299.519 301.996C299.367 302.164 299.247 302.364 299.159 302.596C299.071 302.82 299.027 303.068 299.027 303.34V303.424H302.447V303.292C302.447 302.74 302.295 302.3 301.991 301.972C301.695 301.636 301.299 301.468 300.803 301.468ZM310.281 307.684C310.281 308.324 310.029 308.792 309.525 309.088C309.029 309.392 308.281 309.544 307.281 309.544C306.313 309.544 305.617 309.412 305.193 309.148C304.769 308.884 304.557 308.508 304.557 308.02C304.557 307.684 304.645 307.42 304.821 307.228C304.997 307.044 305.237 306.908 305.541 306.82V306.688C305.173 306.512 304.989 306.224 304.989 305.824C304.989 305.512 305.089 305.276 305.289 305.116C305.489 304.948 305.745 304.824 306.057 304.744V304.696C305.689 304.52 305.401 304.268 305.193 303.94C304.993 303.612 304.893 303.232 304.893 302.8C304.893 302.488 304.949 302.2 305.061 301.936C305.173 301.672 305.329 301.448 305.529 301.264C305.737 301.072 305.981 300.924 306.261 300.82C306.549 300.716 306.869 300.664 307.221 300.664C307.661 300.664 308.053 300.744 308.397 300.904V300.796C308.397 300.556 308.453 300.36 308.565 300.208C308.677 300.048 308.861 299.968 309.117 299.968H310.041V300.808H308.865V301.204C309.089 301.396 309.261 301.628 309.381 301.9C309.509 302.164 309.573 302.464 309.573 302.8C309.573 303.112 309.517 303.4 309.405 303.664C309.293 303.928 309.133 304.156 308.925 304.348C308.725 304.532 308.481 304.676 308.193 304.78C307.905 304.884 307.585 304.936 307.233 304.936C307.033 304.936 306.833 304.916 306.633 304.876C306.425 304.932 306.237 305.016 306.069 305.128C305.901 305.232 305.817 305.38 305.817 305.572C305.817 305.756 305.905 305.88 306.081 305.944C306.257 306.008 306.485 306.04 306.765 306.04H308.085C308.853 306.04 309.409 306.188 309.753 306.484C310.105 306.772 310.281 307.172 310.281 307.684ZM309.381 307.756C309.381 307.508 309.285 307.308 309.093 307.156C308.909 307.012 308.577 306.94 308.097 306.94H306.033C305.649 307.116 305.457 307.396 305.457 307.78C305.457 308.052 305.557 308.284 305.757 308.476C305.965 308.668 306.313 308.764 306.801 308.764H307.689C308.225 308.764 308.641 308.68 308.937 308.512C309.233 308.344 309.381 308.092 309.381 307.756ZM307.233 304.168C307.641 304.168 307.965 304.072 308.205 303.88C308.445 303.68 308.565 303.376 308.565 302.968V302.632C308.565 302.224 308.445 301.924 308.205 301.732C307.965 301.532 307.641 301.432 307.233 301.432C306.825 301.432 306.501 301.532 306.261 301.732C306.021 301.924 305.901 302.224 305.901 302.632V302.968C305.901 303.376 306.021 303.68 306.261 303.88C306.501 304.072 306.825 304.168 307.233 304.168ZM313.671 307.144C313.255 307.144 312.875 307.068 312.531 306.916C312.187 306.764 311.891 306.548 311.643 306.268C311.403 305.98 311.215 305.64 311.079 305.248C310.943 304.848 310.875 304.4 310.875 303.904C310.875 303.416 310.943 302.972 311.079 302.572C311.215 302.172 311.403 301.832 311.643 301.552C311.891 301.264 312.187 301.044 312.531 300.892C312.875 300.74 313.255 300.664 313.671 300.664C314.087 300.664 314.463 300.74 314.799 300.892C315.143 301.044 315.439 301.264 315.687 301.552C315.935 301.832 316.127 302.172 316.263 302.572C316.399 302.972 316.467 303.416 316.467 303.904C316.467 304.4 316.399 304.848 316.263 305.248C316.127 305.64 315.935 305.98 315.687 306.268C315.439 306.548 315.143 306.764 314.799 306.916C314.463 307.068 314.087 307.144 313.671 307.144ZM313.671 306.292C314.191 306.292 314.615 306.132 314.943 305.812C315.271 305.492 315.435 305.004 315.435 304.348V303.46C315.435 302.804 315.271 302.316 314.943 301.996C314.615 301.676 314.191 301.516 313.671 301.516C313.151 301.516 312.727 301.676 312.399 301.996C312.071 302.316 311.907 302.804 311.907 303.46V304.348C311.907 305.004 312.071 305.492 312.399 305.812C312.727 306.132 313.151 306.292 313.671 306.292ZM318.045 307V300.808H319.005V301.948H319.065C319.177 301.652 319.377 301.388 319.665 301.156C319.953 300.924 320.349 300.808 320.853 300.808H321.225V301.768H320.661C320.141 301.768 319.733 301.868 319.437 302.068C319.149 302.26 319.005 302.504 319.005 302.8V307H318.045ZM326.385 300.808H327.333L324.561 308.44C324.489 308.624 324.417 308.776 324.345 308.896C324.273 309.024 324.185 309.124 324.081 309.196C323.977 309.268 323.845 309.32 323.685 309.352C323.533 309.384 323.345 309.4 323.121 309.4H322.629V308.56H323.601L324.069 307.24L321.753 300.808H322.713L324.201 305.02L324.489 306.028H324.549L324.885 305.02L326.385 300.808ZM336.769 307H331.273V305.968L334.009 303.448C334.401 303.088 334.729 302.708 334.993 302.308C335.257 301.9 335.389 301.492 335.389 301.084V300.94C335.389 300.476 335.261 300.1 335.005 299.812C334.749 299.524 334.361 299.38 333.841 299.38C333.585 299.38 333.361 299.416 333.169 299.488C332.977 299.56 332.809 299.66 332.665 299.788C332.529 299.916 332.413 300.068 332.317 300.244C332.229 300.412 332.157 300.596 332.101 300.796L331.201 300.448C331.281 300.2 331.389 299.96 331.525 299.728C331.669 299.488 331.845 299.276 332.053 299.092C332.269 298.908 332.525 298.76 332.821 298.648C333.125 298.536 333.481 298.48 333.889 298.48C334.297 298.48 334.661 298.54 334.981 298.66C335.301 298.78 335.569 298.948 335.785 299.164C336.001 299.38 336.165 299.636 336.277 299.932C336.397 300.228 336.457 300.556 336.457 300.916C336.457 301.244 336.409 301.548 336.313 301.828C336.225 302.108 336.101 302.376 335.941 302.632C335.781 302.88 335.585 303.124 335.353 303.364C335.129 303.604 334.885 303.844 334.621 304.084L332.365 306.112H336.769V307Z" fill="#434D59"/>
<rect x="262" y="296" width="12" height="12" rx="6" fill="#8033CC"/>
<path d="M385.5 307.144C384.436 307.144 383.608 306.784 383.016 306.064C382.424 305.336 382.128 304.268 382.128 302.86C382.128 301.452 382.424 300.372 383.016 299.62C383.608 298.86 384.436 298.48 385.5 298.48C386.204 298.48 386.792 298.64 387.264 298.96C387.744 299.28 388.116 299.732 388.38 300.316L387.564 300.808C387.396 300.376 387.14 300.032 386.796 299.776C386.452 299.512 386.02 299.38 385.5 299.38C385.14 299.38 384.816 299.448 384.528 299.584C384.248 299.72 384.008 299.916 383.808 300.172C383.616 300.42 383.468 300.72 383.364 301.072C383.26 301.416 383.208 301.804 383.208 302.236V303.484C383.208 304.348 383.408 305.024 383.808 305.512C384.208 306 384.772 306.244 385.5 306.244C386.036 306.244 386.484 306.108 386.844 305.836C387.204 305.556 387.468 305.188 387.636 304.732L388.44 305.236C388.176 305.828 387.796 306.296 387.3 306.64C386.804 306.976 386.204 307.144 385.5 307.144ZM394.405 307C394.045 307 393.785 306.904 393.625 306.712C393.473 306.52 393.377 306.28 393.337 305.992H393.277C393.141 306.376 392.917 306.664 392.605 306.856C392.293 307.048 391.921 307.144 391.489 307.144C390.833 307.144 390.321 306.976 389.953 306.64C389.593 306.304 389.413 305.848 389.413 305.272C389.413 304.688 389.625 304.24 390.049 303.928C390.481 303.616 391.149 303.46 392.053 303.46H393.277V302.848C393.277 302.408 393.157 302.072 392.917 301.84C392.677 301.608 392.309 301.492 391.813 301.492C391.437 301.492 391.121 301.576 390.865 301.744C390.617 301.912 390.409 302.136 390.241 302.416L389.665 301.876C389.833 301.54 390.101 301.256 390.469 301.024C390.837 300.784 391.301 300.664 391.861 300.664C392.613 300.664 393.197 300.848 393.613 301.216C394.029 301.584 394.237 302.096 394.237 302.752V306.16H394.945V307H394.405ZM391.645 306.328C391.885 306.328 392.105 306.3 392.305 306.244C392.505 306.188 392.677 306.108 392.821 306.004C392.965 305.9 393.077 305.78 393.157 305.644C393.237 305.508 393.277 305.36 393.277 305.2V304.18H392.005C391.453 304.18 391.049 304.26 390.793 304.42C390.545 304.58 390.421 304.812 390.421 305.116V305.368C390.421 305.672 390.529 305.908 390.745 306.076C390.969 306.244 391.269 306.328 391.645 306.328ZM397.683 307C397.347 307 397.091 306.908 396.915 306.724C396.747 306.532 396.663 306.284 396.663 305.98V301.648H395.643V300.808H396.219C396.427 300.808 396.567 300.768 396.639 300.688C396.719 300.6 396.759 300.452 396.759 300.244V299.092H397.623V300.808H398.979V301.648H397.623V306.16H398.883V307H397.683ZM402.803 307.144C402.379 307.144 401.995 307.068 401.651 306.916C401.315 306.764 401.023 306.548 400.775 306.268C400.535 305.98 400.347 305.64 400.211 305.248C400.083 304.848 400.019 304.4 400.019 303.904C400.019 303.416 400.083 302.972 400.211 302.572C400.347 302.172 400.535 301.832 400.775 301.552C401.023 301.264 401.315 301.044 401.651 300.892C401.995 300.74 402.379 300.664 402.803 300.664C403.219 300.664 403.591 300.74 403.919 300.892C404.247 301.044 404.527 301.256 404.759 301.528C404.991 301.792 405.167 302.108 405.287 302.476C405.415 302.844 405.479 303.248 405.479 303.688V304.144H401.027V304.432C401.027 304.696 401.067 304.944 401.147 305.176C401.235 305.4 401.355 305.596 401.507 305.764C401.667 305.932 401.859 306.064 402.083 306.16C402.315 306.256 402.575 306.304 402.863 306.304C403.255 306.304 403.595 306.212 403.883 306.028C404.179 305.844 404.407 305.58 404.567 305.236L405.251 305.728C405.051 306.152 404.739 306.496 404.315 306.76C403.891 307.016 403.387 307.144 402.803 307.144ZM402.803 301.468C402.539 301.468 402.299 301.516 402.083 301.612C401.867 301.7 401.679 301.828 401.519 301.996C401.367 302.164 401.247 302.364 401.159 302.596C401.071 302.82 401.027 303.068 401.027 303.34V303.424H404.447V303.292C404.447 302.74 404.295 302.3 403.991 301.972C403.695 301.636 403.299 301.468 402.803 301.468ZM412.281 307.684C412.281 308.324 412.029 308.792 411.525 309.088C411.029 309.392 410.281 309.544 409.281 309.544C408.313 309.544 407.617 309.412 407.193 309.148C406.769 308.884 406.557 308.508 406.557 308.02C406.557 307.684 406.645 307.42 406.821 307.228C406.997 307.044 407.237 306.908 407.541 306.82V306.688C407.173 306.512 406.989 306.224 406.989 305.824C406.989 305.512 407.089 305.276 407.289 305.116C407.489 304.948 407.745 304.824 408.057 304.744V304.696C407.689 304.52 407.401 304.268 407.193 303.94C406.993 303.612 406.893 303.232 406.893 302.8C406.893 302.488 406.949 302.2 407.061 301.936C407.173 301.672 407.329 301.448 407.529 301.264C407.737 301.072 407.981 300.924 408.261 300.82C408.549 300.716 408.869 300.664 409.221 300.664C409.661 300.664 410.053 300.744 410.397 300.904V300.796C410.397 300.556 410.453 300.36 410.565 300.208C410.677 300.048 410.861 299.968 411.117 299.968H412.041V300.808H410.865V301.204C411.089 301.396 411.261 301.628 411.381 301.9C411.509 302.164 411.573 302.464 411.573 302.8C411.573 303.112 411.517 303.4 411.405 303.664C411.293 303.928 411.133 304.156 410.925 304.348C410.725 304.532 410.481 304.676 410.193 304.78C409.905 304.884 409.585 304.936 409.233 304.936C409.033 304.936 408.833 304.916 408.633 304.876C408.425 304.932 408.237 305.016 408.069 305.128C407.901 305.232 407.817 305.38 407.817 305.572C407.817 305.756 407.905 305.88 408.081 305.944C408.257 306.008 408.485 306.04 408.765 306.04H410.085C410.853 306.04 411.409 306.188 411.753 306.484C412.105 306.772 412.281 307.172 412.281 307.684ZM411.381 307.756C411.381 307.508 411.285 307.308 411.093 307.156C410.909 307.012 410.577 306.94 410.097 306.94H408.033C407.649 307.116 407.457 307.396 407.457 307.78C407.457 308.052 407.557 308.284 407.757 308.476C407.965 308.668 408.313 308.764 408.801 308.764H409.689C410.225 308.764 410.641 308.68 410.937 308.512C411.233 308.344 411.381 308.092 411.381 307.756ZM409.233 304.168C409.641 304.168 409.965 304.072 410.205 303.88C410.445 303.68 410.565 303.376 410.565 302.968V302.632C410.565 302.224 410.445 301.924 410.205 301.732C409.965 301.532 409.641 301.432 409.233 301.432C408.825 301.432 408.501 301.532 408.261 301.732C408.021 301.924 407.901 302.224 407.901 302.632V302.968C407.901 303.376 408.021 303.68 408.261 303.88C408.501 304.072 408.825 304.168 409.233 304.168ZM415.671 307.144C415.255 307.144 414.875 307.068 414.531 306.916C414.187 306.764 413.891 306.548 413.643 306.268C413.403 305.98 413.215 305.64 413.079 305.248C412.943 304.848 412.875 304.4 412.875 303.904C412.875 303.416 412.943 302.972 413.079 302.572C413.215 302.172 413.403 301.832 413.643 301.552C413.891 301.264 414.187 301.044 414.531 300.892C414.875 300.74 415.255 300.664 415.671 300.664C416.087 300.664 416.463 300.74 416.799 300.892C417.143 301.044 417.439 301.264 417.687 301.552C417.935 301.832 418.127 302.172 418.263 302.572C418.399 302.972 418.467 303.416 418.467 303.904C418.467 304.4 418.399 304.848 418.263 305.248C418.127 305.64 417.935 305.98 417.687 306.268C417.439 306.548 417.143 306.764 416.799 306.916C416.463 307.068 416.087 307.144 415.671 307.144ZM415.671 306.292C416.191 306.292 416.615 306.132 416.943 305.812C417.271 305.492 417.435 305.004 417.435 304.348V303.46C417.435 302.804 417.271 302.316 416.943 301.996C416.615 301.676 416.191 301.516 415.671 301.516C415.151 301.516 414.727 301.676 414.399 301.996C414.071 302.316 413.907 302.804 413.907 303.46V304.348C413.907 305.004 414.071 305.492 414.399 305.812C414.727 306.132 415.151 306.292 415.671 306.292ZM420.045 307V300.808H421.005V301.948H421.065C421.177 301.652 421.377 301.388 421.665 301.156C421.953 300.924 422.349 300.808 422.853 300.808H423.225V301.768H422.661C422.141 301.768 421.733 301.868 421.437 302.068C421.149 302.26 421.005 302.504 421.005 302.8V307H420.045ZM428.385 300.808H429.333L426.561 308.44C426.489 308.624 426.417 308.776 426.345 308.896C426.273 309.024 426.185 309.124 426.081 309.196C425.977 309.268 425.845 309.32 425.685 309.352C425.533 309.384 425.345 309.4 425.121 309.4H424.629V308.56H425.601L426.069 307.24L423.753 300.808H424.713L426.201 305.02L426.489 306.028H426.549L426.885 305.02L428.385 300.808ZM435.505 302.176C436.073 302.176 436.497 302.048 436.777 301.792C437.065 301.528 437.209 301.192 437.209 300.784V300.7C437.209 300.26 437.069 299.932 436.789 299.716C436.517 299.492 436.157 299.38 435.709 299.38C435.277 299.38 434.925 299.476 434.653 299.668C434.381 299.852 434.157 300.104 433.981 300.424L433.237 299.848C433.341 299.68 433.465 299.516 433.609 299.356C433.761 299.188 433.937 299.04 434.137 298.912C434.337 298.784 434.569 298.68 434.833 298.6C435.097 298.52 435.397 298.48 435.733 298.48C436.085 298.48 436.417 298.528 436.729 298.624C437.041 298.712 437.309 298.848 437.533 299.032C437.765 299.208 437.945 299.428 438.073 299.692C438.209 299.956 438.277 300.256 438.277 300.592C438.277 300.864 438.233 301.108 438.145 301.324C438.065 301.54 437.953 301.728 437.809 301.888C437.665 302.048 437.493 302.184 437.293 302.296C437.101 302.408 436.893 302.492 436.669 302.548V302.596C436.893 302.644 437.109 302.724 437.317 302.836C437.533 302.94 437.721 303.08 437.881 303.256C438.049 303.424 438.181 303.632 438.277 303.88C438.381 304.12 438.433 304.396 438.433 304.708C438.433 305.068 438.365 305.4 438.229 305.704C438.093 306 437.901 306.256 437.653 306.472C437.405 306.68 437.105 306.844 436.753 306.964C436.401 307.084 436.013 307.144 435.589 307.144C435.229 307.144 434.909 307.104 434.629 307.024C434.349 306.944 434.101 306.836 433.885 306.7C433.669 306.564 433.477 306.412 433.309 306.244C433.149 306.076 433.005 305.9 432.877 305.716L433.633 305.14C433.737 305.308 433.849 305.46 433.969 305.596C434.097 305.732 434.237 305.848 434.389 305.944C434.541 306.04 434.713 306.116 434.905 306.172C435.097 306.22 435.321 306.244 435.577 306.244C436.169 306.244 436.617 306.112 436.921 305.848C437.225 305.576 437.377 305.192 437.377 304.696V304.6C437.377 304.104 437.225 303.724 436.921 303.46C436.617 303.188 436.169 303.052 435.577 303.052H434.593V302.176H435.505Z" fill="#434D59"/>
<rect x="364" y="296" width="12" height="12" rx="6" fill="#E372D0"/>
<path d="M80 230V40" stroke="#C0C8D1"/>
<path d="M160 234V40" stroke="#C0C8D1"/>
<path d="M240 234V40" stroke="#C0C8D1"/>
<path d="M320 234V40" stroke="#C0C8D1"/>
<path d="M400 234V40" stroke="#C0C8D1"/>
<path d="M80 230L440 230" stroke="#434D59"/>
<path d="M20.4602 200.144C19.7802 200.144 19.2002 200.016 18.7202 199.76C18.2402 199.496 17.8322 199.136 17.4962 198.68L18.2402 198.056C18.5362 198.448 18.8642 198.748 19.2242 198.956C19.5842 199.156 20.0082 199.256 20.4962 199.256C21.0962 199.256 21.5522 199.112 21.8642 198.824C22.1842 198.536 22.3442 198.152 22.3442 197.672C22.3442 197.272 22.2242 196.964 21.9842 196.748C21.7442 196.532 21.3482 196.36 20.7962 196.232L20.1122 196.076C19.3442 195.9 18.7562 195.636 18.3482 195.284C17.9482 194.924 17.7482 194.42 17.7482 193.772C17.7482 193.404 17.8162 193.076 17.9522 192.788C18.0882 192.5 18.2762 192.26 18.5162 192.068C18.7642 191.876 19.0562 191.732 19.3922 191.636C19.7362 191.532 20.1122 191.48 20.5202 191.48C21.1522 191.48 21.6922 191.596 22.1402 191.828C22.5962 192.06 22.9802 192.4 23.2922 192.848L22.5362 193.4C22.3042 193.08 22.0242 192.828 21.6962 192.644C21.3682 192.46 20.9602 192.368 20.4722 192.368C19.9362 192.368 19.5122 192.484 19.2002 192.716C18.8962 192.94 18.7442 193.28 18.7442 193.736C18.7442 194.136 18.8722 194.44 19.1282 194.648C19.3922 194.848 19.7882 195.008 20.3162 195.128L21.0002 195.284C21.8242 195.468 22.4202 195.748 22.7882 196.124C23.1562 196.5 23.3402 197 23.3402 197.624C23.3402 198.008 23.2722 198.356 23.1362 198.668C23.0082 198.98 22.8202 199.244 22.5722 199.46C22.3242 199.676 22.0202 199.844 21.6602 199.964C21.3082 200.084 20.9082 200.144 20.4602 200.144ZM28.8008 198.992H28.7528C28.6888 199.136 28.6088 199.28 28.5128 199.424C28.4248 199.56 28.3128 199.684 28.1768 199.796C28.0408 199.9 27.8768 199.984 27.6848 200.048C27.4928 200.112 27.2688 200.144 27.0128 200.144C26.3728 200.144 25.8648 199.94 25.4888 199.532C25.1128 199.116 24.9248 198.532 24.9248 197.78V193.808H25.8848V197.612C25.8848 198.724 26.3568 199.28 27.3008 199.28C27.4928 199.28 27.6768 199.256 27.8528 199.208C28.0368 199.16 28.1968 199.088 28.3328 198.992C28.4768 198.896 28.5888 198.776 28.6688 198.632C28.7568 198.48 28.8008 198.3 28.8008 198.092V193.808H29.7608V200H28.8008V198.992ZM31.8052 193.808H32.7652V194.816H32.8132C32.9732 194.424 33.2052 194.136 33.5092 193.952C33.8212 193.76 34.1932 193.664 34.6252 193.664C35.0092 193.664 35.3572 193.74 35.6692 193.892C35.9812 194.044 36.2452 194.26 36.4612 194.54C36.6852 194.82 36.8532 195.16 36.9652 195.56C37.0852 195.96 37.1452 196.408 37.1452 196.904C37.1452 197.4 37.0852 197.848 36.9652 198.248C36.8532 198.648 36.6852 198.988 36.4612 199.268C36.2452 199.548 35.9812 199.764 35.6692 199.916C35.3572 200.068 35.0092 200.144 34.6252 200.144C33.7852 200.144 33.1812 199.76 32.8132 198.992H32.7652V202.4H31.8052V193.808ZM34.3612 199.28C34.9052 199.28 35.3332 199.112 35.6452 198.776C35.9572 198.432 36.1132 197.984 36.1132 197.432V196.376C36.1132 195.824 35.9572 195.38 35.6452 195.044C35.3332 194.7 34.9052 194.528 34.3612 194.528C34.1452 194.528 33.9372 194.56 33.7372 194.624C33.5452 194.68 33.3772 194.76 33.2332 194.864C33.0892 194.968 32.9732 195.096 32.8852 195.248C32.8052 195.392 32.7652 195.548 32.7652 195.716V198.02C32.7652 198.22 32.8052 198.4 32.8852 198.56C32.9732 198.712 33.0892 198.844 33.2332 198.956C33.3772 199.06 33.5452 199.14 33.7372 199.196C33.9372 199.252 34.1452 199.28 34.3612 199.28ZM38.7661 193.808H39.7261V194.816H39.7741C39.9341 194.424 40.1661 194.136 40.4701 193.952C40.7821 193.76 41.1541 193.664 41.5861 193.664C41.9701 193.664 42.3181 193.74 42.6301 193.892C42.9421 194.044 43.2061 194.26 43.4221 194.54C43.6461 194.82 43.8141 195.16 43.9261 195.56C44.0461 195.96 44.1061 196.408 44.1061 196.904C44.1061 197.4 44.0461 197.848 43.9261 198.248C43.8141 198.648 43.6461 198.988 43.4221 199.268C43.2061 199.548 42.9421 199.764 42.6301 199.916C42.3181 200.068 41.9701 200.144 41.5861 200.144C40.7461 200.144 40.1421 199.76 39.7741 198.992H39.7261V202.4H38.7661V193.808ZM41.3221 199.28C41.8661 199.28 42.2941 199.112 42.6061 198.776C42.9181 198.432 43.0741 197.984 43.0741 197.432V196.376C43.0741 195.824 42.9181 195.38 42.6061 195.044C42.2941 194.7 41.8661 194.528 41.3221 194.528C41.1061 194.528 40.8981 194.56 40.6981 194.624C40.5061 194.68 40.3381 194.76 40.1941 194.864C40.0501 194.968 39.9341 195.096 39.8461 195.248C39.7661 195.392 39.7261 195.548 39.7261 195.716V198.02C39.7261 198.22 39.7661 198.4 39.8461 198.56C39.9341 198.712 40.0501 198.844 40.1941 198.956C40.3381 199.06 40.5061 199.14 40.6981 199.196C40.8981 199.252 41.1061 199.28 41.3221 199.28ZM46.747 200C46.411 200 46.155 199.908 45.979 199.724C45.811 199.532 45.727 199.292 45.727 199.004V191.12H46.687V199.16H47.599V200H46.747ZM49.4766 192.356C49.2686 192.356 49.1166 192.308 49.0206 192.212C48.9326 192.108 48.8886 191.976 48.8886 191.816V191.66C48.8886 191.5 48.9326 191.372 49.0206 191.276C49.1166 191.172 49.2686 191.12 49.4766 191.12C49.6846 191.12 49.8326 191.172 49.9206 191.276C50.0166 191.372 50.0646 191.5 50.0646 191.66V191.816C50.0646 191.976 50.0166 192.108 49.9206 192.212C49.8326 192.308 49.6846 192.356 49.4766 192.356ZM48.9966 193.808H49.9566V200H48.9966V193.808ZM54.3246 200.144C53.9006 200.144 53.5166 200.068 53.1726 199.916C52.8366 199.764 52.5446 199.548 52.2966 199.268C52.0566 198.98 51.8686 198.64 51.7326 198.248C51.6046 197.848 51.5406 197.4 51.5406 196.904C51.5406 196.416 51.6046 195.972 51.7326 195.572C51.8686 195.172 52.0566 194.832 52.2966 194.552C52.5446 194.264 52.8366 194.044 53.1726 193.892C53.5166 193.74 53.9006 193.664 54.3246 193.664C54.7406 193.664 55.1126 193.74 55.4406 193.892C55.7686 194.044 56.0486 194.256 56.2806 194.528C56.5126 194.792 56.6886 195.108 56.8086 195.476C56.9366 195.844 57.0006 196.248 57.0006 196.688V197.144H52.5486V197.432C52.5486 197.696 52.5886 197.944 52.6686 198.176C52.7566 198.4 52.8766 198.596 53.0286 198.764C53.1886 198.932 53.3806 199.064 53.6046 199.16C53.8366 199.256 54.0966 199.304 54.3846 199.304C54.7766 199.304 55.1166 199.212 55.4046 199.028C55.7006 198.844 55.9286 198.58 56.0886 198.236L56.7726 198.728C56.5726 199.152 56.2606 199.496 55.8366 199.76C55.4126 200.016 54.9086 200.144 54.3246 200.144ZM54.3246 194.468C54.0606 194.468 53.8206 194.516 53.6046 194.612C53.3886 194.7 53.2006 194.828 53.0406 194.996C52.8886 195.164 52.7686 195.364 52.6806 195.596C52.5926 195.82 52.5486 196.068 52.5486 196.34V196.424H55.9686V196.292C55.9686 195.74 55.8166 195.3 55.5126 194.972C55.2166 194.636 54.8206 194.468 54.3246 194.468ZM58.5825 200V193.808H59.5425V194.948H59.6025C59.7145 194.652 59.9145 194.388 60.2025 194.156C60.4905 193.924 60.8865 193.808 61.3905 193.808H61.7625V194.768H61.1985C60.6785 194.768 60.2705 194.868 59.9745 195.068C59.6865 195.26 59.5425 195.504 59.5425 195.8V200H58.5825ZM69.3047 200V198.356H65.2607V197.468L68.7647 191.624H70.2647V197.516H71.4767V198.356H70.2647V200H69.3047ZM66.2087 197.516H69.3047V192.404H69.2447L66.2087 197.516Z" fill="#434D59"/>
<path d="M20.4602 160.144C19.7802 160.144 19.2002 160.016 18.7202 159.76C18.2402 159.496 17.8322 159.136 17.4962 158.68L18.2402 158.056C18.5362 158.448 18.8642 158.748 19.2242 158.956C19.5842 159.156 20.0082 159.256 20.4962 159.256C21.0962 159.256 21.5522 159.112 21.8642 158.824C22.1842 158.536 22.3442 158.152 22.3442 157.672C22.3442 157.272 22.2242 156.964 21.9842 156.748C21.7442 156.532 21.3482 156.36 20.7962 156.232L20.1122 156.076C19.3442 155.9 18.7562 155.636 18.3482 155.284C17.9482 154.924 17.7482 154.42 17.7482 153.772C17.7482 153.404 17.8162 153.076 17.9522 152.788C18.0882 152.5 18.2762 152.26 18.5162 152.068C18.7642 151.876 19.0562 151.732 19.3922 151.636C19.7362 151.532 20.1122 151.48 20.5202 151.48C21.1522 151.48 21.6922 151.596 22.1402 151.828C22.5962 152.06 22.9802 152.4 23.2922 152.848L22.5362 153.4C22.3042 153.08 22.0242 152.828 21.6962 152.644C21.3682 152.46 20.9602 152.368 20.4722 152.368C19.9362 152.368 19.5122 152.484 19.2002 152.716C18.8962 152.94 18.7442 153.28 18.7442 153.736C18.7442 154.136 18.8722 154.44 19.1282 154.648C19.3922 154.848 19.7882 155.008 20.3162 155.128L21.0002 155.284C21.8242 155.468 22.4202 155.748 22.7882 156.124C23.1562 156.5 23.3402 157 23.3402 157.624C23.3402 158.008 23.2722 158.356 23.1362 158.668C23.0082 158.98 22.8202 159.244 22.5722 159.46C22.3242 159.676 22.0202 159.844 21.6602 159.964C21.3082 160.084 20.9082 160.144 20.4602 160.144ZM28.8008 158.992H28.7528C28.6888 159.136 28.6088 159.28 28.5128 159.424C28.4248 159.56 28.3128 159.684 28.1768 159.796C28.0408 159.9 27.8768 159.984 27.6848 160.048C27.4928 160.112 27.2688 160.144 27.0128 160.144C26.3728 160.144 25.8648 159.94 25.4888 159.532C25.1128 159.116 24.9248 158.532 24.9248 157.78V153.808H25.8848V157.612C25.8848 158.724 26.3568 159.28 27.3008 159.28C27.4928 159.28 27.6768 159.256 27.8528 159.208C28.0368 159.16 28.1968 159.088 28.3328 158.992C28.4768 158.896 28.5888 158.776 28.6688 158.632C28.7568 158.48 28.8008 158.3 28.8008 158.092V153.808H29.7608V160H28.8008V158.992ZM31.8052 153.808H32.7652V154.816H32.8132C32.9732 154.424 33.2052 154.136 33.5092 153.952C33.8212 153.76 34.1932 153.664 34.6252 153.664C35.0092 153.664 35.3572 153.74 35.6692 153.892C35.9812 154.044 36.2452 154.26 36.4612 154.54C36.6852 154.82 36.8532 155.16 36.9652 155.56C37.0852 155.96 37.1452 156.408 37.1452 156.904C37.1452 157.4 37.0852 157.848 36.9652 158.248C36.8532 158.648 36.6852 158.988 36.4612 159.268C36.2452 159.548 35.9812 159.764 35.6692 159.916C35.3572 160.068 35.0092 160.144 34.6252 160.144C33.7852 160.144 33.1812 159.76 32.8132 158.992H32.7652V162.4H31.8052V153.808ZM34.3612 159.28C34.9052 159.28 35.3332 159.112 35.6452 158.776C35.9572 158.432 36.1132 157.984 36.1132 157.432V156.376C36.1132 155.824 35.9572 155.38 35.6452 155.044C35.3332 154.7 34.9052 154.528 34.3612 154.528C34.1452 154.528 33.9372 154.56 33.7372 154.624C33.5452 154.68 33.3772 154.76 33.2332 154.864C33.0892 154.968 32.9732 155.096 32.8852 155.248C32.8052 155.392 32.7652 155.548 32.7652 155.716V158.02C32.7652 158.22 32.8052 158.4 32.8852 158.56C32.9732 158.712 33.0892 158.844 33.2332 158.956C33.3772 159.06 33.5452 159.14 33.7372 159.196C33.9372 159.252 34.1452 159.28 34.3612 159.28ZM38.7661 153.808H39.7261V154.816H39.7741C39.9341 154.424 40.1661 154.136 40.4701 153.952C40.7821 153.76 41.1541 153.664 41.5861 153.664C41.9701 153.664 42.3181 153.74 42.6301 153.892C42.9421 154.044 43.2061 154.26 43.4221 154.54C43.6461 154.82 43.8141 155.16 43.9261 155.56C44.0461 155.96 44.1061 156.408 44.1061 156.904C44.1061 157.4 44.0461 157.848 43.9261 158.248C43.8141 158.648 43.6461 158.988 43.4221 159.268C43.2061 159.548 42.9421 159.764 42.6301 159.916C42.3181 160.068 41.9701 160.144 41.5861 160.144C40.7461 160.144 40.1421 159.76 39.7741 158.992H39.7261V162.4H38.7661V153.808ZM41.3221 159.28C41.8661 159.28 42.2941 159.112 42.6061 158.776C42.9181 158.432 43.0741 157.984 43.0741 157.432V156.376C43.0741 155.824 42.9181 155.38 42.6061 155.044C42.2941 154.7 41.8661 154.528 41.3221 154.528C41.1061 154.528 40.8981 154.56 40.6981 154.624C40.5061 154.68 40.3381 154.76 40.1941 154.864C40.0501 154.968 39.9341 155.096 39.8461 155.248C39.7661 155.392 39.7261 155.548 39.7261 155.716V158.02C39.7261 158.22 39.7661 158.4 39.8461 158.56C39.9341 158.712 40.0501 158.844 40.1941 158.956C40.3381 159.06 40.5061 159.14 40.6981 159.196C40.8981 159.252 41.1061 159.28 41.3221 159.28ZM46.747 160C46.411 160 46.155 159.908 45.979 159.724C45.811 159.532 45.727 159.292 45.727 159.004V151.12H46.687V159.16H47.599V160H46.747ZM49.4766 152.356C49.2686 152.356 49.1166 152.308 49.0206 152.212C48.9326 152.108 48.8886 151.976 48.8886 151.816V151.66C48.8886 151.5 48.9326 151.372 49.0206 151.276C49.1166 151.172 49.2686 151.12 49.4766 151.12C49.6846 151.12 49.8326 151.172 49.9206 151.276C50.0166 151.372 50.0646 151.5 50.0646 151.66V151.816C50.0646 151.976 50.0166 152.108 49.9206 152.212C49.8326 152.308 49.6846 152.356 49.4766 152.356ZM48.9966 153.808H49.9566V160H48.9966V153.808ZM54.3246 160.144C53.9006 160.144 53.5166 160.068 53.1726 159.916C52.8366 159.764 52.5446 159.548 52.2966 159.268C52.0566 158.98 51.8686 158.64 51.7326 158.248C51.6046 157.848 51.5406 157.4 51.5406 156.904C51.5406 156.416 51.6046 155.972 51.7326 155.572C51.8686 155.172 52.0566 154.832 52.2966 154.552C52.5446 154.264 52.8366 154.044 53.1726 153.892C53.5166 153.74 53.9006 153.664 54.3246 153.664C54.7406 153.664 55.1126 153.74 55.4406 153.892C55.7686 154.044 56.0486 154.256 56.2806 154.528C56.5126 154.792 56.6886 155.108 56.8086 155.476C56.9366 155.844 57.0006 156.248 57.0006 156.688V157.144H52.5486V157.432C52.5486 157.696 52.5886 157.944 52.6686 158.176C52.7566 158.4 52.8766 158.596 53.0286 158.764C53.1886 158.932 53.3806 159.064 53.6046 159.16C53.8366 159.256 54.0966 159.304 54.3846 159.304C54.7766 159.304 55.1166 159.212 55.4046 159.028C55.7006 158.844 55.9286 158.58 56.0886 158.236L56.7726 158.728C56.5726 159.152 56.2606 159.496 55.8366 159.76C55.4126 160.016 54.9086 160.144 54.3246 160.144ZM54.3246 154.468C54.0606 154.468 53.8206 154.516 53.6046 154.612C53.3886 154.7 53.2006 154.828 53.0406 154.996C52.8886 155.164 52.7686 155.364 52.6806 155.596C52.5926 155.82 52.5486 156.068 52.5486 156.34V156.424H55.9686V156.292C55.9686 155.74 55.8166 155.3 55.5126 154.972C55.2166 154.636 54.8206 154.468 54.3246 154.468ZM58.5825 160V153.808H59.5425V154.948H59.6025C59.7145 154.652 59.9145 154.388 60.2025 154.156C60.4905 153.924 60.8865 153.808 61.3905 153.808H61.7625V154.768H61.1985C60.6785 154.768 60.2705 154.868 59.9745 155.068C59.6865 155.26 59.5425 155.504 59.5425 155.8V160H58.5825ZM67.9367 155.176C68.5047 155.176 68.9287 155.048 69.2087 154.792C69.4967 154.528 69.6407 154.192 69.6407 153.784V153.7C69.6407 153.26 69.5007 152.932 69.2207 152.716C68.9487 152.492 68.5887 152.38 68.1407 152.38C67.7087 152.38 67.3567 152.476 67.0847 152.668C66.8127 152.852 66.5887 153.104 66.4127 153.424L65.6687 152.848C65.7727 152.68 65.8967 152.516 66.0407 152.356C66.1927 152.188 66.3687 152.04 66.5687 151.912C66.7687 151.784 67.0007 151.68 67.2647 151.6C67.5287 151.52 67.8287 151.48 68.1647 151.48C68.5167 151.48 68.8487 151.528 69.1607 151.624C69.4727 151.712 69.7407 151.848 69.9647 152.032C70.1967 152.208 70.3767 152.428 70.5047 152.692C70.6407 152.956 70.7087 153.256 70.7087 153.592C70.7087 153.864 70.6647 154.108 70.5767 154.324C70.4967 154.54 70.3847 154.728 70.2407 154.888C70.0967 155.048 69.9247 155.184 69.7247 155.296C69.5327 155.408 69.3247 155.492 69.1007 155.548V155.596C69.3247 155.644 69.5407 155.724 69.7487 155.836C69.9647 155.94 70.1527 156.08 70.3127 156.256C70.4807 156.424 70.6127 156.632 70.7087 156.88C70.8127 157.12 70.8647 157.396 70.8647 157.708C70.8647 158.068 70.7967 158.4 70.6607 158.704C70.5247 159 70.3327 159.256 70.0847 159.472C69.8367 159.68 69.5367 159.844 69.1847 159.964C68.8327 160.084 68.4447 160.144 68.0207 160.144C67.6607 160.144 67.3407 160.104 67.0607 160.024C66.7807 159.944 66.5327 159.836 66.3167 159.7C66.1007 159.564 65.9087 159.412 65.7407 159.244C65.5807 159.076 65.4367 158.9 65.3087 158.716L66.0647 158.14C66.1687 158.308 66.2807 158.46 66.4007 158.596C66.5287 158.732 66.6687 158.848 66.8207 158.944C66.9727 159.04 67.1447 159.116 67.3367 159.172C67.5287 159.22 67.7527 159.244 68.0087 159.244C68.6007 159.244 69.0487 159.112 69.3527 158.848C69.6567 158.576 69.8087 158.192 69.8087 157.696V157.6C69.8087 157.104 69.6567 156.724 69.3527 156.46C69.0487 156.188 68.6007 156.052 68.0087 156.052H67.0247V155.176H67.9367Z" fill="#434D59"/>
<path d="M20.4602 120.144C19.7802 120.144 19.2002 120.016 18.7202 119.76C18.2402 119.496 17.8322 119.136 17.4962 118.68L18.2402 118.056C18.5362 118.448 18.8642 118.748 19.2242 118.956C19.5842 119.156 20.0082 119.256 20.4962 119.256C21.0962 119.256 21.5522 119.112 21.8642 118.824C22.1842 118.536 22.3442 118.152 22.3442 117.672C22.3442 117.272 22.2242 116.964 21.9842 116.748C21.7442 116.532 21.3482 116.36 20.7962 116.232L20.1122 116.076C19.3442 115.9 18.7562 115.636 18.3482 115.284C17.9482 114.924 17.7482 114.42 17.7482 113.772C17.7482 113.404 17.8162 113.076 17.9522 112.788C18.0882 112.5 18.2762 112.26 18.5162 112.068C18.7642 111.876 19.0562 111.732 19.3922 111.636C19.7362 111.532 20.1122 111.48 20.5202 111.48C21.1522 111.48 21.6922 111.596 22.1402 111.828C22.5962 112.06 22.9802 112.4 23.2922 112.848L22.5362 113.4C22.3042 113.08 22.0242 112.828 21.6962 112.644C21.3682 112.46 20.9602 112.368 20.4722 112.368C19.9362 112.368 19.5122 112.484 19.2002 112.716C18.8962 112.94 18.7442 113.28 18.7442 113.736C18.7442 114.136 18.8722 114.44 19.1282 114.648C19.3922 114.848 19.7882 115.008 20.3162 115.128L21.0002 115.284C21.8242 115.468 22.4202 115.748 22.7882 116.124C23.1562 116.5 23.3402 117 23.3402 117.624C23.3402 118.008 23.2722 118.356 23.1362 118.668C23.0082 118.98 22.8202 119.244 22.5722 119.46C22.3242 119.676 22.0202 119.844 21.6602 119.964C21.3082 120.084 20.9082 120.144 20.4602 120.144ZM28.8008 118.992H28.7528C28.6888 119.136 28.6088 119.28 28.5128 119.424C28.4248 119.56 28.3128 119.684 28.1768 119.796C28.0408 119.9 27.8768 119.984 27.6848 120.048C27.4928 120.112 27.2688 120.144 27.0128 120.144C26.3728 120.144 25.8648 119.94 25.4888 119.532C25.1128 119.116 24.9248 118.532 24.9248 117.78V113.808H25.8848V117.612C25.8848 118.724 26.3568 119.28 27.3008 119.28C27.4928 119.28 27.6768 119.256 27.8528 119.208C28.0368 119.16 28.1968 119.088 28.3328 118.992C28.4768 118.896 28.5888 118.776 28.6688 118.632C28.7568 118.48 28.8008 118.3 28.8008 118.092V113.808H29.7608V120H28.8008V118.992ZM31.8052 113.808H32.7652V114.816H32.8132C32.9732 114.424 33.2052 114.136 33.5092 113.952C33.8212 113.76 34.1932 113.664 34.6252 113.664C35.0092 113.664 35.3572 113.74 35.6692 113.892C35.9812 114.044 36.2452 114.26 36.4612 114.54C36.6852 114.82 36.8532 115.16 36.9652 115.56C37.0852 115.96 37.1452 116.408 37.1452 116.904C37.1452 117.4 37.0852 117.848 36.9652 118.248C36.8532 118.648 36.6852 118.988 36.4612 119.268C36.2452 119.548 35.9812 119.764 35.6692 119.916C35.3572 120.068 35.0092 120.144 34.6252 120.144C33.7852 120.144 33.1812 119.76 32.8132 118.992H32.7652V122.4H31.8052V113.808ZM34.3612 119.28C34.9052 119.28 35.3332 119.112 35.6452 118.776C35.9572 118.432 36.1132 117.984 36.1132 117.432V116.376C36.1132 115.824 35.9572 115.38 35.6452 115.044C35.3332 114.7 34.9052 114.528 34.3612 114.528C34.1452 114.528 33.9372 114.56 33.7372 114.624C33.5452 114.68 33.3772 114.76 33.2332 114.864C33.0892 114.968 32.9732 115.096 32.8852 115.248C32.8052 115.392 32.7652 115.548 32.7652 115.716V118.02C32.7652 118.22 32.8052 118.4 32.8852 118.56C32.9732 118.712 33.0892 118.844 33.2332 118.956C33.3772 119.06 33.5452 119.14 33.7372 119.196C33.9372 119.252 34.1452 119.28 34.3612 119.28ZM38.7661 113.808H39.7261V114.816H39.7741C39.9341 114.424 40.1661 114.136 40.4701 113.952C40.7821 113.76 41.1541 113.664 41.5861 113.664C41.9701 113.664 42.3181 113.74 42.6301 113.892C42.9421 114.044 43.2061 114.26 43.4221 114.54C43.6461 114.82 43.8141 115.16 43.9261 115.56C44.0461 115.96 44.1061 116.408 44.1061 116.904C44.1061 117.4 44.0461 117.848 43.9261 118.248C43.8141 118.648 43.6461 118.988 43.4221 119.268C43.2061 119.548 42.9421 119.764 42.6301 119.916C42.3181 120.068 41.9701 120.144 41.5861 120.144C40.7461 120.144 40.1421 119.76 39.7741 118.992H39.7261V122.4H38.7661V113.808ZM41.3221 119.28C41.8661 119.28 42.2941 119.112 42.6061 118.776C42.9181 118.432 43.0741 117.984 43.0741 117.432V116.376C43.0741 115.824 42.9181 115.38 42.6061 115.044C42.2941 114.7 41.8661 114.528 41.3221 114.528C41.1061 114.528 40.8981 114.56 40.6981 114.624C40.5061 114.68 40.3381 114.76 40.1941 114.864C40.0501 114.968 39.9341 115.096 39.8461 115.248C39.7661 115.392 39.7261 115.548 39.7261 115.716V118.02C39.7261 118.22 39.7661 118.4 39.8461 118.56C39.9341 118.712 40.0501 118.844 40.1941 118.956C40.3381 119.06 40.5061 119.14 40.6981 119.196C40.8981 119.252 41.1061 119.28 41.3221 119.28ZM46.747 120C46.411 120 46.155 119.908 45.979 119.724C45.811 119.532 45.727 119.292 45.727 119.004V111.12H46.687V119.16H47.599V120H46.747ZM49.4766 112.356C49.2686 112.356 49.1166 112.308 49.0206 112.212C48.9326 112.108 48.8886 111.976 48.8886 111.816V111.66C48.8886 111.5 48.9326 111.372 49.0206 111.276C49.1166 111.172 49.2686 111.12 49.4766 111.12C49.6846 111.12 49.8326 111.172 49.9206 111.276C50.0166 111.372 50.0646 111.5 50.0646 111.66V111.816C50.0646 111.976 50.0166 112.108 49.9206 112.212C49.8326 112.308 49.6846 112.356 49.4766 112.356ZM48.9966 113.808H49.9566V120H48.9966V113.808ZM54.3246 120.144C53.9006 120.144 53.5166 120.068 53.1726 119.916C52.8366 119.764 52.5446 119.548 52.2966 119.268C52.0566 118.98 51.8686 118.64 51.7326 118.248C51.6046 117.848 51.5406 117.4 51.5406 116.904C51.5406 116.416 51.6046 115.972 51.7326 115.572C51.8686 115.172 52.0566 114.832 52.2966 114.552C52.5446 114.264 52.8366 114.044 53.1726 113.892C53.5166 113.74 53.9006 113.664 54.3246 113.664C54.7406 113.664 55.1126 113.74 55.4406 113.892C55.7686 114.044 56.0486 114.256 56.2806 114.528C56.5126 114.792 56.6886 115.108 56.8086 115.476C56.9366 115.844 57.0006 116.248 57.0006 116.688V117.144H52.5486V117.432C52.5486 117.696 52.5886 117.944 52.6686 118.176C52.7566 118.4 52.8766 118.596 53.0286 118.764C53.1886 118.932 53.3806 119.064 53.6046 119.16C53.8366 119.256 54.0966 119.304 54.3846 119.304C54.7766 119.304 55.1166 119.212 55.4046 119.028C55.7006 118.844 55.9286 118.58 56.0886 118.236L56.7726 118.728C56.5726 119.152 56.2606 119.496 55.8366 119.76C55.4126 120.016 54.9086 120.144 54.3246 120.144ZM54.3246 114.468C54.0606 114.468 53.8206 114.516 53.6046 114.612C53.3886 114.7 53.2006 114.828 53.0406 114.996C52.8886 115.164 52.7686 115.364 52.6806 115.596C52.5926 115.82 52.5486 116.068 52.5486 116.34V116.424H55.9686V116.292C55.9686 115.74 55.8166 115.3 55.5126 114.972C55.2166 114.636 54.8206 114.468 54.3246 114.468ZM58.5825 120V113.808H59.5425V114.948H59.6025C59.7145 114.652 59.9145 114.388 60.2025 114.156C60.4905 113.924 60.8865 113.808 61.3905 113.808H61.7625V114.768H61.1985C60.6785 114.768 60.2705 114.868 59.9745 115.068C59.6865 115.26 59.5425 115.504 59.5425 115.8V120H58.5825ZM71.2007 120H65.7047V118.968L68.4407 116.448C68.8327 116.088 69.1607 115.708 69.4247 115.308C69.6887 114.9 69.8207 114.492 69.8207 114.084V113.94C69.8207 113.476 69.6927 113.1 69.4367 112.812C69.1807 112.524 68.7927 112.38 68.2727 112.38C68.0167 112.38 67.7927 112.416 67.6007 112.488C67.4087 112.56 67.2407 112.66 67.0967 112.788C66.9607 112.916 66.8447 113.068 66.7487 113.244C66.6607 113.412 66.5887 113.596 66.5327 113.796L65.6327 113.448C65.7127 113.2 65.8207 112.96 65.9567 112.728C66.1007 112.488 66.2767 112.276 66.4847 112.092C66.7007 111.908 66.9567 111.76 67.2527 111.648C67.5567 111.536 67.9127 111.48 68.3207 111.48C68.7287 111.48 69.0927 111.54 69.4127 111.66C69.7327 111.78 70.0007 111.948 70.2167 112.164C70.4327 112.38 70.5967 112.636 70.7087 112.932C70.8287 113.228 70.8887 113.556 70.8887 113.916C70.8887 114.244 70.8407 114.548 70.7447 114.828C70.6567 115.108 70.5327 115.376 70.3727 115.632C70.2127 115.88 70.0167 116.124 69.7847 116.364C69.5607 116.604 69.3167 116.844 69.0527 117.084L66.7967 119.112H71.2007V120Z" fill="#434D59"/>
<path d="M20.4602 80.144C19.7802 80.144 19.2002 80.016 18.7202 79.76C18.2402 79.496 17.8322 79.136 17.4962 78.68L18.2402 78.056C18.5362 78.448 18.8642 78.748 19.2242 78.956C19.5842 79.156 20.0082 79.256 20.4962 79.256C21.0962 79.256 21.5522 79.112 21.8642 78.824C22.1842 78.536 22.3442 78.152 22.3442 77.672C22.3442 77.272 22.2242 76.964 21.9842 76.748C21.7442 76.532 21.3482 76.36 20.7962 76.232L20.1122 76.076C19.3442 75.9 18.7562 75.636 18.3482 75.284C17.9482 74.924 17.7482 74.42 17.7482 73.772C17.7482 73.404 17.8162 73.076 17.9522 72.788C18.0882 72.5 18.2762 72.26 18.5162 72.068C18.7642 71.876 19.0562 71.732 19.3922 71.636C19.7362 71.532 20.1122 71.48 20.5202 71.48C21.1522 71.48 21.6922 71.596 22.1402 71.828C22.5962 72.06 22.9802 72.4 23.2922 72.848L22.5362 73.4C22.3042 73.08 22.0242 72.828 21.6962 72.644C21.3682 72.46 20.9602 72.368 20.4722 72.368C19.9362 72.368 19.5122 72.484 19.2002 72.716C18.8962 72.94 18.7442 73.28 18.7442 73.736C18.7442 74.136 18.8722 74.44 19.1282 74.648C19.3922 74.848 19.7882 75.008 20.3162 75.128L21.0002 75.284C21.8242 75.468 22.4202 75.748 22.7882 76.124C23.1562 76.5 23.3402 77 23.3402 77.624C23.3402 78.008 23.2722 78.356 23.1362 78.668C23.0082 78.98 22.8202 79.244 22.5722 79.46C22.3242 79.676 22.0202 79.844 21.6602 79.964C21.3082 80.084 20.9082 80.144 20.4602 80.144ZM28.8008 78.992H28.7528C28.6888 79.136 28.6088 79.28 28.5128 79.424C28.4248 79.56 28.3128 79.684 28.1768 79.796C28.0408 79.9 27.8768 79.984 27.6848 80.048C27.4928 80.112 27.2688 80.144 27.0128 80.144C26.3728 80.144 25.8648 79.94 25.4888 79.532C25.1128 79.116 24.9248 78.532 24.9248 77.78V73.808H25.8848V77.612C25.8848 78.724 26.3568 79.28 27.3008 79.28C27.4928 79.28 27.6768 79.256 27.8528 79.208C28.0368 79.16 28.1968 79.088 28.3328 78.992C28.4768 78.896 28.5888 78.776 28.6688 78.632C28.7568 78.48 28.8008 78.3 28.8008 78.092V73.808H29.7608V80H28.8008V78.992ZM31.8052 73.808H32.7652V74.816H32.8132C32.9732 74.424 33.2052 74.136 33.5092 73.952C33.8212 73.76 34.1932 73.664 34.6252 73.664C35.0092 73.664 35.3572 73.74 35.6692 73.892C35.9812 74.044 36.2452 74.26 36.4612 74.54C36.6852 74.82 36.8532 75.16 36.9652 75.56C37.0852 75.96 37.1452 76.408 37.1452 76.904C37.1452 77.4 37.0852 77.848 36.9652 78.248C36.8532 78.648 36.6852 78.988 36.4612 79.268C36.2452 79.548 35.9812 79.764 35.6692 79.916C35.3572 80.068 35.0092 80.144 34.6252 80.144C33.7852 80.144 33.1812 79.76 32.8132 78.992H32.7652V82.4H31.8052V73.808ZM34.3612 79.28C34.9052 79.28 35.3332 79.112 35.6452 78.776C35.9572 78.432 36.1132 77.984 36.1132 77.432V76.376C36.1132 75.824 35.9572 75.38 35.6452 75.044C35.3332 74.7 34.9052 74.528 34.3612 74.528C34.1452 74.528 33.9372 74.56 33.7372 74.624C33.5452 74.68 33.3772 74.76 33.2332 74.864C33.0892 74.968 32.9732 75.096 32.8852 75.248C32.8052 75.392 32.7652 75.548 32.7652 75.716V78.02C32.7652 78.22 32.8052 78.4 32.8852 78.56C32.9732 78.712 33.0892 78.844 33.2332 78.956C33.3772 79.06 33.5452 79.14 33.7372 79.196C33.9372 79.252 34.1452 79.28 34.3612 79.28ZM38.7661 73.808H39.7261V74.816H39.7741C39.9341 74.424 40.1661 74.136 40.4701 73.952C40.7821 73.76 41.1541 73.664 41.5861 73.664C41.9701 73.664 42.3181 73.74 42.6301 73.892C42.9421 74.044 43.2061 74.26 43.4221 74.54C43.6461 74.82 43.8141 75.16 43.9261 75.56C44.0461 75.96 44.1061 76.408 44.1061 76.904C44.1061 77.4 44.0461 77.848 43.9261 78.248C43.8141 78.648 43.6461 78.988 43.4221 79.268C43.2061 79.548 42.9421 79.764 42.6301 79.916C42.3181 80.068 41.9701 80.144 41.5861 80.144C40.7461 80.144 40.1421 79.76 39.7741 78.992H39.7261V82.4H38.7661V73.808ZM41.3221 79.28C41.8661 79.28 42.2941 79.112 42.6061 78.776C42.9181 78.432 43.0741 77.984 43.0741 77.432V76.376C43.0741 75.824 42.9181 75.38 42.6061 75.044C42.2941 74.7 41.8661 74.528 41.3221 74.528C41.1061 74.528 40.8981 74.56 40.6981 74.624C40.5061 74.68 40.3381 74.76 40.1941 74.864C40.0501 74.968 39.9341 75.096 39.8461 75.248C39.7661 75.392 39.7261 75.548 39.7261 75.716V78.02C39.7261 78.22 39.7661 78.4 39.8461 78.56C39.9341 78.712 40.0501 78.844 40.1941 78.956C40.3381 79.06 40.5061 79.14 40.6981 79.196C40.8981 79.252 41.1061 79.28 41.3221 79.28ZM46.747 80C46.411 80 46.155 79.908 45.979 79.724C45.811 79.532 45.727 79.292 45.727 79.004V71.12H46.687V79.16H47.599V80H46.747ZM49.4766 72.356C49.2686 72.356 49.1166 72.308 49.0206 72.212C48.9326 72.108 48.8886 71.976 48.8886 71.816V71.66C48.8886 71.5 48.9326 71.372 49.0206 71.276C49.1166 71.172 49.2686 71.12 49.4766 71.12C49.6846 71.12 49.8326 71.172 49.9206 71.276C50.0166 71.372 50.0646 71.5 50.0646 71.66V71.816C50.0646 71.976 50.0166 72.108 49.9206 72.212C49.8326 72.308 49.6846 72.356 49.4766 72.356ZM48.9966 73.808H49.9566V80H48.9966V73.808ZM54.3246 80.144C53.9006 80.144 53.5166 80.068 53.1726 79.916C52.8366 79.764 52.5446 79.548 52.2966 79.268C52.0566 78.98 51.8686 78.64 51.7326 78.248C51.6046 77.848 51.5406 77.4 51.5406 76.904C51.5406 76.416 51.6046 75.972 51.7326 75.572C51.8686 75.172 52.0566 74.832 52.2966 74.552C52.5446 74.264 52.8366 74.044 53.1726 73.892C53.5166 73.74 53.9006 73.664 54.3246 73.664C54.7406 73.664 55.1126 73.74 55.4406 73.892C55.7686 74.044 56.0486 74.256 56.2806 74.528C56.5126 74.792 56.6886 75.108 56.8086 75.476C56.9366 75.844 57.0006 76.248 57.0006 76.688V77.144H52.5486V77.432C52.5486 77.696 52.5886 77.944 52.6686 78.176C52.7566 78.4 52.8766 78.596 53.0286 78.764C53.1886 78.932 53.3806 79.064 53.6046 79.16C53.8366 79.256 54.0966 79.304 54.3846 79.304C54.7766 79.304 55.1166 79.212 55.4046 79.028C55.7006 78.844 55.9286 78.58 56.0886 78.236L56.7726 78.728C56.5726 79.152 56.2606 79.496 55.8366 79.76C55.4126 80.016 54.9086 80.144 54.3246 80.144ZM54.3246 74.468C54.0606 74.468 53.8206 74.516 53.6046 74.612C53.3886 74.7 53.2006 74.828 53.0406 74.996C52.8886 75.164 52.7686 75.364 52.6806 75.596C52.5926 75.82 52.5486 76.068 52.5486 76.34V76.424H55.9686V76.292C55.9686 75.74 55.8166 75.3 55.5126 74.972C55.2166 74.636 54.8206 74.468 54.3246 74.468ZM58.5825 80V73.808H59.5425V74.948H59.6025C59.7145 74.652 59.9145 74.388 60.2025 74.156C60.4905 73.924 60.8865 73.808 61.3905 73.808H61.7625V74.768H61.1985C60.6785 74.768 60.2705 74.868 59.9745 75.068C59.6865 75.26 59.5425 75.504 59.5425 75.8V80H58.5825ZM65.8607 80V79.112H68.2007V72.368H68.1167L66.0047 74.336L65.4167 73.7L67.6367 71.624H69.2087V79.112H71.3687V80H65.8607Z" fill="#434D59"/>
<rect x="140.5" y="59" width="32" height="60" transform="rotate(90 140.5 59)" fill="#19C4E6"/>
<rect x="177" y="59" width="32" height="34" transform="rotate(90 177 59)" fill="#8033CC"/>
<rect x="222" y="59" width="32" height="42" transform="rotate(90 222 59)" fill="#E372D0"/>
<rect x="331" y="59" width="32" height="106" transform="rotate(90 331 59)" fill="#55DDB0"/>
<rect x="346" y="59" width="32" height="12" transform="rotate(90 346 59)" fill="#EE5513"/>
<rect x="381" y="59" width="32" height="32" transform="rotate(90 381 59)" fill="#D3D322"/>
<rect x="123.5" y="99" width="32" height="43" transform="rotate(90 123.5 99)" fill="#19C4E6"/>
<rect x="160" y="99" width="32" height="34" transform="rotate(90 160 99)" fill="#8033CC"/>
<rect x="245" y="99" width="32" height="82" transform="rotate(90 245 99)" fill="#E372D0"/>
<rect x="328" y="99" width="32" height="80" transform="rotate(90 328 99)" fill="#55DDB0"/>
<rect x="343" y="99" width="32" height="12" transform="rotate(90 343 99)" fill="#EE5513"/>
<rect x="354" y="99" width="32" height="8" transform="rotate(90 354 99)" fill="#D3D322"/>
<rect x="99.5" y="139" width="32" height="19" transform="rotate(90 99.5 139)" fill="#19C4E6"/>
<rect x="123" y="139" width="32" height="21" transform="rotate(90 123 139)" fill="#8033CC"/>
<rect x="157" y="139" width="32" height="31" transform="rotate(90 157 139)" fill="#E372D0"/>
<rect x="213" y="139" width="32" height="53" transform="rotate(90 213 139)" fill="#55DDB0"/>
<rect x="218" y="139" width="32" height="2" transform="rotate(90 218 139)" fill="#EE5513"/>
<rect x="289" y="139" width="32" height="68" transform="rotate(90 289 139)" fill="#D3D322"/>
<rect x="115.5" y="179" width="32" height="35" transform="rotate(90 115.5 179)" fill="#19C4E6"/>
<rect x="146" y="179" width="32" height="27" transform="rotate(90 146 179)" fill="#8033CC"/>
<rect x="180" y="179" width="32" height="31" transform="rotate(90 180 179)" fill="#E372D0"/>
<rect x="236" y="179" width="32" height="53" transform="rotate(90 236 179)" fill="#55DDB0"/>
<rect x="262" y="179" width="32" height="23" transform="rotate(90 262 179)" fill="#EE5513"/>
<rect x="279" y="179" width="32" height="14" transform="rotate(90 279 179)" fill="#D3D322"/>
<path d="M217.609 275L216.629 272.116H212.681L211.701 275H210.511L213.927 265.228H215.425L218.841 275H217.609ZM214.683 266.32H214.613L212.961 271.08H216.335L214.683 266.32ZM220.348 275V267.776H221.468V268.952H221.524C221.608 268.765 221.702 268.593 221.804 268.434C221.916 268.266 222.047 268.121 222.196 268C222.355 267.879 222.537 267.785 222.742 267.72C222.948 267.645 223.19 267.608 223.47 267.608C223.946 267.608 224.385 267.725 224.786 267.958C225.188 268.182 225.486 268.555 225.682 269.078H225.71C225.841 268.686 226.084 268.345 226.438 268.056C226.802 267.757 227.292 267.608 227.908 267.608C228.646 267.608 229.22 267.851 229.63 268.336C230.05 268.812 230.26 269.489 230.26 270.366V275H229.14V270.562C229.14 269.918 229.014 269.433 228.762 269.106C228.51 268.779 228.109 268.616 227.558 268.616C227.334 268.616 227.12 268.644 226.914 268.7C226.718 268.756 226.541 268.84 226.382 268.952C226.224 269.064 226.098 269.209 226.004 269.386C225.911 269.554 225.864 269.755 225.864 269.988V275H224.744V270.562C224.744 269.918 224.618 269.433 224.366 269.106C224.114 268.779 223.722 268.616 223.19 268.616C222.966 268.616 222.752 268.644 222.546 268.7C222.341 268.756 222.159 268.84 222 268.952C221.842 269.064 221.711 269.209 221.608 269.386C221.515 269.554 221.468 269.755 221.468 269.988V275H220.348ZM232.571 275V267.776H233.691V268.952H233.747C233.831 268.765 233.924 268.593 234.027 268.434C234.139 268.266 234.27 268.121 234.419 268C234.578 267.879 234.76 267.785 234.965 267.72C235.17 267.645 235.413 267.608 235.693 267.608C236.169 267.608 236.608 267.725 237.009 267.958C237.41 268.182 237.709 268.555 237.905 269.078H237.933C238.064 268.686 238.306 268.345 238.661 268.056C239.025 267.757 239.515 267.608 240.131 267.608C240.868 267.608 241.442 267.851 241.853 268.336C242.273 268.812 242.483 269.489 242.483 270.366V275H241.363V270.562C241.363 269.918 241.237 269.433 240.985 269.106C240.733 268.779 240.332 268.616 239.781 268.616C239.557 268.616 239.342 268.644 239.137 268.7C238.941 268.756 238.764 268.84 238.605 268.952C238.446 269.064 238.32 269.209 238.227 269.386C238.134 269.554 238.087 269.755 238.087 269.988V275H236.967V270.562C236.967 269.918 236.841 269.433 236.589 269.106C236.337 268.779 235.945 268.616 235.413 268.616C235.189 268.616 234.974 268.644 234.769 268.7C234.564 268.756 234.382 268.84 234.223 268.952C234.064 269.064 233.934 269.209 233.831 269.386C233.738 269.554 233.691 269.755 233.691 269.988V275H232.571ZM247.524 275.168C247.038 275.168 246.595 275.079 246.194 274.902C245.792 274.725 245.447 274.473 245.158 274.146C244.878 273.81 244.658 273.413 244.5 272.956C244.341 272.489 244.262 271.967 244.262 271.388C244.262 270.819 244.341 270.301 244.5 269.834C244.658 269.367 244.878 268.971 245.158 268.644C245.447 268.308 245.792 268.051 246.194 267.874C246.595 267.697 247.038 267.608 247.524 267.608C248.009 267.608 248.448 267.697 248.84 267.874C249.241 268.051 249.586 268.308 249.876 268.644C250.165 268.971 250.389 269.367 250.548 269.834C250.706 270.301 250.786 270.819 250.786 271.388C250.786 271.967 250.706 272.489 250.548 272.956C250.389 273.413 250.165 273.81 249.876 274.146C249.586 274.473 249.241 274.725 248.84 274.902C248.448 275.079 248.009 275.168 247.524 275.168ZM247.524 274.174C248.13 274.174 248.625 273.987 249.008 273.614C249.39 273.241 249.582 272.671 249.582 271.906V270.87C249.582 270.105 249.39 269.535 249.008 269.162C248.625 268.789 248.13 268.602 247.524 268.602C246.917 268.602 246.422 268.789 246.04 269.162C245.657 269.535 245.466 270.105 245.466 270.87V271.906C245.466 272.671 245.657 273.241 246.04 273.614C246.422 273.987 246.917 274.174 247.524 274.174ZM257.08 273.824H257.024C256.949 273.992 256.856 274.16 256.744 274.328C256.641 274.487 256.51 274.631 256.352 274.762C256.193 274.883 256.002 274.981 255.778 275.056C255.554 275.131 255.292 275.168 254.994 275.168C254.247 275.168 253.654 274.93 253.216 274.454C252.777 273.969 252.558 273.287 252.558 272.41V267.776H253.678V272.214C253.678 273.511 254.228 274.16 255.33 274.16C255.554 274.16 255.768 274.132 255.974 274.076C256.188 274.02 256.375 273.936 256.534 273.824C256.702 273.712 256.832 273.572 256.926 273.404C257.028 273.227 257.08 273.017 257.08 272.774V267.776H258.2V275H257.08V273.824ZM260.585 275V267.776H261.705V268.952H261.761C261.938 268.541 262.185 268.215 262.503 267.972C262.829 267.729 263.263 267.608 263.805 267.608C264.551 267.608 265.139 267.851 265.569 268.336C266.007 268.812 266.227 269.489 266.227 270.366V275H265.107V270.562C265.107 269.265 264.561 268.616 263.469 268.616C263.245 268.616 263.025 268.644 262.811 268.7C262.605 268.756 262.419 268.84 262.251 268.952C262.083 269.064 261.947 269.209 261.845 269.386C261.751 269.554 261.705 269.755 261.705 269.988V275H260.585ZM270.138 275C269.746 275 269.447 274.893 269.242 274.678C269.046 274.454 268.948 274.165 268.948 273.81V268.756H267.758V267.776H268.43C268.672 267.776 268.836 267.729 268.92 267.636C269.013 267.533 269.06 267.361 269.06 267.118V265.774H270.068V267.776H271.65V268.756H270.068V274.02H271.538V275H270.138ZM276.73 270.632C276.73 269.96 276.796 269.311 276.926 268.686C277.057 268.061 277.234 267.482 277.458 266.95C277.692 266.409 277.962 265.919 278.27 265.48C278.578 265.041 278.91 264.668 279.264 264.36H280.328C279.936 264.715 279.582 265.116 279.264 265.564C278.956 266.012 278.69 266.488 278.466 266.992C278.252 267.496 278.084 268.009 277.962 268.532C277.841 269.055 277.78 269.559 277.78 270.044V271.248C277.78 271.743 277.841 272.251 277.962 272.774C278.084 273.297 278.256 273.81 278.48 274.314C278.704 274.818 278.97 275.294 279.278 275.742C279.596 276.19 279.946 276.582 280.328 276.918H279.264C278.919 276.629 278.592 276.265 278.284 275.826C277.976 275.387 277.706 274.897 277.472 274.356C277.248 273.815 277.066 273.231 276.926 272.606C276.796 271.971 276.73 271.313 276.73 270.632ZM284.136 275.168C283.632 275.168 283.179 275.079 282.778 274.902C282.376 274.725 282.036 274.473 281.756 274.146C281.485 273.819 281.275 273.423 281.126 272.956C280.986 272.489 280.916 271.967 280.916 271.388C280.916 270.809 280.986 270.287 281.126 269.82C281.275 269.353 281.485 268.957 281.756 268.63C282.036 268.303 282.376 268.051 282.778 267.874C283.179 267.697 283.632 267.608 284.136 267.608C284.854 267.608 285.428 267.767 285.858 268.084C286.296 268.392 286.623 268.798 286.838 269.302L285.9 269.778C285.769 269.405 285.554 269.115 285.256 268.91C284.957 268.705 284.584 268.602 284.136 268.602C283.8 268.602 283.506 268.658 283.254 268.77C283.002 268.873 282.792 269.022 282.624 269.218C282.456 269.405 282.33 269.633 282.246 269.904C282.162 270.165 282.12 270.455 282.12 270.772V272.004C282.12 272.639 282.288 273.161 282.624 273.572C282.969 273.973 283.473 274.174 284.136 274.174C285.041 274.174 285.694 273.754 286.096 272.914L286.908 273.46C286.674 273.983 286.324 274.398 285.858 274.706C285.4 275.014 284.826 275.168 284.136 275.168ZM290.659 275.168C289.987 275.168 289.422 275.042 288.965 274.79C288.517 274.529 288.129 274.183 287.803 273.754L288.601 273.11C288.881 273.465 289.193 273.74 289.539 273.936C289.884 274.123 290.285 274.216 290.743 274.216C291.219 274.216 291.587 274.113 291.849 273.908C292.119 273.703 292.255 273.413 292.255 273.04C292.255 272.76 292.161 272.522 291.975 272.326C291.797 272.121 291.471 271.981 290.995 271.906L290.421 271.822C290.085 271.775 289.777 271.705 289.497 271.612C289.217 271.509 288.969 271.379 288.755 271.22C288.549 271.052 288.386 270.847 288.265 270.604C288.153 270.361 288.097 270.072 288.097 269.736C288.097 269.381 288.162 269.073 288.293 268.812C288.423 268.541 288.601 268.317 288.825 268.14C289.058 267.963 289.333 267.832 289.651 267.748C289.968 267.655 290.309 267.608 290.673 267.608C291.261 267.608 291.751 267.711 292.143 267.916C292.544 268.121 292.894 268.406 293.193 268.77L292.451 269.442C292.292 269.218 292.059 269.017 291.751 268.84C291.443 268.653 291.055 268.56 290.589 268.56C290.122 268.56 289.767 268.663 289.525 268.868C289.291 269.064 289.175 269.335 289.175 269.68C289.175 270.035 289.291 270.291 289.525 270.45C289.767 270.609 290.113 270.725 290.561 270.8L291.121 270.884C291.923 271.005 292.493 271.239 292.829 271.584C293.165 271.92 293.333 272.363 293.333 272.914C293.333 273.614 293.095 274.165 292.619 274.566C292.143 274.967 291.489 275.168 290.659 275.168ZM297.649 270.632C297.649 271.313 297.579 271.971 297.439 272.606C297.308 273.231 297.126 273.815 296.893 274.356C296.669 274.897 296.403 275.387 296.095 275.826C295.787 276.265 295.46 276.629 295.115 276.918H294.051C294.434 276.582 294.779 276.19 295.087 275.742C295.404 275.294 295.675 274.818 295.899 274.314C296.123 273.81 296.296 273.297 296.417 272.774C296.538 272.251 296.599 271.743 296.599 271.248V270.044C296.599 269.559 296.538 269.055 296.417 268.532C296.296 268.009 296.123 267.496 295.899 266.992C295.684 266.488 295.418 266.012 295.101 265.564C294.793 265.116 294.443 264.715 294.051 264.36H295.115C295.47 264.668 295.801 265.041 296.109 265.48C296.417 265.919 296.683 266.409 296.907 266.95C297.14 267.482 297.322 268.061 297.453 268.686C297.584 269.311 297.649 269.96 297.649 270.632Z" fill="black"/>
<path d="M158.281 243.512H154.609L154.369 246.704H154.453C154.653 246.424 154.877 246.2 155.125 246.032C155.381 245.864 155.729 245.78 156.169 245.78C156.529 245.78 156.861 245.84 157.165 245.96C157.469 246.08 157.733 246.252 157.957 246.476C158.181 246.692 158.353 246.96 158.473 247.28C158.601 247.6 158.665 247.964 158.665 248.372C158.665 248.78 158.601 249.156 158.473 249.5C158.345 249.836 158.157 250.128 157.909 250.376C157.669 250.616 157.373 250.804 157.021 250.94C156.677 251.076 156.285 251.144 155.845 251.144C155.493 251.144 155.181 251.104 154.909 251.024C154.645 250.944 154.409 250.836 154.201 250.7C153.993 250.564 153.809 250.412 153.649 250.244C153.497 250.076 153.357 249.9 153.229 249.716L153.985 249.14C154.089 249.308 154.197 249.46 154.309 249.596C154.429 249.732 154.557 249.848 154.693 249.944C154.837 250.04 155.001 250.116 155.185 250.172C155.369 250.22 155.589 250.244 155.845 250.244C156.421 250.244 156.857 250.092 157.153 249.788C157.449 249.484 157.597 249.056 157.597 248.504V248.384C157.597 247.832 157.449 247.404 157.153 247.1C156.857 246.796 156.421 246.644 155.845 246.644C155.461 246.644 155.157 246.716 154.933 246.86C154.717 246.996 154.521 247.16 154.345 247.352L153.493 247.232L153.793 242.624H158.281V243.512ZM163.1 251.144C162.1 251.144 161.368 250.764 160.904 250.004C160.448 249.244 160.22 248.18 160.22 246.812C160.22 245.444 160.448 244.38 160.904 243.62C161.368 242.86 162.1 242.48 163.1 242.48C164.1 242.48 164.828 242.86 165.284 243.62C165.748 244.38 165.98 245.444 165.98 246.812C165.98 248.18 165.748 249.244 165.284 250.004C164.828 250.764 164.1 251.144 163.1 251.144ZM163.1 250.268C163.428 250.268 163.708 250.2 163.94 250.064C164.172 249.928 164.36 249.736 164.504 249.488C164.648 249.24 164.752 248.948 164.816 248.612C164.888 248.276 164.924 247.904 164.924 247.496V246.128C164.924 245.72 164.888 245.348 164.816 245.012C164.752 244.676 164.648 244.384 164.504 244.136C164.36 243.888 164.172 243.696 163.94 243.56C163.708 243.424 163.428 243.356 163.1 243.356C162.772 243.356 162.492 243.424 162.26 243.56C162.028 243.696 161.84 243.888 161.696 244.136C161.552 244.384 161.444 244.676 161.372 245.012C161.308 245.348 161.276 245.72 161.276 246.128V247.496C161.276 247.904 161.308 248.276 161.372 248.612C161.444 248.948 161.552 249.24 161.696 249.488C161.84 249.736 162.028 249.928 162.26 250.064C162.492 250.2 162.772 250.268 163.1 250.268Z" fill="#434D59"/>
<path d="M80.0023 251.144C79.0023 251.144 78.2703 250.764 77.8063 250.004C77.3503 249.244 77.1223 248.18 77.1223 246.812C77.1223 245.444 77.3503 244.38 77.8063 243.62C78.2703 242.86 79.0023 242.48 80.0023 242.48C81.0023 242.48 81.7303 242.86 82.1863 243.62C82.6503 244.38 82.8823 245.444 82.8823 246.812C82.8823 248.18 82.6503 249.244 82.1863 250.004C81.7303 250.764 81.0023 251.144 80.0023 251.144ZM80.0023 250.268C80.3303 250.268 80.6103 250.2 80.8423 250.064C81.0743 249.928 81.2623 249.736 81.4063 249.488C81.5503 249.24 81.6543 248.948 81.7183 248.612C81.7903 248.276 81.8263 247.904 81.8263 247.496V246.128C81.8263 245.72 81.7903 245.348 81.7183 245.012C81.6543 244.676 81.5503 244.384 81.4063 244.136C81.2623 243.888 81.0743 243.696 80.8423 243.56C80.6103 243.424 80.3303 243.356 80.0023 243.356C79.6743 243.356 79.3943 243.424 79.1623 243.56C78.9303 243.696 78.7423 243.888 78.5983 244.136C78.4543 244.384 78.3463 244.676 78.2743 245.012C78.2103 245.348 78.1783 245.72 78.1783 246.128V247.496C78.1783 247.904 78.2103 248.276 78.2743 248.612C78.3463 248.948 78.4543 249.24 78.5983 249.488C78.7423 249.736 78.9303 249.928 79.1623 250.064C79.3943 250.2 79.6743 250.268 80.0023 250.268Z" fill="#434D59"/>
<path d="M230.263 251V250.112H232.603V243.368H232.519L230.407 245.336L229.819 244.7L232.039 242.624H233.611V250.112H235.771V251H230.263ZM240.002 251.144C239.002 251.144 238.27 250.764 237.806 250.004C237.35 249.244 237.122 248.18 237.122 246.812C237.122 245.444 237.35 244.38 237.806 243.62C238.27 242.86 239.002 242.48 240.002 242.48C241.002 242.48 241.73 242.86 242.186 243.62C242.65 244.38 242.882 245.444 242.882 246.812C242.882 248.18 242.65 249.244 242.186 250.004C241.73 250.764 241.002 251.144 240.002 251.144ZM240.002 250.268C240.33 250.268 240.61 250.2 240.842 250.064C241.074 249.928 241.262 249.736 241.406 249.488C241.55 249.24 241.654 248.948 241.718 248.612C241.79 248.276 241.826 247.904 241.826 247.496V246.128C241.826 245.72 241.79 245.348 241.718 245.012C241.654 244.676 241.55 244.384 241.406 244.136C241.262 243.888 241.074 243.696 240.842 243.56C240.61 243.424 240.33 243.356 240.002 243.356C239.674 243.356 239.394 243.424 239.162 243.56C238.93 243.696 238.742 243.888 238.598 244.136C238.454 244.384 238.346 244.676 238.274 245.012C238.21 245.348 238.178 245.72 238.178 246.128V247.496C238.178 247.904 238.21 248.276 238.274 248.612C238.346 248.948 238.454 249.24 238.598 249.488C238.742 249.736 238.93 249.928 239.162 250.064C239.394 250.2 239.674 250.268 240.002 250.268ZM247.198 251.144C246.198 251.144 245.466 250.764 245.002 250.004C244.546 249.244 244.318 248.18 244.318 246.812C244.318 245.444 244.546 244.38 245.002 243.62C245.466 242.86 246.198 242.48 247.198 242.48C248.198 242.48 248.926 242.86 249.382 243.62C249.846 244.38 250.078 245.444 250.078 246.812C250.078 248.18 249.846 249.244 249.382 250.004C248.926 250.764 248.198 251.144 247.198 251.144ZM247.198 250.268C247.526 250.268 247.806 250.2 248.038 250.064C248.27 249.928 248.458 249.736 248.602 249.488C248.746 249.24 248.85 248.948 248.914 248.612C248.986 248.276 249.022 247.904 249.022 247.496V246.128C249.022 245.72 248.986 245.348 248.914 245.012C248.85 244.676 248.746 244.384 248.602 244.136C248.458 243.888 248.27 243.696 248.038 243.56C247.806 243.424 247.526 243.356 247.198 243.356C246.87 243.356 246.59 243.424 246.358 243.56C246.126 243.696 245.938 243.888 245.794 244.136C245.65 244.384 245.542 244.676 245.47 245.012C245.406 245.348 245.374 245.72 245.374 246.128V247.496C245.374 247.904 245.406 248.276 245.47 248.612C245.542 248.948 245.65 249.24 245.794 249.488C245.938 249.736 246.126 249.928 246.358 250.064C246.59 250.2 246.87 250.268 247.198 250.268Z" fill="#434D59"/>
<path d="M310.263 251V250.112H312.603V243.368H312.519L310.407 245.336L309.819 244.7L312.039 242.624H313.611V250.112H315.771V251H310.263ZM322.378 243.512H318.706L318.466 246.704H318.55C318.75 246.424 318.974 246.2 319.222 246.032C319.478 245.864 319.826 245.78 320.266 245.78C320.626 245.78 320.958 245.84 321.262 245.96C321.566 246.08 321.83 246.252 322.054 246.476C322.278 246.692 322.45 246.96 322.57 247.28C322.698 247.6 322.762 247.964 322.762 248.372C322.762 248.78 322.698 249.156 322.57 249.5C322.442 249.836 322.254 250.128 322.006 250.376C321.766 250.616 321.47 250.804 321.118 250.94C320.774 251.076 320.382 251.144 319.942 251.144C319.59 251.144 319.278 251.104 319.006 251.024C318.742 250.944 318.506 250.836 318.298 250.7C318.09 250.564 317.906 250.412 317.746 250.244C317.594 250.076 317.454 249.9 317.326 249.716L318.082 249.14C318.186 249.308 318.294 249.46 318.406 249.596C318.526 249.732 318.654 249.848 318.79 249.944C318.934 250.04 319.098 250.116 319.282 250.172C319.466 250.22 319.686 250.244 319.942 250.244C320.518 250.244 320.954 250.092 321.25 249.788C321.546 249.484 321.694 249.056 321.694 248.504V248.384C321.694 247.832 321.546 247.404 321.25 247.1C320.954 246.796 320.518 246.644 319.942 246.644C319.558 246.644 319.254 246.716 319.03 246.86C318.814 246.996 318.618 247.16 318.442 247.352L317.59 247.232L317.89 242.624H322.378V243.512ZM327.198 251.144C326.198 251.144 325.466 250.764 325.002 250.004C324.546 249.244 324.318 248.18 324.318 246.812C324.318 245.444 324.546 244.38 325.002 243.62C325.466 242.86 326.198 242.48 327.198 242.48C328.198 242.48 328.926 242.86 329.382 243.62C329.846 244.38 330.078 245.444 330.078 246.812C330.078 248.18 329.846 249.244 329.382 250.004C328.926 250.764 328.198 251.144 327.198 251.144ZM327.198 250.268C327.526 250.268 327.806 250.2 328.038 250.064C328.27 249.928 328.458 249.736 328.602 249.488C328.746 249.24 328.85 248.948 328.914 248.612C328.986 248.276 329.022 247.904 329.022 247.496V246.128C329.022 245.72 328.986 245.348 328.914 245.012C328.85 244.676 328.746 244.384 328.602 244.136C328.458 243.888 328.27 243.696 328.038 243.56C327.806 243.424 327.526 243.356 327.198 243.356C326.87 243.356 326.59 243.424 326.358 243.56C326.126 243.696 325.938 243.888 325.794 244.136C325.65 244.384 325.542 244.676 325.47 245.012C325.406 245.348 325.374 245.72 325.374 246.128V247.496C325.374 247.904 325.406 248.276 325.47 248.612C325.542 248.948 325.65 249.24 325.794 249.488C325.938 249.736 326.126 249.928 326.358 250.064C326.59 250.2 326.87 250.268 327.198 250.268Z" fill="#434D59"/>
<path d="M395.603 251H390.107V249.968L392.843 247.448C393.235 247.088 393.563 246.708 393.827 246.308C394.091 245.9 394.223 245.492 394.223 245.084V244.94C394.223 244.476 394.095 244.1 393.839 243.812C393.583 243.524 393.195 243.38 392.675 243.38C392.419 243.38 392.195 243.416 392.003 243.488C391.811 243.56 391.643 243.66 391.499 243.788C391.363 243.916 391.247 244.068 391.151 244.244C391.063 244.412 390.991 244.596 390.935 244.796L390.035 244.448C390.115 244.2 390.223 243.96 390.359 243.728C390.503 243.488 390.679 243.276 390.887 243.092C391.103 242.908 391.359 242.76 391.655 242.648C391.959 242.536 392.315 242.48 392.723 242.48C393.131 242.48 393.495 242.54 393.815 242.66C394.135 242.78 394.403 242.948 394.619 243.164C394.835 243.38 394.999 243.636 395.111 243.932C395.231 244.228 395.291 244.556 395.291 244.916C395.291 245.244 395.243 245.548 395.147 245.828C395.059 246.108 394.935 246.376 394.775 246.632C394.615 246.88 394.419 247.124 394.187 247.364C393.963 247.604 393.719 247.844 393.455 248.084L391.199 250.112H395.603V251ZM400.002 251.144C399.002 251.144 398.27 250.764 397.806 250.004C397.35 249.244 397.122 248.18 397.122 246.812C397.122 245.444 397.35 244.38 397.806 243.62C398.27 242.86 399.002 242.48 400.002 242.48C401.002 242.48 401.73 242.86 402.186 243.62C402.65 244.38 402.882 245.444 402.882 246.812C402.882 248.18 402.65 249.244 402.186 250.004C401.73 250.764 401.002 251.144 400.002 251.144ZM400.002 250.268C400.33 250.268 400.61 250.2 400.842 250.064C401.074 249.928 401.262 249.736 401.406 249.488C401.55 249.24 401.654 248.948 401.718 248.612C401.79 248.276 401.826 247.904 401.826 247.496V246.128C401.826 245.72 401.79 245.348 401.718 245.012C401.654 244.676 401.55 244.384 401.406 244.136C401.262 243.888 401.074 243.696 400.842 243.56C400.61 243.424 400.33 243.356 400.002 243.356C399.674 243.356 399.394 243.424 399.162 243.56C398.93 243.696 398.742 243.888 398.598 244.136C398.454 244.384 398.346 244.676 398.274 245.012C398.21 245.348 398.178 245.72 398.178 246.128V247.496C398.178 247.904 398.21 248.276 398.274 248.612C398.346 248.948 398.454 249.24 398.598 249.488C398.742 249.736 398.93 249.928 399.162 250.064C399.394 250.2 399.674 250.268 400.002 250.268ZM407.198 251.144C406.198 251.144 405.466 250.764 405.002 250.004C404.546 249.244 404.318 248.18 404.318 246.812C404.318 245.444 404.546 244.38 405.002 243.62C405.466 242.86 406.198 242.48 407.198 242.48C408.198 242.48 408.926 242.86 409.382 243.62C409.846 244.38 410.078 245.444 410.078 246.812C410.078 248.18 409.846 249.244 409.382 250.004C408.926 250.764 408.198 251.144 407.198 251.144ZM407.198 250.268C407.526 250.268 407.806 250.2 408.038 250.064C408.27 249.928 408.458 249.736 408.602 249.488C408.746 249.24 408.85 248.948 408.914 248.612C408.986 248.276 409.022 247.904 409.022 247.496V246.128C409.022 245.72 408.986 245.348 408.914 245.012C408.85 244.676 408.746 244.384 408.602 244.136C408.458 243.888 408.27 243.696 408.038 243.56C407.806 243.424 407.526 243.356 407.198 243.356C406.87 243.356 406.59 243.424 406.358 243.56C406.126 243.696 405.938 243.888 405.794 244.136C405.65 244.384 405.542 244.676 405.47 245.012C405.406 245.348 405.374 245.72 405.374 246.128V247.496C405.374 247.904 405.406 248.276 405.47 248.612C405.542 248.948 405.65 249.24 405.794 249.488C405.938 249.736 406.126 249.928 406.358 250.064C406.59 250.2 406.87 250.268 407.198 250.268Z" fill="#434D59"/>
</svg>
