<svg width="480" height="302" viewBox="0 0 480 302" fill="none" xmlns="http://www.w3.org/2000/svg">
<rect width="480" height="302" fill="white"/>
<path d="M76 152L440 152" stroke="#C0C8D1"/>
<path d="M76 72L440 72" stroke="#C0C8D1"/>
<path d="M76 192L440 192" stroke="#C0C8D1"/>
<path d="M76 112L440 112" stroke="#C0C8D1"/>
<path d="M80 230V40" stroke="#434D59"/>
<path d="M160 234V230" stroke="#C0C8D1"/>
<path d="M240 234V230" stroke="#C0C8D1"/>
<path d="M320 234V230" stroke="#C0C8D1"/>
<path d="M400 234V230" stroke="#C0C8D1"/>
<path d="M80 230L440 230" stroke="#434D59"/>
<path d="M221.897 266.264V275H220.721V266.264H217.613V265.228H225.005V266.264H221.897ZM227.066 266.082C226.824 266.082 226.646 266.026 226.534 265.914C226.432 265.793 226.38 265.639 226.38 265.452V265.27C226.38 265.083 226.432 264.934 226.534 264.822C226.646 264.701 226.824 264.64 227.066 264.64C227.309 264.64 227.482 264.701 227.584 264.822C227.696 264.934 227.752 265.083 227.752 265.27V265.452C227.752 265.639 227.696 265.793 227.584 265.914C227.482 266.026 227.309 266.082 227.066 266.082ZM226.506 267.776H227.626V275H226.506V267.776ZM230.006 275V267.776H231.126V268.952H231.182C231.266 268.765 231.36 268.593 231.462 268.434C231.574 268.266 231.705 268.121 231.854 268C232.013 267.879 232.195 267.785 232.4 267.72C232.606 267.645 232.848 267.608 233.128 267.608C233.604 267.608 234.043 267.725 234.444 267.958C234.846 268.182 235.144 268.555 235.34 269.078H235.368C235.499 268.686 235.742 268.345 236.096 268.056C236.46 267.757 236.95 267.608 237.566 267.608C238.304 267.608 238.878 267.851 239.288 268.336C239.708 268.812 239.918 269.489 239.918 270.366V275H238.798V270.562C238.798 269.918 238.672 269.433 238.42 269.106C238.168 268.779 237.767 268.616 237.216 268.616C236.992 268.616 236.778 268.644 236.572 268.7C236.376 268.756 236.199 268.84 236.04 268.952C235.882 269.064 235.756 269.209 235.662 269.386C235.569 269.554 235.522 269.755 235.522 269.988V275H234.402V270.562C234.402 269.918 234.276 269.433 234.024 269.106C233.772 268.779 233.38 268.616 232.848 268.616C232.624 268.616 232.41 268.644 232.204 268.7C231.999 268.756 231.817 268.84 231.658 268.952C231.5 269.064 231.369 269.209 231.266 269.386C231.173 269.554 231.126 269.755 231.126 269.988V275H230.006ZM244.945 275.168C244.45 275.168 244.002 275.079 243.601 274.902C243.209 274.725 242.868 274.473 242.579 274.146C242.299 273.81 242.08 273.413 241.921 272.956C241.772 272.489 241.697 271.967 241.697 271.388C241.697 270.819 241.772 270.301 241.921 269.834C242.08 269.367 242.299 268.971 242.579 268.644C242.868 268.308 243.209 268.051 243.601 267.874C244.002 267.697 244.45 267.608 244.945 267.608C245.43 267.608 245.864 267.697 246.247 267.874C246.63 268.051 246.956 268.299 247.227 268.616C247.498 268.924 247.703 269.293 247.843 269.722C247.992 270.151 248.067 270.623 248.067 271.136V271.668H242.873V272.004C242.873 272.312 242.92 272.601 243.013 272.872C243.116 273.133 243.256 273.362 243.433 273.558C243.62 273.754 243.844 273.908 244.105 274.02C244.376 274.132 244.679 274.188 245.015 274.188C245.472 274.188 245.869 274.081 246.205 273.866C246.55 273.651 246.816 273.343 247.003 272.942L247.801 273.516C247.568 274.011 247.204 274.412 246.709 274.72C246.214 275.019 245.626 275.168 244.945 275.168ZM244.945 268.546C244.637 268.546 244.357 268.602 244.105 268.714C243.853 268.817 243.634 268.966 243.447 269.162C243.27 269.358 243.13 269.591 243.027 269.862C242.924 270.123 242.873 270.413 242.873 270.73V270.828H246.863V270.674C246.863 270.03 246.686 269.517 246.331 269.134C245.986 268.742 245.524 268.546 244.945 268.546ZM253.193 270.632C253.193 269.96 253.259 269.311 253.389 268.686C253.52 268.061 253.697 267.482 253.921 266.95C254.155 266.409 254.425 265.919 254.733 265.48C255.041 265.041 255.373 264.668 255.727 264.36H256.791C256.399 264.715 256.045 265.116 255.727 265.564C255.419 266.012 255.153 266.488 254.929 266.992C254.715 267.496 254.547 268.009 254.425 268.532C254.304 269.055 254.243 269.559 254.243 270.044V271.248C254.243 271.743 254.304 272.251 254.425 272.774C254.547 273.297 254.719 273.81 254.943 274.314C255.167 274.818 255.433 275.294 255.741 275.742C256.059 276.19 256.409 276.582 256.791 276.918H255.727C255.382 276.629 255.055 276.265 254.747 275.826C254.439 275.387 254.169 274.897 253.935 274.356C253.711 273.815 253.529 273.231 253.389 272.606C253.259 271.971 253.193 271.313 253.193 270.632ZM262.531 273.824H262.475C262.036 274.72 261.331 275.168 260.361 275.168C259.913 275.168 259.507 275.079 259.143 274.902C258.779 274.725 258.466 274.473 258.205 274.146C257.953 273.819 257.757 273.423 257.617 272.956C257.486 272.489 257.421 271.967 257.421 271.388C257.421 270.809 257.486 270.287 257.617 269.82C257.757 269.353 257.953 268.957 258.205 268.63C258.466 268.303 258.779 268.051 259.143 267.874C259.507 267.697 259.913 267.608 260.361 267.608C260.865 267.608 261.294 267.72 261.649 267.944C262.013 268.159 262.288 268.495 262.475 268.952H262.531V264.64H263.651V275H262.531V273.824ZM260.669 274.16C260.921 274.16 261.159 274.127 261.383 274.062C261.616 273.997 261.817 273.903 261.985 273.782C262.153 273.651 262.283 273.497 262.377 273.32C262.479 273.133 262.531 272.923 262.531 272.69V270.002C262.531 269.806 262.479 269.624 262.377 269.456C262.283 269.279 262.153 269.129 261.985 269.008C261.817 268.887 261.616 268.793 261.383 268.728C261.159 268.653 260.921 268.616 260.669 268.616C260.034 268.616 259.535 268.817 259.171 269.218C258.807 269.61 258.625 270.128 258.625 270.772V272.004C258.625 272.648 258.807 273.171 259.171 273.572C259.535 273.964 260.034 274.16 260.669 274.16ZM271.282 275C270.862 275 270.558 274.888 270.372 274.664C270.194 274.44 270.082 274.16 270.036 273.824H269.966C269.807 274.272 269.546 274.608 269.182 274.832C268.818 275.056 268.384 275.168 267.88 275.168C267.114 275.168 266.517 274.972 266.088 274.58C265.668 274.188 265.458 273.656 265.458 272.984C265.458 272.303 265.705 271.78 266.2 271.416C266.704 271.052 267.483 270.87 268.538 270.87H269.966V270.156C269.966 269.643 269.826 269.251 269.546 268.98C269.266 268.709 268.836 268.574 268.258 268.574C267.819 268.574 267.45 268.672 267.152 268.868C266.862 269.064 266.62 269.325 266.424 269.652L265.752 269.022C265.948 268.63 266.26 268.299 266.69 268.028C267.119 267.748 267.66 267.608 268.314 267.608C269.191 267.608 269.872 267.823 270.358 268.252C270.843 268.681 271.086 269.279 271.086 270.044V274.02H271.912V275H271.282ZM268.062 274.216C268.342 274.216 268.598 274.183 268.832 274.118C269.065 274.053 269.266 273.959 269.434 273.838C269.602 273.717 269.732 273.577 269.826 273.418C269.919 273.259 269.966 273.087 269.966 272.9V271.71H268.482C267.838 271.71 267.366 271.803 267.068 271.99C266.778 272.177 266.634 272.447 266.634 272.802V273.096C266.634 273.451 266.76 273.726 267.012 273.922C267.273 274.118 267.623 274.216 268.062 274.216ZM277.894 267.776H279L275.766 276.68C275.682 276.895 275.598 277.072 275.514 277.212C275.43 277.361 275.327 277.478 275.206 277.562C275.085 277.646 274.931 277.707 274.744 277.744C274.567 277.781 274.347 277.8 274.086 277.8H273.512V276.82H274.646L275.192 275.28L272.49 267.776H273.61L275.346 272.69L275.682 273.866H275.752L276.144 272.69L277.894 267.776ZM282.544 275.168C281.872 275.168 281.307 275.042 280.85 274.79C280.402 274.529 280.014 274.183 279.688 273.754L280.486 273.11C280.766 273.465 281.078 273.74 281.424 273.936C281.769 274.123 282.17 274.216 282.628 274.216C283.104 274.216 283.472 274.113 283.734 273.908C284.004 273.703 284.14 273.413 284.14 273.04C284.14 272.76 284.046 272.522 283.86 272.326C283.682 272.121 283.356 271.981 282.88 271.906L282.306 271.822C281.97 271.775 281.662 271.705 281.382 271.612C281.102 271.509 280.854 271.379 280.64 271.22C280.434 271.052 280.271 270.847 280.15 270.604C280.038 270.361 279.982 270.072 279.982 269.736C279.982 269.381 280.047 269.073 280.178 268.812C280.308 268.541 280.486 268.317 280.71 268.14C280.943 267.963 281.218 267.832 281.536 267.748C281.853 267.655 282.194 267.608 282.558 267.608C283.146 267.608 283.636 267.711 284.028 267.916C284.429 268.121 284.779 268.406 285.078 268.77L284.336 269.442C284.177 269.218 283.944 269.017 283.636 268.84C283.328 268.653 282.94 268.56 282.474 268.56C282.007 268.56 281.652 268.663 281.41 268.868C281.176 269.064 281.06 269.335 281.06 269.68C281.06 270.035 281.176 270.291 281.41 270.45C281.652 270.609 281.998 270.725 282.446 270.8L283.006 270.884C283.808 271.005 284.378 271.239 284.714 271.584C285.05 271.92 285.218 272.363 285.218 272.914C285.218 273.614 284.98 274.165 284.504 274.566C284.028 274.967 283.374 275.168 282.544 275.168ZM289.534 270.632C289.534 271.313 289.464 271.971 289.324 272.606C289.193 273.231 289.011 273.815 288.778 274.356C288.554 274.897 288.288 275.387 287.98 275.826C287.672 276.265 287.345 276.629 287 276.918H285.936C286.319 276.582 286.664 276.19 286.972 275.742C287.289 275.294 287.56 274.818 287.784 274.314C288.008 273.81 288.181 273.297 288.302 272.774C288.423 272.251 288.484 271.743 288.484 271.248V270.044C288.484 269.559 288.423 269.055 288.302 268.532C288.181 268.009 288.008 267.496 287.784 266.992C287.569 266.488 287.303 266.012 286.986 265.564C286.678 265.116 286.328 264.715 285.936 264.36H287C287.355 264.668 287.686 265.041 287.994 265.48C288.302 265.919 288.568 266.409 288.792 266.95C289.025 267.482 289.207 268.061 289.338 268.686C289.469 269.311 289.534 269.96 289.534 270.632Z" fill="black"/>
<path d="M39 177.391L36.116 178.371L36.116 182.319L39 183.299L39 184.489L29.228 181.073L29.228 179.575L39 176.159L39 177.391ZM30.32 180.317L30.32 180.387L35.08 182.039L35.08 178.665L30.32 180.317ZM39 174.652L31.776 174.652L31.776 173.532L32.952 173.532L32.952 173.476C32.7653 173.392 32.5927 173.298 32.434 173.196C32.266 173.084 32.1213 172.953 32 172.804C31.8787 172.645 31.7853 172.463 31.72 172.258C31.6453 172.052 31.608 171.81 31.608 171.53C31.608 171.054 31.7247 170.615 31.958 170.214C32.182 169.812 32.5553 169.514 33.078 169.318L33.078 169.29C32.686 169.159 32.3453 168.916 32.056 168.562C31.7573 168.198 31.608 167.708 31.608 167.092C31.608 166.354 31.8507 165.78 32.336 165.37C32.812 164.95 33.4887 164.74 34.366 164.74L39 164.74L39 165.86L34.562 165.86C33.918 165.86 33.4327 165.986 33.106 166.238C32.7793 166.49 32.616 166.891 32.616 167.442C32.616 167.666 32.644 167.88 32.7 168.086C32.756 168.282 32.84 168.459 32.952 168.618C33.064 168.776 33.2087 168.902 33.386 168.996C33.554 169.089 33.7547 169.136 33.988 169.136L39 169.136L39 170.256L34.562 170.256C33.918 170.256 33.4327 170.382 33.106 170.634C32.7793 170.886 32.616 171.278 32.616 171.81C32.616 172.034 32.644 172.248 32.7 172.454C32.756 172.659 32.84 172.841 32.952 173C33.064 173.158 33.2087 173.289 33.386 173.392C33.554 173.485 33.7547 173.532 33.988 173.532L39 173.532L39 174.652ZM39 162.429L31.776 162.429L31.776 161.309L32.952 161.309L32.952 161.253C32.7653 161.169 32.5927 161.076 32.434 160.973C32.266 160.861 32.1213 160.73 32 160.581C31.8787 160.422 31.7853 160.24 31.72 160.035C31.6453 159.83 31.608 159.587 31.608 159.307C31.608 158.831 31.7247 158.392 31.958 157.991C32.182 157.59 32.5553 157.291 33.078 157.095L33.078 157.067C32.686 156.936 32.3453 156.694 32.056 156.339C31.7573 155.975 31.608 155.485 31.608 154.869C31.608 154.132 31.8507 153.558 32.336 153.147C32.812 152.727 33.4887 152.517 34.366 152.517L39 152.517L39 153.637L34.562 153.637C33.918 153.637 33.4327 153.763 33.106 154.015C32.7793 154.267 32.616 154.668 32.616 155.219C32.616 155.443 32.644 155.658 32.7 155.863C32.756 156.059 32.84 156.236 32.952 156.395C33.064 156.554 33.2087 156.68 33.386 156.773C33.554 156.866 33.7547 156.913 33.988 156.913L39 156.913L39 158.033L34.562 158.033C33.918 158.033 33.4327 158.159 33.106 158.411C32.7793 158.663 32.616 159.055 32.616 159.587C32.616 159.811 32.644 160.026 32.7 160.231C32.756 160.436 32.84 160.618 32.952 160.777C33.064 160.936 33.2087 161.066 33.386 161.169C33.554 161.262 33.7547 161.309 33.988 161.309L39 161.309L39 162.429ZM39.168 147.476C39.168 147.962 39.0793 148.405 38.902 148.806C38.7247 149.208 38.4727 149.553 38.146 149.842C37.81 150.122 37.4133 150.342 36.956 150.5C36.4893 150.659 35.9667 150.738 35.388 150.738C34.8187 150.738 34.3007 150.659 33.834 150.5C33.3673 150.342 32.9707 150.122 32.644 149.842C32.308 149.553 32.0513 149.208 31.874 148.806C31.6967 148.405 31.608 147.962 31.608 147.476C31.608 146.991 31.6967 146.552 31.874 146.16C32.0513 145.759 32.308 145.414 32.644 145.124C32.9707 144.835 33.3673 144.611 33.834 144.452C34.3007 144.294 34.8187 144.214 35.388 144.214C35.9667 144.214 36.4893 144.294 36.956 144.452C37.4133 144.611 37.81 144.835 38.146 145.124C38.4727 145.414 38.7247 145.759 38.902 146.16C39.0793 146.552 39.168 146.991 39.168 147.476ZM38.174 147.476C38.174 146.87 37.9873 146.375 37.614 145.992C37.2407 145.61 36.6713 145.418 35.906 145.418L34.87 145.418C34.1047 145.418 33.5353 145.61 33.162 145.992C32.7887 146.375 32.602 146.87 32.602 147.476C32.602 148.083 32.7887 148.578 33.162 148.96C33.5353 149.343 34.1047 149.534 34.87 149.534L35.906 149.534C36.6713 149.534 37.2407 149.343 37.614 148.96C37.9873 148.578 38.174 148.083 38.174 147.476ZM37.824 137.92L37.824 137.976C37.992 138.051 38.16 138.144 38.328 138.256C38.4867 138.359 38.6313 138.49 38.762 138.648C38.8833 138.807 38.9813 138.998 39.056 139.222C39.1307 139.446 39.168 139.708 39.168 140.006C39.168 140.753 38.93 141.346 38.454 141.784C37.9687 142.223 37.2873 142.442 36.41 142.442L31.776 142.442L31.776 141.322L36.214 141.322C37.5113 141.322 38.16 140.772 38.16 139.67C38.16 139.446 38.132 139.232 38.076 139.026C38.02 138.812 37.936 138.625 37.824 138.466C37.712 138.298 37.572 138.168 37.404 138.074C37.2267 137.972 37.0167 137.92 36.774 137.92L31.776 137.92L31.776 136.8L39 136.8L39 137.92L37.824 137.92ZM39 134.415L31.776 134.415L31.776 133.295L32.952 133.295L32.952 133.239C32.5413 133.062 32.2147 132.815 31.972 132.497C31.7293 132.171 31.608 131.737 31.608 131.195C31.608 130.449 31.8507 129.861 32.336 129.431C32.812 128.993 33.4887 128.773 34.366 128.773L39 128.773L39 129.893L34.562 129.893C33.2647 129.893 32.616 130.439 32.616 131.531C32.616 131.755 32.644 131.975 32.7 132.189C32.756 132.395 32.84 132.581 32.952 132.749C33.064 132.917 33.2087 133.053 33.386 133.155C33.554 133.249 33.7547 133.295 33.988 133.295L39 133.295L39 134.415ZM39 124.862C39 125.254 38.8927 125.553 38.678 125.758C38.454 125.954 38.1647 126.052 37.81 126.052L32.756 126.052L32.756 127.242L31.776 127.242L31.776 126.57C31.776 126.328 31.7293 126.164 31.636 126.08C31.5333 125.987 31.3607 125.94 31.118 125.94L29.774 125.94L29.774 124.932L31.776 124.932L31.776 123.35L32.756 123.35L32.756 124.932L38.02 124.932L38.02 123.462L39 123.462L39 124.862ZM34.632 118.27C33.96 118.27 33.3113 118.204 32.686 118.074C32.0607 117.943 31.482 117.766 30.95 117.542C30.4087 117.308 29.9187 117.038 29.48 116.73C29.0413 116.422 28.668 116.09 28.36 115.736L28.36 114.672C28.7147 115.064 29.116 115.418 29.564 115.736C30.012 116.044 30.488 116.31 30.992 116.534C31.496 116.748 32.0093 116.916 32.532 117.038C33.0547 117.159 33.5587 117.22 34.044 117.22L35.248 117.22C35.7427 117.22 36.2513 117.159 36.774 117.038C37.2967 116.916 37.81 116.744 38.314 116.52C38.818 116.296 39.294 116.03 39.742 115.722C40.19 115.404 40.582 115.054 40.918 114.672L40.918 115.736C40.6287 116.081 40.2647 116.408 39.826 116.716C39.3873 117.024 38.8973 117.294 38.356 117.528C37.8147 117.752 37.2313 117.934 36.606 118.074C35.9713 118.204 35.3133 118.27 34.632 118.27ZM39.168 110.864C39.168 111.368 39.0793 111.821 38.902 112.222C38.7247 112.624 38.4727 112.964 38.146 113.244C37.8193 113.515 37.4227 113.725 36.956 113.874C36.4893 114.014 35.9667 114.084 35.388 114.084C34.8093 114.084 34.2867 114.014 33.82 113.874C33.3533 113.725 32.9567 113.515 32.63 113.244C32.3033 112.964 32.0513 112.624 31.874 112.222C31.6967 111.821 31.608 111.368 31.608 110.864C31.608 110.146 31.7667 109.572 32.084 109.142C32.392 108.704 32.798 108.377 33.302 108.162L33.778 109.1C33.4047 109.231 33.1153 109.446 32.91 109.744C32.7047 110.043 32.602 110.416 32.602 110.864C32.602 111.2 32.658 111.494 32.77 111.746C32.8727 111.998 33.022 112.208 33.218 112.376C33.4047 112.544 33.6333 112.67 33.904 112.754C34.1653 112.838 34.4547 112.88 34.772 112.88L36.004 112.88C36.6387 112.88 37.1613 112.712 37.572 112.376C37.9733 112.031 38.174 111.527 38.174 110.864C38.174 109.959 37.754 109.306 36.914 108.904L37.46 108.092C37.9827 108.326 38.398 108.676 38.706 109.142C39.014 109.6 39.168 110.174 39.168 110.864ZM39.168 104.341C39.168 105.013 39.042 105.578 38.79 106.035C38.5287 106.483 38.1833 106.871 37.754 107.197L37.11 106.399C37.4647 106.119 37.74 105.807 37.936 105.461C38.1227 105.116 38.216 104.715 38.216 104.257C38.216 103.781 38.1133 103.413 37.908 103.151C37.7027 102.881 37.4133 102.745 37.04 102.745C36.76 102.745 36.522 102.839 36.326 103.025C36.1207 103.203 35.9807 103.529 35.906 104.005L35.822 104.579C35.7753 104.915 35.7053 105.223 35.612 105.503C35.5093 105.783 35.3787 106.031 35.22 106.245C35.052 106.451 34.8467 106.614 34.604 106.735C34.3613 106.847 34.072 106.903 33.736 106.903C33.3813 106.903 33.0733 106.838 32.812 106.707C32.5413 106.577 32.3173 106.399 32.14 106.175C31.9627 105.942 31.832 105.667 31.748 105.349C31.6547 105.032 31.608 104.691 31.608 104.327C31.608 103.739 31.7107 103.249 31.916 102.857C32.1213 102.456 32.406 102.106 32.77 101.807L33.442 102.549C33.218 102.708 33.0173 102.941 32.84 103.249C32.6533 103.557 32.56 103.945 32.56 104.411C32.56 104.878 32.6627 105.233 32.868 105.475C33.064 105.709 33.3347 105.825 33.68 105.825C34.0347 105.825 34.2913 105.709 34.45 105.475C34.6087 105.233 34.7253 104.887 34.8 104.439L34.884 103.879C35.0053 103.077 35.2387 102.507 35.584 102.171C35.92 101.835 36.3633 101.667 36.914 101.667C37.614 101.667 38.1647 101.905 38.566 102.381C38.9673 102.857 39.168 103.511 39.168 104.341ZM34.632 97.3509C35.3133 97.3509 35.9713 97.4209 36.606 97.5609C37.2313 97.6916 37.8147 97.8736 38.356 98.1069C38.8973 98.3309 39.3873 98.5969 39.826 98.9049C40.2647 99.2129 40.6287 99.5396 40.918 99.8849L40.918 100.949C40.582 100.566 40.19 100.221 39.742 99.9129C39.294 99.5956 38.818 99.3249 38.314 99.1009C37.81 98.8769 37.2967 98.7042 36.774 98.5829C36.2513 98.4616 35.7427 98.4009 35.248 98.4009L34.044 98.4009C33.5587 98.4009 33.0547 98.4616 32.532 98.5829C32.0093 98.7042 31.496 98.8769 30.992 99.1009C30.488 99.3156 30.012 99.5816 29.564 99.8989C29.116 100.207 28.7147 100.557 28.36 100.949L28.36 99.8849C28.668 99.5302 29.0413 99.1989 29.48 98.8909C29.9187 98.5829 30.4087 98.3169 30.95 98.0929C31.482 97.8596 32.0607 97.6776 32.686 97.5469C33.3113 97.4162 33.96 97.3509 34.632 97.3509Z" fill="black"/>
<path d="M156.458 251V250.112H158.798V243.368H158.714L156.602 245.336L156.014 244.7L158.234 242.624H159.806V250.112H161.966V251H156.458Z" fill="#434D59"/>
<path d="M63.2807 188.512H59.6087L59.3687 191.704H59.4527C59.6527 191.424 59.8767 191.2 60.1247 191.032C60.3807 190.864 60.7287 190.78 61.1687 190.78C61.5287 190.78 61.8607 190.84 62.1647 190.96C62.4687 191.08 62.7327 191.252 62.9567 191.476C63.1807 191.692 63.3527 191.96 63.4727 192.28C63.6007 192.6 63.6647 192.964 63.6647 193.372C63.6647 193.78 63.6007 194.156 63.4727 194.5C63.3447 194.836 63.1567 195.128 62.9087 195.376C62.6687 195.616 62.3727 195.804 62.0207 195.94C61.6767 196.076 61.2847 196.144 60.8447 196.144C60.4927 196.144 60.1807 196.104 59.9087 196.024C59.6447 195.944 59.4087 195.836 59.2007 195.7C58.9927 195.564 58.8087 195.412 58.6487 195.244C58.4967 195.076 58.3567 194.9 58.2287 194.716L58.9847 194.14C59.0887 194.308 59.1967 194.46 59.3087 194.596C59.4287 194.732 59.5567 194.848 59.6927 194.944C59.8367 195.04 60.0007 195.116 60.1847 195.172C60.3687 195.22 60.5887 195.244 60.8447 195.244C61.4207 195.244 61.8567 195.092 62.1527 194.788C62.4487 194.484 62.5967 194.056 62.5967 193.504V193.384C62.5967 192.832 62.4487 192.404 62.1527 192.1C61.8567 191.796 61.4207 191.644 60.8447 191.644C60.4607 191.644 60.1567 191.716 59.9327 191.86C59.7167 191.996 59.5207 192.16 59.3447 192.352L58.4927 192.232L58.7927 187.624H63.2807V188.512ZM68.1 196.144C67.1 196.144 66.368 195.764 65.904 195.004C65.448 194.244 65.22 193.18 65.22 191.812C65.22 190.444 65.448 189.38 65.904 188.62C66.368 187.86 67.1 187.48 68.1 187.48C69.1 187.48 69.828 187.86 70.284 188.62C70.748 189.38 70.98 190.444 70.98 191.812C70.98 193.18 70.748 194.244 70.284 195.004C69.828 195.764 69.1 196.144 68.1 196.144ZM68.1 195.268C68.428 195.268 68.708 195.2 68.94 195.064C69.172 194.928 69.36 194.736 69.504 194.488C69.648 194.24 69.752 193.948 69.816 193.612C69.888 193.276 69.924 192.904 69.924 192.496V191.128C69.924 190.72 69.888 190.348 69.816 190.012C69.752 189.676 69.648 189.384 69.504 189.136C69.36 188.888 69.172 188.696 68.94 188.56C68.708 188.424 68.428 188.356 68.1 188.356C67.772 188.356 67.492 188.424 67.26 188.56C67.028 188.696 66.84 188.888 66.696 189.136C66.552 189.384 66.444 189.676 66.372 190.012C66.308 190.348 66.276 190.72 66.276 191.128V192.496C66.276 192.904 66.308 193.276 66.372 193.612C66.444 193.948 66.552 194.24 66.696 194.488C66.84 194.736 67.028 194.928 67.26 195.064C67.492 195.2 67.772 195.268 68.1 195.268Z" fill="#434D59"/>
<path d="M68.0023 251.144C67.0023 251.144 66.2703 250.764 65.8063 250.004C65.3503 249.244 65.1223 248.18 65.1223 246.812C65.1223 245.444 65.3503 244.38 65.8063 243.62C66.2703 242.86 67.0023 242.48 68.0023 242.48C69.0023 242.48 69.7303 242.86 70.1863 243.62C70.6503 244.38 70.8823 245.444 70.8823 246.812C70.8823 248.18 70.6503 249.244 70.1863 250.004C69.7303 250.764 69.0023 251.144 68.0023 251.144ZM68.0023 250.268C68.3303 250.268 68.6103 250.2 68.8423 250.064C69.0743 249.928 69.2623 249.736 69.4063 249.488C69.5503 249.24 69.6543 248.948 69.7183 248.612C69.7903 248.276 69.8263 247.904 69.8263 247.496V246.128C69.8263 245.72 69.7903 245.348 69.7183 245.012C69.6543 244.676 69.5503 244.384 69.4063 244.136C69.2623 243.888 69.0743 243.696 68.8423 243.56C68.6103 243.424 68.3303 243.356 68.0023 243.356C67.6743 243.356 67.3943 243.424 67.1623 243.56C66.9303 243.696 66.7423 243.888 66.5983 244.136C66.4543 244.384 66.3463 244.676 66.2743 245.012C66.2103 245.348 66.1783 245.72 66.1783 246.128V247.496C66.1783 247.904 66.2103 248.276 66.2743 248.612C66.3463 248.948 66.4543 249.24 66.5983 249.488C66.7423 249.736 66.9303 249.928 67.1623 250.064C67.3943 250.2 67.6743 250.268 68.0023 250.268Z" fill="#434D59"/>
<path d="M51.263 156V155.112H53.603V148.368H53.519L51.407 150.336L50.819 149.7L53.039 147.624H54.611V155.112H56.771V156H51.263ZM61.0023 156.144C60.0023 156.144 59.2703 155.764 58.8063 155.004C58.3503 154.244 58.1223 153.18 58.1223 151.812C58.1223 150.444 58.3503 149.38 58.8063 148.62C59.2703 147.86 60.0023 147.48 61.0023 147.48C62.0023 147.48 62.7303 147.86 63.1863 148.62C63.6503 149.38 63.8823 150.444 63.8823 151.812C63.8823 153.18 63.6503 154.244 63.1863 155.004C62.7303 155.764 62.0023 156.144 61.0023 156.144ZM61.0023 155.268C61.3303 155.268 61.6103 155.2 61.8423 155.064C62.0743 154.928 62.2623 154.736 62.4063 154.488C62.5503 154.24 62.6543 153.948 62.7183 153.612C62.7903 153.276 62.8263 152.904 62.8263 152.496V151.128C62.8263 150.72 62.7903 150.348 62.7183 150.012C62.6543 149.676 62.5503 149.384 62.4063 149.136C62.2623 148.888 62.0743 148.696 61.8423 148.56C61.6103 148.424 61.3303 148.356 61.0023 148.356C60.6743 148.356 60.3943 148.424 60.1623 148.56C59.9303 148.696 59.7423 148.888 59.5983 149.136C59.4543 149.384 59.3463 149.676 59.2743 150.012C59.2103 150.348 59.1783 150.72 59.1783 151.128V152.496C59.1783 152.904 59.2103 153.276 59.2743 153.612C59.3463 153.948 59.4543 154.24 59.5983 154.488C59.7423 154.736 59.9303 154.928 60.1623 155.064C60.3943 155.2 60.6743 155.268 61.0023 155.268ZM68.1977 156.144C67.1977 156.144 66.4657 155.764 66.0017 155.004C65.5457 154.244 65.3177 153.18 65.3177 151.812C65.3177 150.444 65.5457 149.38 66.0017 148.62C66.4657 147.86 67.1977 147.48 68.1977 147.48C69.1977 147.48 69.9257 147.86 70.3817 148.62C70.8457 149.38 71.0777 150.444 71.0777 151.812C71.0777 153.18 70.8457 154.244 70.3817 155.004C69.9257 155.764 69.1977 156.144 68.1977 156.144ZM68.1977 155.268C68.5257 155.268 68.8057 155.2 69.0377 155.064C69.2697 154.928 69.4577 154.736 69.6017 154.488C69.7457 154.24 69.8497 153.948 69.9137 153.612C69.9857 153.276 70.0217 152.904 70.0217 152.496V151.128C70.0217 150.72 69.9857 150.348 69.9137 150.012C69.8497 149.676 69.7457 149.384 69.6017 149.136C69.4577 148.888 69.2697 148.696 69.0377 148.56C68.8057 148.424 68.5257 148.356 68.1977 148.356C67.8697 148.356 67.5897 148.424 67.3577 148.56C67.1257 148.696 66.9377 148.888 66.7937 149.136C66.6497 149.384 66.5417 149.676 66.4697 150.012C66.4057 150.348 66.3737 150.72 66.3737 151.128V152.496C66.3737 152.904 66.4057 153.276 66.4697 153.612C66.5417 153.948 66.6497 154.24 66.7937 154.488C66.9377 154.736 67.1257 154.928 67.3577 155.064C67.5897 155.2 67.8697 155.268 68.1977 155.268Z" fill="#434D59"/>
<path d="M51.263 116V115.112H53.603V108.368H53.519L51.407 110.336L50.819 109.7L53.039 107.624H54.611V115.112H56.771V116H51.263ZM63.3783 108.512H59.7063L59.4663 111.704H59.5503C59.7503 111.424 59.9743 111.2 60.2223 111.032C60.4783 110.864 60.8263 110.78 61.2663 110.78C61.6263 110.78 61.9583 110.84 62.2623 110.96C62.5663 111.08 62.8303 111.252 63.0543 111.476C63.2783 111.692 63.4503 111.96 63.5703 112.28C63.6983 112.6 63.7623 112.964 63.7623 113.372C63.7623 113.78 63.6983 114.156 63.5703 114.5C63.4423 114.836 63.2543 115.128 63.0063 115.376C62.7663 115.616 62.4703 115.804 62.1183 115.94C61.7743 116.076 61.3823 116.144 60.9423 116.144C60.5903 116.144 60.2783 116.104 60.0063 116.024C59.7423 115.944 59.5063 115.836 59.2983 115.7C59.0903 115.564 58.9063 115.412 58.7463 115.244C58.5943 115.076 58.4543 114.9 58.3263 114.716L59.0823 114.14C59.1863 114.308 59.2943 114.46 59.4063 114.596C59.5263 114.732 59.6543 114.848 59.7903 114.944C59.9343 115.04 60.0983 115.116 60.2823 115.172C60.4663 115.22 60.6863 115.244 60.9423 115.244C61.5183 115.244 61.9543 115.092 62.2503 114.788C62.5463 114.484 62.6943 114.056 62.6943 113.504V113.384C62.6943 112.832 62.5463 112.404 62.2503 112.1C61.9543 111.796 61.5183 111.644 60.9423 111.644C60.5583 111.644 60.2543 111.716 60.0303 111.86C59.8143 111.996 59.6183 112.16 59.4423 112.352L58.5903 112.232L58.8903 107.624H63.3783V108.512ZM68.1977 116.144C67.1977 116.144 66.4657 115.764 66.0017 115.004C65.5457 114.244 65.3177 113.18 65.3177 111.812C65.3177 110.444 65.5457 109.38 66.0017 108.62C66.4657 107.86 67.1977 107.48 68.1977 107.48C69.1977 107.48 69.9257 107.86 70.3817 108.62C70.8457 109.38 71.0777 110.444 71.0777 111.812C71.0777 113.18 70.8457 114.244 70.3817 115.004C69.9257 115.764 69.1977 116.144 68.1977 116.144ZM68.1977 115.268C68.5257 115.268 68.8057 115.2 69.0377 115.064C69.2697 114.928 69.4577 114.736 69.6017 114.488C69.7457 114.24 69.8497 113.948 69.9137 113.612C69.9857 113.276 70.0217 112.904 70.0217 112.496V111.128C70.0217 110.72 69.9857 110.348 69.9137 110.012C69.8497 109.676 69.7457 109.384 69.6017 109.136C69.4577 108.888 69.2697 108.696 69.0377 108.56C68.8057 108.424 68.5257 108.356 68.1977 108.356C67.8697 108.356 67.5897 108.424 67.3577 108.56C67.1257 108.696 66.9377 108.888 66.7937 109.136C66.6497 109.384 66.5417 109.676 66.4697 110.012C66.4057 110.348 66.3737 110.72 66.3737 111.128V112.496C66.3737 112.904 66.4057 113.276 66.4697 113.612C66.5417 113.948 66.6497 114.24 66.7937 114.488C66.9377 114.736 67.1257 114.928 67.3577 115.064C67.5897 115.2 67.8697 115.268 68.1977 115.268Z" fill="#434D59"/>
<path d="M56.603 76H51.107V74.968L53.843 72.448C54.235 72.088 54.563 71.708 54.827 71.308C55.091 70.9 55.223 70.492 55.223 70.084V69.94C55.223 69.476 55.095 69.1 54.839 68.812C54.583 68.524 54.195 68.38 53.675 68.38C53.419 68.38 53.195 68.416 53.003 68.488C52.811 68.56 52.643 68.66 52.499 68.788C52.363 68.916 52.247 69.068 52.151 69.244C52.063 69.412 51.991 69.596 51.935 69.796L51.035 69.448C51.115 69.2 51.223 68.96 51.359 68.728C51.503 68.488 51.679 68.276 51.887 68.092C52.103 67.908 52.359 67.76 52.655 67.648C52.959 67.536 53.315 67.48 53.723 67.48C54.131 67.48 54.495 67.54 54.815 67.66C55.135 67.78 55.403 67.948 55.619 68.164C55.835 68.38 55.999 68.636 56.111 68.932C56.231 69.228 56.291 69.556 56.291 69.916C56.291 70.244 56.243 70.548 56.147 70.828C56.059 71.108 55.935 71.376 55.775 71.632C55.615 71.88 55.419 72.124 55.187 72.364C54.963 72.604 54.719 72.844 54.455 73.084L52.199 75.112H56.603V76ZM61.0023 76.144C60.0023 76.144 59.2703 75.764 58.8063 75.004C58.3503 74.244 58.1223 73.18 58.1223 71.812C58.1223 70.444 58.3503 69.38 58.8063 68.62C59.2703 67.86 60.0023 67.48 61.0023 67.48C62.0023 67.48 62.7303 67.86 63.1863 68.62C63.6503 69.38 63.8823 70.444 63.8823 71.812C63.8823 73.18 63.6503 74.244 63.1863 75.004C62.7303 75.764 62.0023 76.144 61.0023 76.144ZM61.0023 75.268C61.3303 75.268 61.6103 75.2 61.8423 75.064C62.0743 74.928 62.2623 74.736 62.4063 74.488C62.5503 74.24 62.6543 73.948 62.7183 73.612C62.7903 73.276 62.8263 72.904 62.8263 72.496V71.128C62.8263 70.72 62.7903 70.348 62.7183 70.012C62.6543 69.676 62.5503 69.384 62.4063 69.136C62.2623 68.888 62.0743 68.696 61.8423 68.56C61.6103 68.424 61.3303 68.356 61.0023 68.356C60.6743 68.356 60.3943 68.424 60.1623 68.56C59.9303 68.696 59.7423 68.888 59.5983 69.136C59.4543 69.384 59.3463 69.676 59.2743 70.012C59.2103 70.348 59.1783 70.72 59.1783 71.128V72.496C59.1783 72.904 59.2103 73.276 59.2743 73.612C59.3463 73.948 59.4543 74.24 59.5983 74.488C59.7423 74.736 59.9303 74.928 60.1623 75.064C60.3943 75.2 60.6743 75.268 61.0023 75.268ZM68.1977 76.144C67.1977 76.144 66.4657 75.764 66.0017 75.004C65.5457 74.244 65.3177 73.18 65.3177 71.812C65.3177 70.444 65.5457 69.38 66.0017 68.62C66.4657 67.86 67.1977 67.48 68.1977 67.48C69.1977 67.48 69.9257 67.86 70.3817 68.62C70.8457 69.38 71.0777 70.444 71.0777 71.812C71.0777 73.18 70.8457 74.244 70.3817 75.004C69.9257 75.764 69.1977 76.144 68.1977 76.144ZM68.1977 75.268C68.5257 75.268 68.8057 75.2 69.0377 75.064C69.2697 74.928 69.4577 74.736 69.6017 74.488C69.7457 74.24 69.8497 73.948 69.9137 73.612C69.9857 73.276 70.0217 72.904 70.0217 72.496V71.128C70.0217 70.72 69.9857 70.348 69.9137 70.012C69.8497 69.676 69.7457 69.384 69.6017 69.136C69.4577 68.888 69.2697 68.696 69.0377 68.56C68.8057 68.424 68.5257 68.356 68.1977 68.356C67.8697 68.356 67.5897 68.424 67.3577 68.56C67.1257 68.696 66.9377 68.888 66.7937 69.136C66.6497 69.384 66.5417 69.676 66.4697 70.012C66.4057 70.348 66.3737 70.72 66.3737 71.128V72.496C66.3737 72.904 66.4057 73.276 66.4697 73.612C66.5417 73.948 66.6497 74.24 66.7937 74.488C66.9377 74.736 67.1257 74.928 67.3577 75.064C67.5897 75.2 67.8697 75.268 68.1977 75.268Z" fill="#434D59"/>
<path d="M242.798 251H237.302V249.968L240.038 247.448C240.43 247.088 240.758 246.708 241.022 246.308C241.286 245.9 241.418 245.492 241.418 245.084V244.94C241.418 244.476 241.29 244.1 241.034 243.812C240.778 243.524 240.39 243.38 239.87 243.38C239.614 243.38 239.39 243.416 239.198 243.488C239.006 243.56 238.838 243.66 238.694 243.788C238.558 243.916 238.442 244.068 238.346 244.244C238.258 244.412 238.186 244.596 238.13 244.796L237.23 244.448C237.31 244.2 237.418 243.96 237.554 243.728C237.698 243.488 237.874 243.276 238.082 243.092C238.298 242.908 238.554 242.76 238.85 242.648C239.154 242.536 239.51 242.48 239.918 242.48C240.326 242.48 240.69 242.54 241.01 242.66C241.33 242.78 241.598 242.948 241.814 243.164C242.03 243.38 242.194 243.636 242.306 243.932C242.426 244.228 242.486 244.556 242.486 244.916C242.486 245.244 242.438 245.548 242.342 245.828C242.254 246.108 242.13 246.376 241.97 246.632C241.81 246.88 241.614 247.124 241.382 247.364C241.158 247.604 240.914 247.844 240.65 248.084L238.394 250.112H242.798V251Z" fill="#434D59"/>
<path d="M319.534 246.176C320.102 246.176 320.526 246.048 320.806 245.792C321.094 245.528 321.238 245.192 321.238 244.784V244.7C321.238 244.26 321.098 243.932 320.818 243.716C320.546 243.492 320.186 243.38 319.738 243.38C319.306 243.38 318.954 243.476 318.682 243.668C318.41 243.852 318.186 244.104 318.01 244.424L317.266 243.848C317.37 243.68 317.494 243.516 317.638 243.356C317.79 243.188 317.966 243.04 318.166 242.912C318.366 242.784 318.598 242.68 318.862 242.6C319.126 242.52 319.426 242.48 319.762 242.48C320.114 242.48 320.446 242.528 320.758 242.624C321.07 242.712 321.338 242.848 321.562 243.032C321.794 243.208 321.974 243.428 322.102 243.692C322.238 243.956 322.306 244.256 322.306 244.592C322.306 244.864 322.262 245.108 322.174 245.324C322.094 245.54 321.982 245.728 321.838 245.888C321.694 246.048 321.522 246.184 321.322 246.296C321.13 246.408 320.922 246.492 320.698 246.548V246.596C320.922 246.644 321.138 246.724 321.346 246.836C321.562 246.94 321.75 247.08 321.91 247.256C322.078 247.424 322.21 247.632 322.306 247.88C322.41 248.12 322.462 248.396 322.462 248.708C322.462 249.068 322.394 249.4 322.258 249.704C322.122 250 321.93 250.256 321.682 250.472C321.434 250.68 321.134 250.844 320.782 250.964C320.43 251.084 320.042 251.144 319.618 251.144C319.258 251.144 318.938 251.104 318.658 251.024C318.378 250.944 318.13 250.836 317.914 250.7C317.698 250.564 317.506 250.412 317.338 250.244C317.178 250.076 317.034 249.9 316.906 249.716L317.662 249.14C317.766 249.308 317.878 249.46 317.998 249.596C318.126 249.732 318.266 249.848 318.418 249.944C318.57 250.04 318.742 250.116 318.934 250.172C319.126 250.22 319.35 250.244 319.606 250.244C320.198 250.244 320.646 250.112 320.95 249.848C321.254 249.576 321.406 249.192 321.406 248.696V248.6C321.406 248.104 321.254 247.724 320.95 247.46C320.646 247.188 320.198 247.052 319.606 247.052H318.622V246.176H319.534Z" fill="#434D59"/>
<path d="M400.902 251V249.356H396.858V248.468L400.362 242.624H401.862V248.516H403.074V249.356H401.862V251H400.902ZM397.806 248.516H400.902V243.404H400.842L397.806 248.516Z" fill="#434D59"/>
<path d="M80 229.5L161.5 172L240 163L322 118L408.5 100.5L438.5 96" stroke="#00438F" stroke-width="3" stroke-linejoin="round"/>
</svg>
