<svg width="480" height="318" viewBox="0 0 480 318" fill="none" xmlns="http://www.w3.org/2000/svg">
<rect width="480" height="318" fill="white"/>
<path d="M76 168L440 168" stroke="#C0C8D1"/>
<path d="M76 88L440 88" stroke="#C0C8D1"/>
<path d="M76 208L440 208" stroke="#C0C8D1"/>
<path d="M76 128L440 128" stroke="#C0C8D1"/>
<path d="M80 246V56" stroke="#434D59"/>
<path d="M160 250V246" stroke="#C0C8D1"/>
<path d="M240 250V246" stroke="#C0C8D1"/>
<path d="M320 250V246" stroke="#C0C8D1"/>
<path d="M400 250V246" stroke="#C0C8D1"/>
<path d="M80 246L440 246" stroke="#434D59"/>
<path d="M207.897 282.264V291H206.721V282.264H203.613V281.228H211.005V282.264H207.897ZM213.066 282.082C212.824 282.082 212.646 282.026 212.534 281.914C212.432 281.793 212.38 281.639 212.38 281.452V281.27C212.38 281.083 212.432 280.934 212.534 280.822C212.646 280.701 212.824 280.64 213.066 280.64C213.309 280.64 213.482 280.701 213.584 280.822C213.696 280.934 213.752 281.083 213.752 281.27V281.452C213.752 281.639 213.696 281.793 213.584 281.914C213.482 282.026 213.309 282.082 213.066 282.082ZM212.506 283.776H213.626V291H212.506V283.776ZM216.006 291V283.776H217.126V284.952H217.182C217.266 284.765 217.36 284.593 217.462 284.434C217.574 284.266 217.705 284.121 217.854 284C218.013 283.879 218.195 283.785 218.4 283.72C218.606 283.645 218.848 283.608 219.128 283.608C219.604 283.608 220.043 283.725 220.444 283.958C220.846 284.182 221.144 284.555 221.34 285.078H221.368C221.499 284.686 221.742 284.345 222.096 284.056C222.46 283.757 222.95 283.608 223.566 283.608C224.304 283.608 224.878 283.851 225.288 284.336C225.708 284.812 225.918 285.489 225.918 286.366V291H224.798V286.562C224.798 285.918 224.672 285.433 224.42 285.106C224.168 284.779 223.767 284.616 223.216 284.616C222.992 284.616 222.778 284.644 222.572 284.7C222.376 284.756 222.199 284.84 222.04 284.952C221.882 285.064 221.756 285.209 221.662 285.386C221.569 285.554 221.522 285.755 221.522 285.988V291H220.402V286.562C220.402 285.918 220.276 285.433 220.024 285.106C219.772 284.779 219.38 284.616 218.848 284.616C218.624 284.616 218.41 284.644 218.204 284.7C217.999 284.756 217.817 284.84 217.658 284.952C217.5 285.064 217.369 285.209 217.266 285.386C217.173 285.554 217.126 285.755 217.126 285.988V291H216.006ZM230.945 291.168C230.45 291.168 230.002 291.079 229.601 290.902C229.209 290.725 228.868 290.473 228.579 290.146C228.299 289.81 228.08 289.413 227.921 288.956C227.772 288.489 227.697 287.967 227.697 287.388C227.697 286.819 227.772 286.301 227.921 285.834C228.08 285.367 228.299 284.971 228.579 284.644C228.868 284.308 229.209 284.051 229.601 283.874C230.002 283.697 230.45 283.608 230.945 283.608C231.43 283.608 231.864 283.697 232.247 283.874C232.63 284.051 232.956 284.299 233.227 284.616C233.498 284.924 233.703 285.293 233.843 285.722C233.992 286.151 234.067 286.623 234.067 287.136V287.668H228.873V288.004C228.873 288.312 228.92 288.601 229.013 288.872C229.116 289.133 229.256 289.362 229.433 289.558C229.62 289.754 229.844 289.908 230.105 290.02C230.376 290.132 230.679 290.188 231.015 290.188C231.472 290.188 231.869 290.081 232.205 289.866C232.55 289.651 232.816 289.343 233.003 288.942L233.801 289.516C233.568 290.011 233.204 290.412 232.709 290.72C232.214 291.019 231.626 291.168 230.945 291.168ZM230.945 284.546C230.637 284.546 230.357 284.602 230.105 284.714C229.853 284.817 229.634 284.966 229.447 285.162C229.27 285.358 229.13 285.591 229.027 285.862C228.924 286.123 228.873 286.413 228.873 286.73V286.828H232.863V286.674C232.863 286.03 232.686 285.517 232.331 285.134C231.986 284.742 231.524 284.546 230.945 284.546ZM239.193 286.632C239.193 285.96 239.259 285.311 239.389 284.686C239.52 284.061 239.697 283.482 239.921 282.95C240.155 282.409 240.425 281.919 240.733 281.48C241.041 281.041 241.373 280.668 241.727 280.36H242.791C242.399 280.715 242.045 281.116 241.727 281.564C241.419 282.012 241.153 282.488 240.929 282.992C240.715 283.496 240.547 284.009 240.425 284.532C240.304 285.055 240.243 285.559 240.243 286.044V287.248C240.243 287.743 240.304 288.251 240.425 288.774C240.547 289.297 240.719 289.81 240.943 290.314C241.167 290.818 241.433 291.294 241.741 291.742C242.059 292.19 242.409 292.582 242.791 292.918H241.727C241.382 292.629 241.055 292.265 240.747 291.826C240.439 291.387 240.169 290.897 239.935 290.356C239.711 289.815 239.529 289.231 239.389 288.606C239.259 287.971 239.193 287.313 239.193 286.632ZM248.531 289.824H248.475C248.036 290.72 247.331 291.168 246.361 291.168C245.913 291.168 245.507 291.079 245.143 290.902C244.779 290.725 244.466 290.473 244.205 290.146C243.953 289.819 243.757 289.423 243.617 288.956C243.486 288.489 243.421 287.967 243.421 287.388C243.421 286.809 243.486 286.287 243.617 285.82C243.757 285.353 243.953 284.957 244.205 284.63C244.466 284.303 244.779 284.051 245.143 283.874C245.507 283.697 245.913 283.608 246.361 283.608C246.865 283.608 247.294 283.72 247.649 283.944C248.013 284.159 248.288 284.495 248.475 284.952H248.531V280.64H249.651V291H248.531V289.824ZM246.669 290.16C246.921 290.16 247.159 290.127 247.383 290.062C247.616 289.997 247.817 289.903 247.985 289.782C248.153 289.651 248.283 289.497 248.377 289.32C248.479 289.133 248.531 288.923 248.531 288.69V286.002C248.531 285.806 248.479 285.624 248.377 285.456C248.283 285.279 248.153 285.129 247.985 285.008C247.817 284.887 247.616 284.793 247.383 284.728C247.159 284.653 246.921 284.616 246.669 284.616C246.034 284.616 245.535 284.817 245.171 285.218C244.807 285.61 244.625 286.128 244.625 286.772V288.004C244.625 288.648 244.807 289.171 245.171 289.572C245.535 289.964 246.034 290.16 246.669 290.16ZM257.282 291C256.862 291 256.558 290.888 256.372 290.664C256.194 290.44 256.082 290.16 256.036 289.824H255.966C255.807 290.272 255.546 290.608 255.182 290.832C254.818 291.056 254.384 291.168 253.88 291.168C253.114 291.168 252.517 290.972 252.088 290.58C251.668 290.188 251.458 289.656 251.458 288.984C251.458 288.303 251.705 287.78 252.2 287.416C252.704 287.052 253.483 286.87 254.538 286.87H255.966V286.156C255.966 285.643 255.826 285.251 255.546 284.98C255.266 284.709 254.836 284.574 254.258 284.574C253.819 284.574 253.45 284.672 253.152 284.868C252.862 285.064 252.62 285.325 252.424 285.652L251.752 285.022C251.948 284.63 252.26 284.299 252.69 284.028C253.119 283.748 253.66 283.608 254.314 283.608C255.191 283.608 255.872 283.823 256.358 284.252C256.843 284.681 257.086 285.279 257.086 286.044V290.02H257.912V291H257.282ZM254.062 290.216C254.342 290.216 254.598 290.183 254.832 290.118C255.065 290.053 255.266 289.959 255.434 289.838C255.602 289.717 255.732 289.577 255.826 289.418C255.919 289.259 255.966 289.087 255.966 288.9V287.71H254.482C253.838 287.71 253.366 287.803 253.068 287.99C252.778 288.177 252.634 288.447 252.634 288.802V289.096C252.634 289.451 252.76 289.726 253.012 289.922C253.273 290.118 253.623 290.216 254.062 290.216ZM263.894 283.776H265L261.766 292.68C261.682 292.895 261.598 293.072 261.514 293.212C261.43 293.361 261.327 293.478 261.206 293.562C261.085 293.646 260.931 293.707 260.744 293.744C260.567 293.781 260.347 293.8 260.086 293.8H259.512V292.82H260.646L261.192 291.28L258.49 283.776H259.61L261.346 288.69L261.682 289.866H261.752L262.144 288.69L263.894 283.776ZM268.544 291.168C267.872 291.168 267.307 291.042 266.85 290.79C266.402 290.529 266.014 290.183 265.688 289.754L266.486 289.11C266.766 289.465 267.078 289.74 267.424 289.936C267.769 290.123 268.17 290.216 268.628 290.216C269.104 290.216 269.472 290.113 269.734 289.908C270.004 289.703 270.14 289.413 270.14 289.04C270.14 288.76 270.046 288.522 269.86 288.326C269.682 288.121 269.356 287.981 268.88 287.906L268.306 287.822C267.97 287.775 267.662 287.705 267.382 287.612C267.102 287.509 266.854 287.379 266.64 287.22C266.434 287.052 266.271 286.847 266.15 286.604C266.038 286.361 265.982 286.072 265.982 285.736C265.982 285.381 266.047 285.073 266.178 284.812C266.308 284.541 266.486 284.317 266.71 284.14C266.943 283.963 267.218 283.832 267.536 283.748C267.853 283.655 268.194 283.608 268.558 283.608C269.146 283.608 269.636 283.711 270.028 283.916C270.429 284.121 270.779 284.406 271.078 284.77L270.336 285.442C270.177 285.218 269.944 285.017 269.636 284.84C269.328 284.653 268.94 284.56 268.474 284.56C268.007 284.56 267.652 284.663 267.41 284.868C267.176 285.064 267.06 285.335 267.06 285.68C267.06 286.035 267.176 286.291 267.41 286.45C267.652 286.609 267.998 286.725 268.446 286.8L269.006 286.884C269.808 287.005 270.378 287.239 270.714 287.584C271.05 287.92 271.218 288.363 271.218 288.914C271.218 289.614 270.98 290.165 270.504 290.566C270.028 290.967 269.374 291.168 268.544 291.168ZM275.534 286.632C275.534 287.313 275.464 287.971 275.324 288.606C275.193 289.231 275.011 289.815 274.778 290.356C274.554 290.897 274.288 291.387 273.98 291.826C273.672 292.265 273.345 292.629 273 292.918H271.936C272.319 292.582 272.664 292.19 272.972 291.742C273.289 291.294 273.56 290.818 273.784 290.314C274.008 289.81 274.181 289.297 274.302 288.774C274.423 288.251 274.484 287.743 274.484 287.248V286.044C274.484 285.559 274.423 285.055 274.302 284.532C274.181 284.009 274.008 283.496 273.784 282.992C273.569 282.488 273.303 282.012 272.986 281.564C272.678 281.116 272.328 280.715 271.936 280.36H273C273.355 280.668 273.686 281.041 273.994 281.48C274.302 281.919 274.568 282.409 274.792 282.95C275.025 283.482 275.207 284.061 275.338 284.686C275.469 285.311 275.534 285.96 275.534 286.632Z" fill="black"/>
<path d="M37 199.391L34.116 200.371L34.116 204.319L37 205.299L37 206.489L27.228 203.073L27.228 201.575L37 198.159L37 199.391ZM28.32 202.317L28.32 202.387L33.08 204.039L33.08 200.665L28.32 202.317ZM37 196.652L29.776 196.652L29.776 195.532L30.952 195.532L30.952 195.476C30.7653 195.392 30.5927 195.298 30.434 195.196C30.266 195.084 30.1213 194.953 30 194.804C29.8787 194.645 29.7853 194.463 29.72 194.258C29.6453 194.052 29.608 193.81 29.608 193.53C29.608 193.054 29.7247 192.615 29.958 192.214C30.182 191.812 30.5553 191.514 31.078 191.318L31.078 191.29C30.686 191.159 30.3453 190.916 30.056 190.562C29.7573 190.198 29.608 189.708 29.608 189.092C29.608 188.354 29.8507 187.78 30.336 187.37C30.812 186.95 31.4887 186.74 32.366 186.74L37 186.74L37 187.86L32.562 187.86C31.918 187.86 31.4327 187.986 31.106 188.238C30.7793 188.49 30.616 188.891 30.616 189.442C30.616 189.666 30.644 189.88 30.7 190.086C30.756 190.282 30.84 190.459 30.952 190.618C31.064 190.776 31.2087 190.902 31.386 190.996C31.554 191.089 31.7547 191.136 31.988 191.136L37 191.136L37 192.256L32.562 192.256C31.918 192.256 31.4327 192.382 31.106 192.634C30.7793 192.886 30.616 193.278 30.616 193.81C30.616 194.034 30.644 194.248 30.7 194.454C30.756 194.659 30.84 194.841 30.952 195C31.064 195.158 31.2087 195.289 31.386 195.392C31.554 195.485 31.7547 195.532 31.988 195.532L37 195.532L37 196.652ZM37 184.429L29.776 184.429L29.776 183.309L30.952 183.309L30.952 183.253C30.7653 183.169 30.5927 183.076 30.434 182.973C30.266 182.861 30.1213 182.73 30 182.581C29.8787 182.422 29.7853 182.24 29.72 182.035C29.6453 181.83 29.608 181.587 29.608 181.307C29.608 180.831 29.7247 180.392 29.958 179.991C30.182 179.59 30.5553 179.291 31.078 179.095L31.078 179.067C30.686 178.936 30.3453 178.694 30.056 178.339C29.7573 177.975 29.608 177.485 29.608 176.869C29.608 176.132 29.8507 175.558 30.336 175.147C30.812 174.727 31.4887 174.517 32.366 174.517L37 174.517L37 175.637L32.562 175.637C31.918 175.637 31.4327 175.763 31.106 176.015C30.7793 176.267 30.616 176.668 30.616 177.219C30.616 177.443 30.644 177.658 30.7 177.863C30.756 178.059 30.84 178.236 30.952 178.395C31.064 178.554 31.2087 178.68 31.386 178.773C31.554 178.866 31.7547 178.913 31.988 178.913L37 178.913L37 180.033L32.562 180.033C31.918 180.033 31.4327 180.159 31.106 180.411C30.7793 180.663 30.616 181.055 30.616 181.587C30.616 181.811 30.644 182.026 30.7 182.231C30.756 182.436 30.84 182.618 30.952 182.777C31.064 182.936 31.2087 183.066 31.386 183.169C31.554 183.262 31.7547 183.309 31.988 183.309L37 183.309L37 184.429ZM37.168 169.476C37.168 169.962 37.0793 170.405 36.902 170.806C36.7247 171.208 36.4727 171.553 36.146 171.842C35.81 172.122 35.4133 172.342 34.956 172.5C34.4893 172.659 33.9667 172.738 33.388 172.738C32.8187 172.738 32.3007 172.659 31.834 172.5C31.3673 172.342 30.9707 172.122 30.644 171.842C30.308 171.553 30.0513 171.208 29.874 170.806C29.6967 170.405 29.608 169.962 29.608 169.476C29.608 168.991 29.6967 168.552 29.874 168.16C30.0513 167.759 30.308 167.414 30.644 167.124C30.9707 166.835 31.3673 166.611 31.834 166.452C32.3007 166.294 32.8187 166.214 33.388 166.214C33.9667 166.214 34.4893 166.294 34.956 166.452C35.4133 166.611 35.81 166.835 36.146 167.124C36.4727 167.414 36.7247 167.759 36.902 168.16C37.0793 168.552 37.168 168.991 37.168 169.476ZM36.174 169.476C36.174 168.87 35.9873 168.375 35.614 167.992C35.2407 167.61 34.6713 167.418 33.906 167.418L32.87 167.418C32.1047 167.418 31.5353 167.61 31.162 167.992C30.7887 168.375 30.602 168.87 30.602 169.476C30.602 170.083 30.7887 170.578 31.162 170.96C31.5353 171.343 32.1047 171.534 32.87 171.534L33.906 171.534C34.6713 171.534 35.2407 171.343 35.614 170.96C35.9873 170.578 36.174 170.083 36.174 169.476ZM35.824 159.92L35.824 159.976C35.992 160.051 36.16 160.144 36.328 160.256C36.4867 160.359 36.6313 160.49 36.762 160.648C36.8833 160.807 36.9813 160.998 37.056 161.222C37.1307 161.446 37.168 161.708 37.168 162.006C37.168 162.753 36.93 163.346 36.454 163.784C35.9687 164.223 35.2873 164.442 34.41 164.442L29.776 164.442L29.776 163.322L34.214 163.322C35.5113 163.322 36.16 162.772 36.16 161.67C36.16 161.446 36.132 161.232 36.076 161.026C36.02 160.812 35.936 160.625 35.824 160.466C35.712 160.298 35.572 160.168 35.404 160.074C35.2267 159.972 35.0167 159.92 34.774 159.92L29.776 159.92L29.776 158.8L37 158.8L37 159.92L35.824 159.92ZM37 156.415L29.776 156.415L29.776 155.295L30.952 155.295L30.952 155.239C30.5413 155.062 30.2147 154.815 29.972 154.497C29.7293 154.171 29.608 153.737 29.608 153.195C29.608 152.449 29.8507 151.861 30.336 151.431C30.812 150.993 31.4887 150.773 32.366 150.773L37 150.773L37 151.893L32.562 151.893C31.2647 151.893 30.616 152.439 30.616 153.531C30.616 153.755 30.644 153.975 30.7 154.189C30.756 154.395 30.84 154.581 30.952 154.749C31.064 154.917 31.2087 155.053 31.386 155.155C31.554 155.249 31.7547 155.295 31.988 155.295L37 155.295L37 156.415ZM37 146.862C37 147.254 36.8927 147.553 36.678 147.758C36.454 147.954 36.1647 148.052 35.81 148.052L30.756 148.052L30.756 149.242L29.776 149.242L29.776 148.57C29.776 148.328 29.7293 148.164 29.636 148.08C29.5333 147.987 29.3607 147.94 29.118 147.94L27.774 147.94L27.774 146.932L29.776 146.932L29.776 145.35L30.756 145.35L30.756 146.932L36.02 146.932L36.02 145.462L37 145.462L37 146.862ZM32.632 140.27C31.96 140.27 31.3113 140.204 30.686 140.074C30.0607 139.943 29.482 139.766 28.95 139.542C28.4087 139.308 27.9187 139.038 27.48 138.73C27.0413 138.422 26.668 138.09 26.36 137.736L26.36 136.672C26.7147 137.064 27.116 137.418 27.564 137.736C28.012 138.044 28.488 138.31 28.992 138.534C29.496 138.748 30.0093 138.916 30.532 139.038C31.0547 139.159 31.5587 139.22 32.044 139.22L33.248 139.22C33.7427 139.22 34.2513 139.159 34.774 139.038C35.2967 138.916 35.81 138.744 36.314 138.52C36.818 138.296 37.294 138.03 37.742 137.722C38.19 137.404 38.582 137.054 38.918 136.672L38.918 137.736C38.6287 138.081 38.2647 138.408 37.826 138.716C37.3873 139.024 36.8973 139.294 36.356 139.528C35.8147 139.752 35.2313 139.934 34.606 140.074C33.9713 140.204 33.3133 140.27 32.632 140.27ZM37.168 132.864C37.168 133.368 37.0793 133.821 36.902 134.222C36.7247 134.624 36.4727 134.964 36.146 135.244C35.8193 135.515 35.4227 135.725 34.956 135.874C34.4893 136.014 33.9667 136.084 33.388 136.084C32.8093 136.084 32.2867 136.014 31.82 135.874C31.3533 135.725 30.9567 135.515 30.63 135.244C30.3033 134.964 30.0513 134.624 29.874 134.222C29.6967 133.821 29.608 133.368 29.608 132.864C29.608 132.146 29.7667 131.572 30.084 131.142C30.392 130.704 30.798 130.377 31.302 130.162L31.778 131.1C31.4047 131.231 31.1153 131.446 30.91 131.744C30.7047 132.043 30.602 132.416 30.602 132.864C30.602 133.2 30.658 133.494 30.77 133.746C30.8727 133.998 31.022 134.208 31.218 134.376C31.4047 134.544 31.6333 134.67 31.904 134.754C32.1653 134.838 32.4547 134.88 32.772 134.88L34.004 134.88C34.6387 134.88 35.1613 134.712 35.572 134.376C35.9733 134.031 36.174 133.527 36.174 132.864C36.174 131.959 35.754 131.306 34.914 130.904L35.46 130.092C35.9827 130.326 36.398 130.676 36.706 131.142C37.014 131.6 37.168 132.174 37.168 132.864ZM37.168 126.341C37.168 127.013 37.042 127.578 36.79 128.035C36.5287 128.483 36.1833 128.871 35.754 129.197L35.11 128.399C35.4647 128.119 35.74 127.807 35.936 127.461C36.1227 127.116 36.216 126.715 36.216 126.257C36.216 125.781 36.1133 125.413 35.908 125.151C35.7027 124.881 35.4133 124.745 35.04 124.745C34.76 124.745 34.522 124.839 34.326 125.025C34.1207 125.203 33.9807 125.529 33.906 126.005L33.822 126.579C33.7753 126.915 33.7053 127.223 33.612 127.503C33.5093 127.783 33.3787 128.031 33.22 128.245C33.052 128.451 32.8467 128.614 32.604 128.735C32.3613 128.847 32.072 128.903 31.736 128.903C31.3813 128.903 31.0733 128.838 30.812 128.707C30.5413 128.577 30.3173 128.399 30.14 128.175C29.9627 127.942 29.832 127.667 29.748 127.349C29.6547 127.032 29.608 126.691 29.608 126.327C29.608 125.739 29.7107 125.249 29.916 124.857C30.1213 124.456 30.406 124.106 30.77 123.807L31.442 124.549C31.218 124.708 31.0173 124.941 30.84 125.249C30.6533 125.557 30.56 125.945 30.56 126.411C30.56 126.878 30.6627 127.233 30.868 127.475C31.064 127.709 31.3347 127.825 31.68 127.825C32.0347 127.825 32.2913 127.709 32.45 127.475C32.6087 127.233 32.7253 126.887 32.8 126.439L32.884 125.879C33.0053 125.077 33.2387 124.507 33.584 124.171C33.92 123.835 34.3633 123.667 34.914 123.667C35.614 123.667 36.1647 123.905 36.566 124.381C36.9673 124.857 37.168 125.511 37.168 126.341ZM32.632 119.351C33.3133 119.351 33.9713 119.421 34.606 119.561C35.2313 119.692 35.8147 119.874 36.356 120.107C36.8973 120.331 37.3873 120.597 37.826 120.905C38.2647 121.213 38.6287 121.54 38.918 121.885L38.918 122.949C38.582 122.566 38.19 122.221 37.742 121.913C37.294 121.596 36.818 121.325 36.314 121.101C35.81 120.877 35.2967 120.704 34.774 120.583C34.2513 120.462 33.7427 120.401 33.248 120.401L32.044 120.401C31.5587 120.401 31.0547 120.462 30.532 120.583C30.0093 120.704 29.496 120.877 28.992 121.101C28.488 121.316 28.012 121.582 27.564 121.899C27.116 122.207 26.7147 122.557 26.36 122.949L26.36 121.885C26.668 121.53 27.0413 121.199 27.48 120.891C27.9187 120.583 28.4087 120.317 28.95 120.093C29.482 119.86 30.0607 119.678 30.686 119.547C31.3113 119.416 31.96 119.351 32.632 119.351Z" fill="black"/>
<path d="M156.458 267V266.112H158.798V259.368H158.714L156.602 261.336L156.014 260.7L158.234 258.624H159.806V266.112H161.966V267H156.458Z" fill="#434D59"/>
<path d="M63.2807 204.512H59.6087L59.3687 207.704H59.4527C59.6527 207.424 59.8767 207.2 60.1247 207.032C60.3807 206.864 60.7287 206.78 61.1687 206.78C61.5287 206.78 61.8607 206.84 62.1647 206.96C62.4687 207.08 62.7327 207.252 62.9567 207.476C63.1807 207.692 63.3527 207.96 63.4727 208.28C63.6007 208.6 63.6647 208.964 63.6647 209.372C63.6647 209.78 63.6007 210.156 63.4727 210.5C63.3447 210.836 63.1567 211.128 62.9087 211.376C62.6687 211.616 62.3727 211.804 62.0207 211.94C61.6767 212.076 61.2847 212.144 60.8447 212.144C60.4927 212.144 60.1807 212.104 59.9087 212.024C59.6447 211.944 59.4087 211.836 59.2007 211.7C58.9927 211.564 58.8087 211.412 58.6487 211.244C58.4967 211.076 58.3567 210.9 58.2287 210.716L58.9847 210.14C59.0887 210.308 59.1967 210.46 59.3087 210.596C59.4287 210.732 59.5567 210.848 59.6927 210.944C59.8367 211.04 60.0007 211.116 60.1847 211.172C60.3687 211.22 60.5887 211.244 60.8447 211.244C61.4207 211.244 61.8567 211.092 62.1527 210.788C62.4487 210.484 62.5967 210.056 62.5967 209.504V209.384C62.5967 208.832 62.4487 208.404 62.1527 208.1C61.8567 207.796 61.4207 207.644 60.8447 207.644C60.4607 207.644 60.1567 207.716 59.9327 207.86C59.7167 207.996 59.5207 208.16 59.3447 208.352L58.4927 208.232L58.7927 203.624H63.2807V204.512ZM68.1 212.144C67.1 212.144 66.368 211.764 65.904 211.004C65.448 210.244 65.22 209.18 65.22 207.812C65.22 206.444 65.448 205.38 65.904 204.62C66.368 203.86 67.1 203.48 68.1 203.48C69.1 203.48 69.828 203.86 70.284 204.62C70.748 205.38 70.98 206.444 70.98 207.812C70.98 209.18 70.748 210.244 70.284 211.004C69.828 211.764 69.1 212.144 68.1 212.144ZM68.1 211.268C68.428 211.268 68.708 211.2 68.94 211.064C69.172 210.928 69.36 210.736 69.504 210.488C69.648 210.24 69.752 209.948 69.816 209.612C69.888 209.276 69.924 208.904 69.924 208.496V207.128C69.924 206.72 69.888 206.348 69.816 206.012C69.752 205.676 69.648 205.384 69.504 205.136C69.36 204.888 69.172 204.696 68.94 204.56C68.708 204.424 68.428 204.356 68.1 204.356C67.772 204.356 67.492 204.424 67.26 204.56C67.028 204.696 66.84 204.888 66.696 205.136C66.552 205.384 66.444 205.676 66.372 206.012C66.308 206.348 66.276 206.72 66.276 207.128V208.496C66.276 208.904 66.308 209.276 66.372 209.612C66.444 209.948 66.552 210.24 66.696 210.488C66.84 210.736 67.028 210.928 67.26 211.064C67.492 211.2 67.772 211.268 68.1 211.268Z" fill="#434D59"/>
<path d="M68.0023 267.144C67.0023 267.144 66.2703 266.764 65.8063 266.004C65.3503 265.244 65.1223 264.18 65.1223 262.812C65.1223 261.444 65.3503 260.38 65.8063 259.62C66.2703 258.86 67.0023 258.48 68.0023 258.48C69.0023 258.48 69.7303 258.86 70.1863 259.62C70.6503 260.38 70.8823 261.444 70.8823 262.812C70.8823 264.18 70.6503 265.244 70.1863 266.004C69.7303 266.764 69.0023 267.144 68.0023 267.144ZM68.0023 266.268C68.3303 266.268 68.6103 266.2 68.8423 266.064C69.0743 265.928 69.2623 265.736 69.4063 265.488C69.5503 265.24 69.6543 264.948 69.7183 264.612C69.7903 264.276 69.8263 263.904 69.8263 263.496V262.128C69.8263 261.72 69.7903 261.348 69.7183 261.012C69.6543 260.676 69.5503 260.384 69.4063 260.136C69.2623 259.888 69.0743 259.696 68.8423 259.56C68.6103 259.424 68.3303 259.356 68.0023 259.356C67.6743 259.356 67.3943 259.424 67.1623 259.56C66.9303 259.696 66.7423 259.888 66.5983 260.136C66.4543 260.384 66.3463 260.676 66.2743 261.012C66.2103 261.348 66.1783 261.72 66.1783 262.128V263.496C66.1783 263.904 66.2103 264.276 66.2743 264.612C66.3463 264.948 66.4543 265.24 66.5983 265.488C66.7423 265.736 66.9303 265.928 67.1623 266.064C67.3943 266.2 67.6743 266.268 68.0023 266.268Z" fill="#434D59"/>
<path d="M51.263 172V171.112H53.603V164.368H53.519L51.407 166.336L50.819 165.7L53.039 163.624H54.611V171.112H56.771V172H51.263ZM61.0023 172.144C60.0023 172.144 59.2703 171.764 58.8063 171.004C58.3503 170.244 58.1223 169.18 58.1223 167.812C58.1223 166.444 58.3503 165.38 58.8063 164.62C59.2703 163.86 60.0023 163.48 61.0023 163.48C62.0023 163.48 62.7303 163.86 63.1863 164.62C63.6503 165.38 63.8823 166.444 63.8823 167.812C63.8823 169.18 63.6503 170.244 63.1863 171.004C62.7303 171.764 62.0023 172.144 61.0023 172.144ZM61.0023 171.268C61.3303 171.268 61.6103 171.2 61.8423 171.064C62.0743 170.928 62.2623 170.736 62.4063 170.488C62.5503 170.24 62.6543 169.948 62.7183 169.612C62.7903 169.276 62.8263 168.904 62.8263 168.496V167.128C62.8263 166.72 62.7903 166.348 62.7183 166.012C62.6543 165.676 62.5503 165.384 62.4063 165.136C62.2623 164.888 62.0743 164.696 61.8423 164.56C61.6103 164.424 61.3303 164.356 61.0023 164.356C60.6743 164.356 60.3943 164.424 60.1623 164.56C59.9303 164.696 59.7423 164.888 59.5983 165.136C59.4543 165.384 59.3463 165.676 59.2743 166.012C59.2103 166.348 59.1783 166.72 59.1783 167.128V168.496C59.1783 168.904 59.2103 169.276 59.2743 169.612C59.3463 169.948 59.4543 170.24 59.5983 170.488C59.7423 170.736 59.9303 170.928 60.1623 171.064C60.3943 171.2 60.6743 171.268 61.0023 171.268ZM68.1977 172.144C67.1977 172.144 66.4657 171.764 66.0017 171.004C65.5457 170.244 65.3177 169.18 65.3177 167.812C65.3177 166.444 65.5457 165.38 66.0017 164.62C66.4657 163.86 67.1977 163.48 68.1977 163.48C69.1977 163.48 69.9257 163.86 70.3817 164.62C70.8457 165.38 71.0777 166.444 71.0777 167.812C71.0777 169.18 70.8457 170.244 70.3817 171.004C69.9257 171.764 69.1977 172.144 68.1977 172.144ZM68.1977 171.268C68.5257 171.268 68.8057 171.2 69.0377 171.064C69.2697 170.928 69.4577 170.736 69.6017 170.488C69.7457 170.24 69.8497 169.948 69.9137 169.612C69.9857 169.276 70.0217 168.904 70.0217 168.496V167.128C70.0217 166.72 69.9857 166.348 69.9137 166.012C69.8497 165.676 69.7457 165.384 69.6017 165.136C69.4577 164.888 69.2697 164.696 69.0377 164.56C68.8057 164.424 68.5257 164.356 68.1977 164.356C67.8697 164.356 67.5897 164.424 67.3577 164.56C67.1257 164.696 66.9377 164.888 66.7937 165.136C66.6497 165.384 66.5417 165.676 66.4697 166.012C66.4057 166.348 66.3737 166.72 66.3737 167.128V168.496C66.3737 168.904 66.4057 169.276 66.4697 169.612C66.5417 169.948 66.6497 170.24 66.7937 170.488C66.9377 170.736 67.1257 170.928 67.3577 171.064C67.5897 171.2 67.8697 171.268 68.1977 171.268Z" fill="#434D59"/>
<path d="M51.263 132V131.112H53.603V124.368H53.519L51.407 126.336L50.819 125.7L53.039 123.624H54.611V131.112H56.771V132H51.263ZM63.3783 124.512H59.7063L59.4663 127.704H59.5503C59.7503 127.424 59.9743 127.2 60.2223 127.032C60.4783 126.864 60.8263 126.78 61.2663 126.78C61.6263 126.78 61.9583 126.84 62.2623 126.96C62.5663 127.08 62.8303 127.252 63.0543 127.476C63.2783 127.692 63.4503 127.96 63.5703 128.28C63.6983 128.6 63.7623 128.964 63.7623 129.372C63.7623 129.78 63.6983 130.156 63.5703 130.5C63.4423 130.836 63.2543 131.128 63.0063 131.376C62.7663 131.616 62.4703 131.804 62.1183 131.94C61.7743 132.076 61.3823 132.144 60.9423 132.144C60.5903 132.144 60.2783 132.104 60.0063 132.024C59.7423 131.944 59.5063 131.836 59.2983 131.7C59.0903 131.564 58.9063 131.412 58.7463 131.244C58.5943 131.076 58.4543 130.9 58.3263 130.716L59.0823 130.14C59.1863 130.308 59.2943 130.46 59.4063 130.596C59.5263 130.732 59.6543 130.848 59.7903 130.944C59.9343 131.04 60.0983 131.116 60.2823 131.172C60.4663 131.22 60.6863 131.244 60.9423 131.244C61.5183 131.244 61.9543 131.092 62.2503 130.788C62.5463 130.484 62.6943 130.056 62.6943 129.504V129.384C62.6943 128.832 62.5463 128.404 62.2503 128.1C61.9543 127.796 61.5183 127.644 60.9423 127.644C60.5583 127.644 60.2543 127.716 60.0303 127.86C59.8143 127.996 59.6183 128.16 59.4423 128.352L58.5903 128.232L58.8903 123.624H63.3783V124.512ZM68.1977 132.144C67.1977 132.144 66.4657 131.764 66.0017 131.004C65.5457 130.244 65.3177 129.18 65.3177 127.812C65.3177 126.444 65.5457 125.38 66.0017 124.62C66.4657 123.86 67.1977 123.48 68.1977 123.48C69.1977 123.48 69.9257 123.86 70.3817 124.62C70.8457 125.38 71.0777 126.444 71.0777 127.812C71.0777 129.18 70.8457 130.244 70.3817 131.004C69.9257 131.764 69.1977 132.144 68.1977 132.144ZM68.1977 131.268C68.5257 131.268 68.8057 131.2 69.0377 131.064C69.2697 130.928 69.4577 130.736 69.6017 130.488C69.7457 130.24 69.8497 129.948 69.9137 129.612C69.9857 129.276 70.0217 128.904 70.0217 128.496V127.128C70.0217 126.72 69.9857 126.348 69.9137 126.012C69.8497 125.676 69.7457 125.384 69.6017 125.136C69.4577 124.888 69.2697 124.696 69.0377 124.56C68.8057 124.424 68.5257 124.356 68.1977 124.356C67.8697 124.356 67.5897 124.424 67.3577 124.56C67.1257 124.696 66.9377 124.888 66.7937 125.136C66.6497 125.384 66.5417 125.676 66.4697 126.012C66.4057 126.348 66.3737 126.72 66.3737 127.128V128.496C66.3737 128.904 66.4057 129.276 66.4697 129.612C66.5417 129.948 66.6497 130.24 66.7937 130.488C66.9377 130.736 67.1257 130.928 67.3577 131.064C67.5897 131.2 67.8697 131.268 68.1977 131.268Z" fill="#434D59"/>
<path d="M56.603 92H51.107V90.968L53.843 88.448C54.235 88.088 54.563 87.708 54.827 87.308C55.091 86.9 55.223 86.492 55.223 86.084V85.94C55.223 85.476 55.095 85.1 54.839 84.812C54.583 84.524 54.195 84.38 53.675 84.38C53.419 84.38 53.195 84.416 53.003 84.488C52.811 84.56 52.643 84.66 52.499 84.788C52.363 84.916 52.247 85.068 52.151 85.244C52.063 85.412 51.991 85.596 51.935 85.796L51.035 85.448C51.115 85.2 51.223 84.96 51.359 84.728C51.503 84.488 51.679 84.276 51.887 84.092C52.103 83.908 52.359 83.76 52.655 83.648C52.959 83.536 53.315 83.48 53.723 83.48C54.131 83.48 54.495 83.54 54.815 83.66C55.135 83.78 55.403 83.948 55.619 84.164C55.835 84.38 55.999 84.636 56.111 84.932C56.231 85.228 56.291 85.556 56.291 85.916C56.291 86.244 56.243 86.548 56.147 86.828C56.059 87.108 55.935 87.376 55.775 87.632C55.615 87.88 55.419 88.124 55.187 88.364C54.963 88.604 54.719 88.844 54.455 89.084L52.199 91.112H56.603V92ZM61.0023 92.144C60.0023 92.144 59.2703 91.764 58.8063 91.004C58.3503 90.244 58.1223 89.18 58.1223 87.812C58.1223 86.444 58.3503 85.38 58.8063 84.62C59.2703 83.86 60.0023 83.48 61.0023 83.48C62.0023 83.48 62.7303 83.86 63.1863 84.62C63.6503 85.38 63.8823 86.444 63.8823 87.812C63.8823 89.18 63.6503 90.244 63.1863 91.004C62.7303 91.764 62.0023 92.144 61.0023 92.144ZM61.0023 91.268C61.3303 91.268 61.6103 91.2 61.8423 91.064C62.0743 90.928 62.2623 90.736 62.4063 90.488C62.5503 90.24 62.6543 89.948 62.7183 89.612C62.7903 89.276 62.8263 88.904 62.8263 88.496V87.128C62.8263 86.72 62.7903 86.348 62.7183 86.012C62.6543 85.676 62.5503 85.384 62.4063 85.136C62.2623 84.888 62.0743 84.696 61.8423 84.56C61.6103 84.424 61.3303 84.356 61.0023 84.356C60.6743 84.356 60.3943 84.424 60.1623 84.56C59.9303 84.696 59.7423 84.888 59.5983 85.136C59.4543 85.384 59.3463 85.676 59.2743 86.012C59.2103 86.348 59.1783 86.72 59.1783 87.128V88.496C59.1783 88.904 59.2103 89.276 59.2743 89.612C59.3463 89.948 59.4543 90.24 59.5983 90.488C59.7423 90.736 59.9303 90.928 60.1623 91.064C60.3943 91.2 60.6743 91.268 61.0023 91.268ZM68.1977 92.144C67.1977 92.144 66.4657 91.764 66.0017 91.004C65.5457 90.244 65.3177 89.18 65.3177 87.812C65.3177 86.444 65.5457 85.38 66.0017 84.62C66.4657 83.86 67.1977 83.48 68.1977 83.48C69.1977 83.48 69.9257 83.86 70.3817 84.62C70.8457 85.38 71.0777 86.444 71.0777 87.812C71.0777 89.18 70.8457 90.244 70.3817 91.004C69.9257 91.764 69.1977 92.144 68.1977 92.144ZM68.1977 91.268C68.5257 91.268 68.8057 91.2 69.0377 91.064C69.2697 90.928 69.4577 90.736 69.6017 90.488C69.7457 90.24 69.8497 89.948 69.9137 89.612C69.9857 89.276 70.0217 88.904 70.0217 88.496V87.128C70.0217 86.72 69.9857 86.348 69.9137 86.012C69.8497 85.676 69.7457 85.384 69.6017 85.136C69.4577 84.888 69.2697 84.696 69.0377 84.56C68.8057 84.424 68.5257 84.356 68.1977 84.356C67.8697 84.356 67.5897 84.424 67.3577 84.56C67.1257 84.696 66.9377 84.888 66.7937 85.136C66.6497 85.384 66.5417 85.676 66.4697 86.012C66.4057 86.348 66.3737 86.72 66.3737 87.128V88.496C66.3737 88.904 66.4057 89.276 66.4697 89.612C66.5417 89.948 66.6497 90.24 66.7937 90.488C66.9377 90.736 67.1257 90.928 67.3577 91.064C67.5897 91.2 67.8697 91.268 68.1977 91.268Z" fill="#434D59"/>
<path d="M242.798 267H237.302V265.968L240.038 263.448C240.43 263.088 240.758 262.708 241.022 262.308C241.286 261.9 241.418 261.492 241.418 261.084V260.94C241.418 260.476 241.29 260.1 241.034 259.812C240.778 259.524 240.39 259.38 239.87 259.38C239.614 259.38 239.39 259.416 239.198 259.488C239.006 259.56 238.838 259.66 238.694 259.788C238.558 259.916 238.442 260.068 238.346 260.244C238.258 260.412 238.186 260.596 238.13 260.796L237.23 260.448C237.31 260.2 237.418 259.96 237.554 259.728C237.698 259.488 237.874 259.276 238.082 259.092C238.298 258.908 238.554 258.76 238.85 258.648C239.154 258.536 239.51 258.48 239.918 258.48C240.326 258.48 240.69 258.54 241.01 258.66C241.33 258.78 241.598 258.948 241.814 259.164C242.03 259.38 242.194 259.636 242.306 259.932C242.426 260.228 242.486 260.556 242.486 260.916C242.486 261.244 242.438 261.548 242.342 261.828C242.254 262.108 242.13 262.376 241.97 262.632C241.81 262.88 241.614 263.124 241.382 263.364C241.158 263.604 240.914 263.844 240.65 264.084L238.394 266.112H242.798V267Z" fill="#434D59"/>
<path d="M319.534 262.176C320.102 262.176 320.526 262.048 320.806 261.792C321.094 261.528 321.238 261.192 321.238 260.784V260.7C321.238 260.26 321.098 259.932 320.818 259.716C320.546 259.492 320.186 259.38 319.738 259.38C319.306 259.38 318.954 259.476 318.682 259.668C318.41 259.852 318.186 260.104 318.01 260.424L317.266 259.848C317.37 259.68 317.494 259.516 317.638 259.356C317.79 259.188 317.966 259.04 318.166 258.912C318.366 258.784 318.598 258.68 318.862 258.6C319.126 258.52 319.426 258.48 319.762 258.48C320.114 258.48 320.446 258.528 320.758 258.624C321.07 258.712 321.338 258.848 321.562 259.032C321.794 259.208 321.974 259.428 322.102 259.692C322.238 259.956 322.306 260.256 322.306 260.592C322.306 260.864 322.262 261.108 322.174 261.324C322.094 261.54 321.982 261.728 321.838 261.888C321.694 262.048 321.522 262.184 321.322 262.296C321.13 262.408 320.922 262.492 320.698 262.548V262.596C320.922 262.644 321.138 262.724 321.346 262.836C321.562 262.94 321.75 263.08 321.91 263.256C322.078 263.424 322.21 263.632 322.306 263.88C322.41 264.12 322.462 264.396 322.462 264.708C322.462 265.068 322.394 265.4 322.258 265.704C322.122 266 321.93 266.256 321.682 266.472C321.434 266.68 321.134 266.844 320.782 266.964C320.43 267.084 320.042 267.144 319.618 267.144C319.258 267.144 318.938 267.104 318.658 267.024C318.378 266.944 318.13 266.836 317.914 266.7C317.698 266.564 317.506 266.412 317.338 266.244C317.178 266.076 317.034 265.9 316.906 265.716L317.662 265.14C317.766 265.308 317.878 265.46 317.998 265.596C318.126 265.732 318.266 265.848 318.418 265.944C318.57 266.04 318.742 266.116 318.934 266.172C319.126 266.22 319.35 266.244 319.606 266.244C320.198 266.244 320.646 266.112 320.95 265.848C321.254 265.576 321.406 265.192 321.406 264.696V264.6C321.406 264.104 321.254 263.724 320.95 263.46C320.646 263.188 320.198 263.052 319.606 263.052H318.622V262.176H319.534Z" fill="#434D59"/>
<path d="M400.902 267V265.356H396.858V264.468L400.362 258.624H401.862V264.516H403.074V265.356H401.862V267H400.902ZM397.806 264.516H400.902V259.404H400.842L397.806 264.516Z" fill="#434D59"/>
<path d="M158.949 34L157.829 30.704H153.317L152.197 34H150.837L154.741 22.832H156.453L160.357 34H158.949ZM155.605 24.08H155.525L153.637 29.52H157.493L155.605 24.08ZM162.079 34V25.744H163.359V27.088H163.423C163.519 26.8747 163.625 26.6773 163.743 26.496C163.871 26.304 164.02 26.1387 164.191 26C164.372 25.8613 164.58 25.7547 164.815 25.68C165.049 25.5947 165.327 25.552 165.647 25.552C166.191 25.552 166.692 25.6853 167.151 25.952C167.609 26.208 167.951 26.6347 168.175 27.232H168.207C168.356 26.784 168.633 26.3947 169.039 26.064C169.455 25.7227 170.015 25.552 170.719 25.552C171.561 25.552 172.217 25.8293 172.687 26.384C173.167 26.928 173.407 27.7013 173.407 28.704V34H172.127V28.928C172.127 28.192 171.983 27.6373 171.695 27.264C171.407 26.8907 170.948 26.704 170.319 26.704C170.063 26.704 169.817 26.736 169.583 26.8C169.359 26.864 169.156 26.96 168.975 27.088C168.793 27.216 168.649 27.3813 168.543 27.584C168.436 27.776 168.383 28.0053 168.383 28.272V34H167.103V28.928C167.103 28.192 166.959 27.6373 166.671 27.264C166.383 26.8907 165.935 26.704 165.327 26.704C165.071 26.704 164.825 26.736 164.591 26.8C164.356 26.864 164.148 26.96 163.967 27.088C163.785 27.216 163.636 27.3813 163.519 27.584C163.412 27.776 163.359 28.0053 163.359 28.272V34H162.079ZM176.048 34V25.744H177.328V27.088H177.392C177.488 26.8747 177.594 26.6773 177.712 26.496C177.84 26.304 177.989 26.1387 178.16 26C178.341 25.8613 178.549 25.7547 178.784 25.68C179.018 25.5947 179.296 25.552 179.616 25.552C180.16 25.552 180.661 25.6853 181.12 25.952C181.578 26.208 181.92 26.6347 182.144 27.232H182.176C182.325 26.784 182.602 26.3947 183.008 26.064C183.424 25.7227 183.984 25.552 184.688 25.552C185.53 25.552 186.186 25.8293 186.656 26.384C187.136 26.928 187.376 27.7013 187.376 28.704V34H186.096V28.928C186.096 28.192 185.952 27.6373 185.664 27.264C185.376 26.8907 184.917 26.704 184.288 26.704C184.032 26.704 183.786 26.736 183.552 26.8C183.328 26.864 183.125 26.96 182.944 27.088C182.762 27.216 182.618 27.3813 182.512 27.584C182.405 27.776 182.352 28.0053 182.352 28.272V34H181.072V28.928C181.072 28.192 180.928 27.6373 180.64 27.264C180.352 26.8907 179.904 26.704 179.296 26.704C179.04 26.704 178.794 26.736 178.56 26.8C178.325 26.864 178.117 26.96 177.936 27.088C177.754 27.216 177.605 27.3813 177.488 27.584C177.381 27.776 177.328 28.0053 177.328 28.272V34H176.048ZM193.136 34.192C192.582 34.192 192.075 34.0907 191.616 33.888C191.158 33.6853 190.763 33.3973 190.432 33.024C190.112 32.64 189.862 32.1867 189.68 31.664C189.499 31.1307 189.408 30.5333 189.408 29.872C189.408 29.2213 189.499 28.6293 189.68 28.096C189.862 27.5627 190.112 27.1093 190.432 26.736C190.763 26.352 191.158 26.0587 191.616 25.856C192.075 25.6533 192.582 25.552 193.136 25.552C193.691 25.552 194.192 25.6533 194.64 25.856C195.099 26.0587 195.494 26.352 195.824 26.736C196.155 27.1093 196.411 27.5627 196.592 28.096C196.774 28.6293 196.864 29.2213 196.864 29.872C196.864 30.5333 196.774 31.1307 196.592 31.664C196.411 32.1867 196.155 32.64 195.824 33.024C195.494 33.3973 195.099 33.6853 194.64 33.888C194.192 34.0907 193.691 34.192 193.136 34.192ZM193.136 33.056C193.83 33.056 194.395 32.8427 194.832 32.416C195.27 31.9893 195.488 31.3387 195.488 30.464V29.28C195.488 28.4053 195.27 27.7547 194.832 27.328C194.395 26.9013 193.83 26.688 193.136 26.688C192.443 26.688 191.878 26.9013 191.44 27.328C191.003 27.7547 190.784 28.4053 190.784 29.28V30.464C190.784 31.3387 191.003 31.9893 191.44 32.416C191.878 32.8427 192.443 33.056 193.136 33.056ZM204.057 32.656H203.993C203.908 32.848 203.801 33.04 203.673 33.232C203.556 33.4133 203.407 33.5787 203.225 33.728C203.044 33.8667 202.825 33.9787 202.569 34.064C202.313 34.1493 202.015 34.192 201.673 34.192C200.82 34.192 200.143 33.92 199.641 33.376C199.14 32.8213 198.889 32.0427 198.889 31.04V25.744H200.169V30.816C200.169 32.2987 200.799 33.04 202.057 33.04C202.313 33.04 202.559 33.008 202.793 32.944C203.039 32.88 203.252 32.784 203.433 32.656C203.625 32.528 203.775 32.368 203.881 32.176C203.999 31.9733 204.057 31.7333 204.057 31.456V25.744H205.337V34H204.057V32.656ZM208.063 34V25.744H209.343V27.088H209.407C209.61 26.6187 209.892 26.2453 210.255 25.968C210.628 25.6907 211.124 25.552 211.743 25.552C212.596 25.552 213.268 25.8293 213.759 26.384C214.26 26.928 214.511 27.7013 214.511 28.704V34H213.231V28.928C213.231 27.4453 212.607 26.704 211.359 26.704C211.103 26.704 210.852 26.736 210.607 26.8C210.372 26.864 210.159 26.96 209.967 27.088C209.775 27.216 209.62 27.3813 209.503 27.584C209.396 27.776 209.343 28.0053 209.343 28.272V34H208.063ZM218.981 34C218.533 34 218.192 33.8773 217.957 33.632C217.733 33.376 217.621 33.0453 217.621 32.64V26.864H216.261V25.744H217.029C217.306 25.744 217.493 25.6907 217.589 25.584C217.696 25.4667 217.749 25.2693 217.749 24.992V23.456H218.901V25.744H220.709V26.864H218.901V32.88H220.581V34H218.981ZM229.668 34.192C229.113 34.192 228.606 34.0907 228.148 33.888C227.689 33.6853 227.294 33.3973 226.964 33.024C226.644 32.64 226.393 32.1867 226.212 31.664C226.03 31.1307 225.94 30.5333 225.94 29.872C225.94 29.2213 226.03 28.6293 226.212 28.096C226.393 27.5627 226.644 27.1093 226.964 26.736C227.294 26.352 227.689 26.0587 228.148 25.856C228.606 25.6533 229.113 25.552 229.668 25.552C230.222 25.552 230.724 25.6533 231.172 25.856C231.63 26.0587 232.025 26.352 232.356 26.736C232.686 27.1093 232.942 27.5627 233.124 28.096C233.305 28.6293 233.396 29.2213 233.396 29.872C233.396 30.5333 233.305 31.1307 233.124 31.664C232.942 32.1867 232.686 32.64 232.356 33.024C232.025 33.3973 231.63 33.6853 231.172 33.888C230.724 34.0907 230.222 34.192 229.668 34.192ZM229.668 33.056C230.361 33.056 230.926 32.8427 231.364 32.416C231.801 31.9893 232.02 31.3387 232.02 30.464V29.28C232.02 28.4053 231.801 27.7547 231.364 27.328C230.926 26.9013 230.361 26.688 229.668 26.688C228.974 26.688 228.409 26.9013 227.972 27.328C227.534 27.7547 227.316 28.4053 227.316 29.28V30.464C227.316 31.3387 227.534 31.9893 227.972 32.416C228.409 32.8427 228.974 33.056 229.668 33.056ZM237.2 34L234.304 25.744H235.584L237.024 29.84L237.92 32.656H238L238.896 29.84L240.368 25.744H241.6L238.688 34H237.2ZM246.23 34.192C245.664 34.192 245.152 34.0907 244.694 33.888C244.246 33.6853 243.856 33.3973 243.526 33.024C243.206 32.64 242.955 32.1867 242.774 31.664C242.603 31.1307 242.518 30.5333 242.518 29.872C242.518 29.2213 242.603 28.6293 242.774 28.096C242.955 27.5627 243.206 27.1093 243.526 26.736C243.856 26.352 244.246 26.0587 244.694 25.856C245.152 25.6533 245.664 25.552 246.23 25.552C246.784 25.552 247.28 25.6533 247.718 25.856C248.155 26.0587 248.528 26.3413 248.838 26.704C249.147 27.056 249.382 27.4773 249.542 27.968C249.712 28.4587 249.798 28.9973 249.798 29.584V30.192H243.862V30.576C243.862 30.928 243.915 31.2587 244.022 31.568C244.139 31.8667 244.299 32.128 244.502 32.352C244.715 32.576 244.971 32.752 245.27 32.88C245.579 33.008 245.926 33.072 246.31 33.072C246.832 33.072 247.286 32.9493 247.67 32.704C248.064 32.4587 248.368 32.1067 248.582 31.648L249.494 32.304C249.227 32.8693 248.811 33.328 248.246 33.68C247.68 34.0213 247.008 34.192 246.23 34.192ZM246.23 26.624C245.878 26.624 245.558 26.688 245.27 26.816C244.982 26.9333 244.731 27.104 244.518 27.328C244.315 27.552 244.155 27.8187 244.038 28.128C243.92 28.4267 243.862 28.7573 243.862 29.12V29.232H248.422V29.056C248.422 28.32 248.219 27.7333 247.814 27.296C247.419 26.848 246.891 26.624 246.23 26.624ZM251.907 34V25.744H253.187V27.264H253.267C253.416 26.8693 253.683 26.5173 254.067 26.208C254.451 25.8987 254.979 25.744 255.651 25.744H256.147V27.024H255.395C254.702 27.024 254.158 27.1573 253.763 27.424C253.379 27.68 253.187 28.0053 253.187 28.4V34H251.907ZM263.387 34C262.939 34 262.598 33.8773 262.363 33.632C262.139 33.376 262.027 33.0453 262.027 32.64V26.864H260.667V25.744H261.435C261.712 25.744 261.899 25.6907 261.995 25.584C262.102 25.4667 262.155 25.2693 262.155 24.992V23.456H263.307V25.744H265.115V26.864H263.307V32.88H264.987V34H263.387ZM267.812 23.808C267.535 23.808 267.333 23.744 267.205 23.616C267.087 23.4773 267.029 23.3013 267.029 23.088V22.88C267.029 22.6667 267.087 22.496 267.205 22.368C267.333 22.2293 267.535 22.16 267.812 22.16C268.09 22.16 268.287 22.2293 268.405 22.368C268.533 22.496 268.597 22.6667 268.597 22.88V23.088C268.597 23.3013 268.533 23.4773 268.405 23.616C268.287 23.744 268.09 23.808 267.812 23.808ZM267.173 25.744H268.453V34H267.173V25.744ZM271.173 34V25.744H272.453V27.088H272.517C272.613 26.8747 272.719 26.6773 272.837 26.496C272.965 26.304 273.114 26.1387 273.285 26C273.466 25.8613 273.674 25.7547 273.909 25.68C274.143 25.5947 274.421 25.552 274.741 25.552C275.285 25.552 275.786 25.6853 276.245 25.952C276.703 26.208 277.045 26.6347 277.269 27.232H277.301C277.45 26.784 277.727 26.3947 278.133 26.064C278.549 25.7227 279.109 25.552 279.812 25.552C280.655 25.552 281.311 25.8293 281.781 26.384C282.261 26.928 282.501 27.7013 282.501 28.704V34H281.221V28.928C281.221 28.192 281.077 27.6373 280.789 27.264C280.501 26.8907 280.042 26.704 279.413 26.704C279.157 26.704 278.911 26.736 278.677 26.8C278.453 26.864 278.25 26.96 278.069 27.088C277.887 27.216 277.743 27.3813 277.637 27.584C277.53 27.776 277.477 28.0053 277.477 28.272V34H276.197V28.928C276.197 28.192 276.053 27.6373 275.765 27.264C275.477 26.8907 275.029 26.704 274.421 26.704C274.165 26.704 273.919 26.736 273.685 26.8C273.45 26.864 273.242 26.96 273.061 27.088C272.879 27.216 272.73 27.3813 272.613 27.584C272.506 27.776 272.453 28.0053 272.453 28.272V34H271.173ZM288.245 34.192C287.68 34.192 287.168 34.0907 286.709 33.888C286.261 33.6853 285.872 33.3973 285.541 33.024C285.221 32.64 284.971 32.1867 284.789 31.664C284.619 31.1307 284.533 30.5333 284.533 29.872C284.533 29.2213 284.619 28.6293 284.789 28.096C284.971 27.5627 285.221 27.1093 285.541 26.736C285.872 26.352 286.261 26.0587 286.709 25.856C287.168 25.6533 287.68 25.552 288.245 25.552C288.8 25.552 289.296 25.6533 289.733 25.856C290.171 26.0587 290.544 26.3413 290.853 26.704C291.163 27.056 291.397 27.4773 291.557 27.968C291.728 28.4587 291.813 28.9973 291.813 29.584V30.192H285.877V30.576C285.877 30.928 285.931 31.2587 286.037 31.568C286.155 31.8667 286.315 32.128 286.517 32.352C286.731 32.576 286.987 32.752 287.285 32.88C287.595 33.008 287.941 33.072 288.325 33.072C288.848 33.072 289.301 32.9493 289.685 32.704C290.08 32.4587 290.384 32.1067 290.597 31.648L291.509 32.304C291.243 32.8693 290.827 33.328 290.261 33.68C289.696 34.0213 289.024 34.192 288.245 34.192ZM288.245 26.624C287.893 26.624 287.573 26.688 287.285 26.816C286.997 26.9333 286.747 27.104 286.533 27.328C286.331 27.552 286.171 27.8187 286.053 28.128C285.936 28.4267 285.877 28.7573 285.877 29.12V29.232H290.437V29.056C290.437 28.32 290.235 27.7333 289.829 27.296C289.435 26.848 288.907 26.624 288.245 26.624ZM304.664 34.912C304.664 35.7653 304.328 36.3893 303.656 36.784C302.994 37.1893 301.997 37.392 300.664 37.392C299.373 37.392 298.445 37.216 297.88 36.864C297.314 36.512 297.032 36.0107 297.032 35.36C297.032 34.912 297.149 34.56 297.384 34.304C297.618 34.0587 297.938 33.8773 298.344 33.76V33.584C297.853 33.3493 297.608 32.9653 297.608 32.432C297.608 32.016 297.741 31.7013 298.008 31.488C298.274 31.264 298.616 31.0987 299.032 30.992V30.928C298.541 30.6933 298.157 30.3573 297.88 29.92C297.613 29.4827 297.48 28.976 297.48 28.4C297.48 27.984 297.554 27.6 297.704 27.248C297.853 26.896 298.061 26.5973 298.328 26.352C298.605 26.096 298.93 25.8987 299.304 25.76C299.688 25.6213 300.114 25.552 300.584 25.552C301.17 25.552 301.693 25.6587 302.152 25.872V25.728C302.152 25.408 302.226 25.1467 302.376 24.944C302.525 24.7307 302.77 24.624 303.112 24.624H304.344V25.744H302.776V26.272C303.074 26.528 303.304 26.8373 303.464 27.2C303.634 27.552 303.72 27.952 303.72 28.4C303.72 28.816 303.645 29.2 303.496 29.552C303.346 29.904 303.133 30.208 302.856 30.464C302.589 30.7093 302.264 30.9013 301.88 31.04C301.496 31.1787 301.069 31.248 300.6 31.248C300.333 31.248 300.066 31.2213 299.8 31.168C299.522 31.2427 299.272 31.3547 299.048 31.504C298.824 31.6427 298.712 31.84 298.712 32.096C298.712 32.3413 298.829 32.5067 299.064 32.592C299.298 32.6773 299.602 32.72 299.976 32.72H301.736C302.76 32.72 303.501 32.9173 303.96 33.312C304.429 33.696 304.664 34.2293 304.664 34.912ZM303.464 35.008C303.464 34.6773 303.336 34.4107 303.08 34.208C302.834 34.016 302.392 33.92 301.752 33.92H299C298.488 34.1547 298.232 34.528 298.232 35.04C298.232 35.4027 298.365 35.712 298.632 35.968C298.909 36.224 299.373 36.352 300.024 36.352H301.208C301.922 36.352 302.477 36.24 302.872 36.016C303.266 35.792 303.464 35.456 303.464 35.008ZM300.6 30.224C301.144 30.224 301.576 30.096 301.896 29.84C302.216 29.5733 302.376 29.168 302.376 28.624V28.176C302.376 27.632 302.216 27.232 301.896 26.976C301.576 26.7093 301.144 26.576 300.6 26.576C300.056 26.576 299.624 26.7093 299.304 26.976C298.984 27.232 298.824 27.632 298.824 28.176V28.624C298.824 29.168 298.984 29.5733 299.304 29.84C299.624 30.096 300.056 30.224 300.6 30.224ZM306.157 34V25.744H307.437V27.264H307.517C307.666 26.8693 307.933 26.5173 308.317 26.208C308.701 25.8987 309.229 25.744 309.901 25.744H310.397V27.024H309.645C308.952 27.024 308.408 27.1573 308.013 27.424C307.629 27.68 307.437 28.0053 307.437 28.4V34H306.157ZM317.969 34C317.489 34 317.143 33.872 316.929 33.616C316.727 33.36 316.599 33.04 316.545 32.656H316.465C316.284 33.168 315.985 33.552 315.569 33.808C315.153 34.064 314.657 34.192 314.081 34.192C313.207 34.192 312.524 33.968 312.033 33.52C311.553 33.072 311.313 32.464 311.313 31.696C311.313 30.9173 311.596 30.32 312.161 29.904C312.737 29.488 313.628 29.28 314.833 29.28H316.465V28.464C316.465 27.8773 316.305 27.4293 315.985 27.12C315.665 26.8107 315.175 26.656 314.513 26.656C314.012 26.656 313.591 26.768 313.249 26.992C312.919 27.216 312.641 27.5147 312.417 27.888L311.649 27.168C311.873 26.72 312.231 26.3413 312.721 26.032C313.212 25.712 313.831 25.552 314.577 25.552C315.58 25.552 316.359 25.7973 316.913 26.288C317.468 26.7787 317.745 27.4613 317.745 28.336V32.88H318.689V34H317.969ZM314.289 33.104C314.609 33.104 314.903 33.0667 315.169 32.992C315.436 32.9173 315.665 32.8107 315.857 32.672C316.049 32.5333 316.199 32.3733 316.305 32.192C316.412 32.0107 316.465 31.8133 316.465 31.6V30.24H314.769C314.033 30.24 313.495 30.3467 313.153 30.56C312.823 30.7733 312.657 31.0827 312.657 31.488V31.824C312.657 32.2293 312.801 32.544 313.089 32.768C313.388 32.992 313.788 33.104 314.289 33.104ZM320.516 25.744H321.796V27.088H321.86C322.074 26.5653 322.383 26.1813 322.788 25.936C323.204 25.68 323.7 25.552 324.276 25.552C324.788 25.552 325.252 25.6533 325.668 25.856C326.084 26.0587 326.436 26.3467 326.724 26.72C327.023 27.0933 327.247 27.5467 327.396 28.08C327.556 28.6133 327.636 29.2107 327.636 29.872C327.636 30.5333 327.556 31.1307 327.396 31.664C327.247 32.1973 327.023 32.6507 326.724 33.024C326.436 33.3973 326.084 33.6853 325.668 33.888C325.252 34.0907 324.788 34.192 324.276 34.192C323.156 34.192 322.351 33.68 321.86 32.656H321.796V37.2H320.516V25.744ZM323.924 33.04C324.65 33.04 325.22 32.816 325.636 32.368C326.052 31.9093 326.26 31.312 326.26 30.576V29.168C326.26 28.432 326.052 27.84 325.636 27.392C325.22 26.9333 324.65 26.704 323.924 26.704C323.636 26.704 323.359 26.7467 323.092 26.832C322.836 26.9067 322.612 27.0133 322.42 27.152C322.228 27.2907 322.074 27.4613 321.956 27.664C321.85 27.856 321.796 28.064 321.796 28.288V31.36C321.796 31.6267 321.85 31.8667 321.956 32.08C322.074 32.2827 322.228 32.4587 322.42 32.608C322.612 32.7467 322.836 32.8533 323.092 32.928C323.359 33.0027 323.636 33.04 323.924 33.04ZM329.798 22.16H331.078V27.088H331.142C331.344 26.6187 331.627 26.2453 331.99 25.968C332.363 25.6907 332.859 25.552 333.478 25.552C334.331 25.552 335.003 25.8293 335.494 26.384C335.995 26.928 336.246 27.7013 336.246 28.704V34H334.966V28.928C334.966 27.4453 334.342 26.704 333.094 26.704C332.838 26.704 332.587 26.736 332.342 26.8C332.107 26.864 331.894 26.96 331.702 27.088C331.51 27.216 331.355 27.3813 331.238 27.584C331.131 27.776 331.078 28.0053 331.078 28.272V34H329.798V22.16Z" fill="black"/>
</svg>
